<svg width="46" height="46" viewBox="0 0 46 46" fill="none" xmlns="http://www.w3.org/2000/svg">
<path d="M23 -7.62939e-06C18.451 -7.62939e-06 14.0042 1.34892 10.2219 3.87619C6.43956 6.40347 3.49158 9.99557 1.75077 14.1983C0.00995636 18.401 -0.445522 23.0255 0.441936 27.4871C1.3294 31.9486 3.51994 36.0468 6.73655 39.2634C9.95315 42.4801 14.0514 44.6706 18.5129 45.5581C22.9745 46.4455 27.599 45.99 31.8017 44.2492C36.0044 42.5084 39.5965 39.5604 42.1238 35.7781C44.6511 31.9958 46 27.549 46 23C46 16.9 43.5768 11.0499 39.2635 6.73654C34.9501 2.4232 29.1 -7.62939e-06 23 -7.62939e-06ZM27.387 34.7097C26.601 35.4835 25.3369 35.475 24.5615 34.6906L14.2682 24.2781C13.4888 23.4896 13.4995 22.2175 14.292 21.4423L24.5947 11.3648C25.3707 10.6057 26.6106 10.6043 27.3884 11.3616L27.7498 11.7135C28.5518 12.4944 28.5568 13.7813 27.761 14.5684L20.7674 21.4854C19.982 22.2622 19.9751 23.5286 20.7519 24.3139L27.8255 31.4648C28.6036 32.2513 28.5952 33.5202 27.8067 34.2965L27.387 34.7097Z" fill="black"/>
</svg>
