<svg width="23" height="23" viewBox="0 0 23 23" fill="none" xmlns="http://www.w3.org/2000/svg">
<path d="M17.919 22.75H4.79403C4.06383 22.7499 3.34332 22.5829 2.68744 22.262C2.03156 21.9411 1.45764 21.4746 1.00946 20.8981C0.56128 20.3216 0.250678 19.6504 0.101346 18.9356C-0.047987 18.2209 -0.0321058 17.4814 0.147778 16.7738L2.80778 5.915C2.85568 5.72086 2.96864 5.54898 3.12785 5.42799C3.28705 5.30699 3.4829 5.24418 3.68278 5.25H18.339C18.532 5.24116 18.7225 5.29646 18.8808 5.40726C19.0391 5.51806 19.1563 5.67813 19.214 5.8625L22.5215 16.5025C22.7477 17.2252 22.7997 17.9911 22.6735 18.7377C22.5473 19.4843 22.2464 20.1906 21.7953 20.7988C21.3516 21.4095 20.7682 21.9053 20.0939 22.2447C19.4196 22.5842 18.6739 22.7574 17.919 22.75ZM4.33903 7L1.81028 17.1938C1.69767 17.6435 1.68865 18.1129 1.78389 18.5667C1.87913 19.0204 2.07615 19.4466 2.36009 19.8131C2.64403 20.1797 3.00748 20.4769 3.42304 20.6825C3.8386 20.8881 4.29541 20.9967 4.75903 21H17.884C18.3602 21.0008 18.8298 20.8885 19.2542 20.6725C19.6786 20.4566 20.0457 20.1429 20.3253 19.7575C20.613 19.3699 20.8049 18.9197 20.8855 18.4437C20.9661 17.9678 20.933 17.4795 20.789 17.0188L17.709 7H4.33903Z" fill="black"/>
<path d="M14.8391 12.25C14.607 12.25 14.3844 12.1578 14.2203 11.9937C14.0562 11.8296 13.9641 11.6071 13.9641 11.375V4.375C13.9641 3.67881 13.6875 3.01113 13.1952 2.51884C12.7029 2.02656 12.0352 1.75 11.3391 1.75C10.6429 1.75 9.97518 2.02656 9.48289 2.51884C8.99061 3.01113 8.71405 3.67881 8.71405 4.375V11.375C8.71405 11.6071 8.62186 11.8296 8.45777 11.9937C8.29367 12.1578 8.07111 12.25 7.83905 12.25C7.60699 12.25 7.38443 12.1578 7.22033 11.9937C7.05624 11.8296 6.96405 11.6071 6.96405 11.375V4.375C6.96405 3.21468 7.42499 2.10188 8.24546 1.28141C9.06593 0.460936 10.1787 0 11.3391 0C12.4994 0 13.6122 0.460936 14.4326 1.28141C15.2531 2.10188 15.7141 3.21468 15.7141 4.375V11.375C15.7141 11.6071 15.6219 11.8296 15.4578 11.9937C15.2937 12.1578 15.0711 12.25 14.8391 12.25Z" fill="black"/>
</svg>
