<svg width="40" height="41" viewBox="0 0 40 41" fill="none" xmlns="http://www.w3.org/2000/svg">
<path fill-rule="evenodd" clip-rule="evenodd" d="M14.0819 16.1079V8.78612C14.0819 5.5533 16.7065 2.92871 19.9393 2.92871C23.1721 2.92871 25.7967 5.5533 25.7967 8.78612V16.1079C25.7967 16.9162 26.4528 17.5722 27.2611 17.5722C28.0694 17.5722 28.7254 16.9162 28.7254 16.1079V8.78612C28.7254 3.93712 24.7883 0 19.9393 0C15.0899 0 11.1532 3.93712 11.1532 8.78612V16.1079C11.1532 16.9162 11.8092 17.5722 12.6176 17.5722C13.4259 17.5722 14.0819 16.9162 14.0819 16.1079Z" fill="black"/>
<path fill-rule="evenodd" clip-rule="evenodd" d="M9.67728 11.713H7.97722C5.84278 11.713 4.01714 13.2471 3.64976 15.3497L0.0654925 35.8507C-0.157558 37.1285 0.195293 38.4401 1.02986 39.4331C1.86442 40.4265 3.09542 41 4.39295 41H35.4855C36.783 41 38.014 40.4265 38.8491 39.4331C39.6836 38.4401 40.0365 37.1285 39.813 35.8507L36.2292 15.3497C35.8618 13.2471 34.0362 11.713 31.9017 11.713H30.1895V16.0887C30.1895 16.8656 29.8807 17.6107 29.3315 18.1599C28.7823 18.709 28.0377 19.0174 27.2608 19.0174C26.4838 19.0174 25.7392 18.709 25.1901 18.1599C24.6404 17.6107 24.3321 16.8656 24.3321 16.0887V11.713H15.5347V16.0887C15.5347 16.8656 15.2259 17.6107 14.6767 18.1599C14.1275 18.709 13.3824 19.0174 12.606 19.0174C11.8291 19.0174 11.0845 18.709 10.5348 18.1599C9.98561 17.6107 9.67728 16.8656 9.67728 16.0887V11.713ZM19.9395 19.0347C15.09 19.0347 11.1533 22.9718 11.1533 27.8208C11.1533 32.6698 15.09 36.607 19.9395 36.607C24.7885 36.607 28.7256 32.6698 28.7256 27.8208C28.7256 22.9718 24.7885 19.0347 19.9395 19.0347ZM19.9395 21.9634C23.1723 21.9634 25.7969 24.588 25.7969 27.8208C25.7969 31.0537 23.1723 33.6783 19.9395 33.6783C16.7066 33.6783 14.0821 31.0537 14.0821 27.8208C14.0821 24.588 16.7066 21.9634 19.9395 21.9634ZM22.0102 27.8208L23.0458 26.7853C23.6175 26.214 23.6175 25.2858 23.0458 24.7145C22.4741 24.1429 21.5463 24.1429 20.9751 24.7145L19.9395 25.7501L18.9039 24.7145C18.3327 24.1429 17.4044 24.1429 16.8332 24.7145C16.2615 25.2858 16.2615 26.214 16.8332 26.7853L17.8683 27.8208L16.8332 28.8564C16.2615 29.4276 16.2615 30.3559 16.8332 30.9271C17.4044 31.4988 18.3327 31.4988 18.9039 30.9271L19.9395 29.8916L20.9751 30.9271C21.5463 31.4988 22.4741 31.4988 23.0458 30.9271C23.6175 30.3559 23.6175 29.4276 23.0458 28.8564L22.0102 27.8208Z" fill="black"/>
</svg>
