<svg width="183" height="171" viewBox="0 0 183 171" fill="none" xmlns="http://www.w3.org/2000/svg">
<path d="M35.048 130.62V146.116C35.048 151.177 33.8173 154.817 31.356 157.036C28.9293 159.22 24.8213 160.312 19.032 160.312C13.52 160.312 9.464 159.133 6.864 156.776C4.29867 154.419 3.016 150.865 3.016 146.116V130.62C3.016 128.783 3.55333 127.292 4.628 126.148C5.73733 124.969 7.124 124.38 8.788 124.38C10.8333 124.38 12.376 124.761 13.416 125.524C14.4907 126.287 15.028 127.829 15.028 130.152V147.104C15.0627 148.213 15.236 149.097 15.548 149.756C15.8947 150.415 16.3453 150.883 16.9 151.16C17.4547 151.403 18.1653 151.524 19.032 151.524C19.8987 151.524 20.6093 151.42 21.164 151.212C21.7187 151.004 22.1173 150.675 22.36 150.224C22.6373 149.773 22.8107 149.323 22.88 148.872C22.984 148.421 23.036 147.832 23.036 147.104V130.1C23.036 128.921 23.1747 127.933 23.452 127.136C23.764 126.339 24.2147 125.749 24.804 125.368C25.428 124.987 26.052 124.727 26.676 124.588C27.3347 124.449 28.1147 124.38 29.016 124.38C31.0267 124.38 32.5347 124.865 33.54 125.836C34.5453 126.807 35.048 128.401 35.048 130.62ZM43.3318 148.872V142.736C42.4652 142.701 41.7718 142.563 41.2518 142.32C40.7318 142.043 40.3505 141.696 40.1078 141.28C39.8998 140.864 39.7958 140.344 39.7958 139.72C39.7958 137.744 40.9918 136.669 43.3838 136.496V131.66C43.3838 130.343 44.3372 129.164 46.2438 128.124C48.1505 127.049 50.0398 126.512 51.9118 126.512C53.0558 126.512 53.8012 126.841 54.1478 127.5C54.4945 128.159 54.6678 129.147 54.6678 130.464L54.7198 136.444H56.1238C58.0305 136.444 59.3305 136.704 60.0238 137.224C60.7518 137.709 61.1158 138.611 61.1158 139.928C61.1158 140.483 61.0118 140.951 60.8038 141.332C60.5958 141.713 60.2492 142.008 59.7638 142.216C59.3132 142.424 58.7585 142.58 58.0998 142.684C57.4412 142.753 56.6265 142.788 55.6558 142.788H54.7198V148.508C54.7198 149.063 54.7372 149.531 54.7718 149.912C54.8412 150.259 54.9278 150.536 55.0318 150.744C55.1358 150.952 55.2745 151.091 55.4478 151.16C55.6558 151.229 55.8985 151.264 56.1758 151.264C56.5918 151.264 56.9385 151.125 57.2158 150.848C57.4932 150.536 57.7012 150.207 57.8398 149.86C58.0132 149.479 58.2212 149.149 58.4638 148.872C58.7412 148.56 59.0532 148.404 59.3998 148.404C60.1972 148.404 60.8038 148.595 61.2198 148.976C61.6705 149.357 61.8958 149.825 61.8958 150.38C61.8958 151.316 61.7052 152.321 61.3238 153.396C60.9772 154.471 60.4572 155.511 59.7638 156.516C59.0705 157.521 58.0998 158.353 56.8518 159.012C55.6385 159.671 54.2692 160 52.7438 160C49.3118 160 46.8852 159.133 45.4638 157.4C44.0425 155.667 43.3318 152.824 43.3318 148.872ZM82.563 147.676C82.563 145.873 82.3377 144.296 81.887 142.944C81.4363 141.557 80.7777 140.864 79.911 140.864C79.3217 140.864 78.8017 141.211 78.351 141.904C77.9003 142.597 77.571 143.447 77.363 144.452C77.155 145.457 77.051 146.532 77.051 147.676C77.051 149.444 77.2937 151.004 77.779 152.356C78.2643 153.673 78.9577 154.332 79.859 154.332C80.7603 154.332 81.4363 153.673 81.887 152.356C82.3377 151.039 82.563 149.479 82.563 147.676ZM79.859 160.364C77.155 160.364 74.711 159.879 72.527 158.908C70.3777 157.937 68.6443 156.481 67.327 154.54C66.0443 152.599 65.403 150.328 65.403 147.728C65.403 143.776 66.755 140.639 69.459 138.316C72.163 135.993 75.6297 134.832 79.859 134.832C84.0883 134.832 87.5377 135.993 90.207 138.316C92.8763 140.639 94.211 143.776 94.211 147.728C94.211 151.645 92.8417 154.731 90.103 156.984C87.399 159.237 83.9843 160.364 79.859 160.364ZM110.064 163.016C110.064 165.824 109.596 167.817 108.66 168.996C107.724 170.209 106.285 170.816 104.344 170.816C102.402 170.816 100.981 170.261 100.08 169.152C99.1784 168.077 98.7277 166.153 98.7277 163.38L98.6237 141.436C98.6237 139.287 99.1437 137.709 100.184 136.704C101.224 135.699 102.61 135.196 104.344 135.196C105.696 135.196 106.788 135.369 107.62 135.716C108.452 136.028 109.076 136.669 109.492 137.64C111.884 135.768 114.449 134.832 117.188 134.832C119.961 134.832 122.232 135.993 124 138.316C125.768 140.639 126.652 143.793 126.652 147.78C126.652 151.663 125.75 154.731 123.948 156.984C122.145 159.203 119.874 160.312 117.136 160.312C114.501 160.312 112.144 159.723 110.064 158.544V163.016ZM110.064 152.46C110.653 153.431 111.433 153.916 112.404 153.916C113.34 153.916 114.068 153.292 114.588 152.044C115.108 150.796 115.368 149.375 115.368 147.78C115.368 146.081 115.09 144.573 114.536 143.256C113.981 141.939 113.253 141.28 112.352 141.28C111.416 141.28 110.653 141.783 110.064 142.788V152.46ZM130.713 127.968C130.713 126.824 131.198 125.888 132.169 125.16C133.174 124.397 134.578 124.016 136.381 124.016C140.159 124.016 142.049 125.333 142.049 127.968C142.049 129.424 141.563 130.447 140.593 131.036C139.657 131.625 138.253 131.92 136.381 131.92C134.751 131.92 133.399 131.608 132.325 130.984C131.25 130.36 130.713 129.355 130.713 127.968ZM141.997 154.436C141.997 156.516 141.563 157.972 140.697 158.804C139.83 159.601 138.305 160 136.121 160C134.075 160 132.671 159.532 131.909 158.596C131.181 157.625 130.817 156.048 130.817 153.864V141.072C130.817 139.304 131.285 137.883 132.221 136.808C133.191 135.733 134.474 135.196 136.069 135.196C137.941 135.196 139.397 135.612 140.437 136.444C141.477 137.241 141.997 138.732 141.997 140.916V154.436ZM156.02 160.312C153.282 160.312 151.011 159.203 149.208 156.984C147.406 154.731 146.504 151.663 146.504 147.78C146.504 143.828 147.388 140.691 149.156 138.368C150.959 136.011 153.247 134.832 156.02 134.832C158.828 134.832 161.428 135.82 163.82 137.796C164.756 136.063 166.264 135.196 168.344 135.196C170.216 135.196 171.672 135.612 172.712 136.444C173.752 137.241 174.272 138.732 174.272 140.916V154.436C174.272 156.516 173.839 157.972 172.972 158.804C172.106 159.601 170.58 160 168.396 160C166.108 160 164.6 159.359 163.872 158.076C161.654 159.567 159.036 160.312 156.02 160.312ZM163.092 142.788C162.503 141.783 161.74 141.28 160.804 141.28C159.903 141.28 159.175 141.939 158.62 143.256C158.066 144.573 157.788 146.081 157.788 147.78C157.788 149.375 158.048 150.796 158.568 152.044C159.088 153.292 159.816 153.916 160.752 153.916C161.723 153.916 162.503 153.448 163.092 152.512V142.788Z" fill="white"/>
<path d="M101.389 22.3781C103.756 20.0057 105.219 16.7321 105.219 13.116C105.219 5.87222 99.3475 0 92.104 0C87.5245 0 83.4983 2.35035 81.1525 5.90705C80.5298 6.53169 28.3184 70.8828 27.8309 71.622C25.4641 73.9946 24 77.2682 24 80.8843C24 88.1278 29.8722 94 37.1157 94C41.6949 94 45.7211 91.6497 48.067 88.0932C48.6899 87.4686 100.901 23.1175 101.389 22.3781Z" fill="white"/>
<path d="M131.601 52.9123C133.973 50.5389 135.441 47.2605 135.441 43.6394C135.441 36.3959 129.569 30.5237 122.325 30.5237C117.743 30.5237 113.716 32.8763 111.371 36.4358C110.742 37.0643 83.3195 70.8664 82.8286 71.6114C80.4557 73.9848 78.9883 77.2632 78.9883 80.8843C78.9883 88.1278 84.8605 94 92.104 94C96.6852 94 100.713 91.6474 103.058 88.0879C103.687 87.4594 131.109 53.6573 131.601 52.9123Z" fill="white"/>
<path d="M160.208 13.116C160.208 20.3595 154.336 26.2314 147.092 26.2314C139.848 26.2314 133.976 20.3595 133.976 13.116C133.976 5.87219 139.848 0.000261307 147.092 0.000261307C154.336 0.000261307 160.208 5.87219 160.208 13.116Z" fill="white"/>
<path d="M50.2315 13.116C50.2315 20.3595 44.3593 26.2314 37.1157 26.2314C29.8722 26.2314 24 20.3595 24 13.116C24 5.87219 29.8722 0.000261307 37.1157 0.000261307C44.3593 0.000261307 50.2315 5.87219 50.2315 13.116Z" fill="white"/>
</svg>
