<svg width="293" height="60" viewBox="0 0 293 60" fill="none" xmlns="http://www.w3.org/2000/svg">
<path d="M49.3971 14.2839C50.9078 12.7696 51.8422 10.68 51.8422 8.37193C51.8422 3.74823 48.0941 0 43.4706 0C40.5476 0 37.9777 1.50022 36.4803 3.77046C36.0828 4.16916 2.75644 45.2443 2.44523 45.7161C0.934526 47.2306 0 49.3201 0 51.6283C0 56.2518 3.74822 60 8.37175 60C11.2946 60 13.8645 58.4998 15.3619 56.2297C15.7595 55.831 49.0859 14.7558 49.3971 14.2839Z" fill="white"/>
<path d="M68.6812 33.7738C70.1954 32.2589 71.1323 30.1663 71.1323 27.855C71.1323 23.2314 67.3842 19.4832 62.7605 19.4832C59.8362 19.4832 57.2654 20.9848 55.7684 23.2569C55.3672 23.6581 37.8635 45.2339 37.5502 45.7094C36.0355 47.2244 35.0989 49.3169 35.0989 51.6283C35.0989 56.2518 38.8471 60 43.4706 60C46.3948 60 48.9655 58.4984 50.4626 56.2263C50.8637 55.8252 68.3677 34.2494 68.6812 33.7738Z" fill="white"/>
<path d="M86.9411 8.37193C86.9411 12.9955 83.193 16.7435 78.5693 16.7435C73.9458 16.7435 70.1978 12.9955 70.1978 8.37193C70.1978 3.74823 73.9458 0.000190735 78.5693 0.000190735C83.193 0.000190735 86.9411 3.74823 86.9411 8.37193Z" fill="white"/>
<path d="M16.7435 8.37193C16.7435 12.9955 12.9953 16.7435 8.37174 16.7435C3.74822 16.7435 0 12.9955 0 8.37193C0 3.74823 3.74822 0.000190735 8.37174 0.000190735C12.9953 0.000190735 16.7435 3.74823 16.7435 8.37193Z" fill="white"/>
<path d="M116.264 14.66V25.388C116.264 28.892 115.412 31.412 113.708 32.948C112.028 34.46 109.184 35.216 105.176 35.216C101.36 35.216 98.552 34.4 96.752 32.768C94.976 31.136 94.088 28.676 94.088 25.388V14.66C94.088 13.388 94.46 12.356 95.204 11.564C95.972 10.748 96.932 10.34 98.084 10.34C99.5 10.34 100.568 10.604 101.288 11.132C102.032 11.66 102.404 12.728 102.404 14.336V26.072C102.428 26.84 102.548 27.452 102.764 27.908C103.004 28.364 103.316 28.688 103.7 28.88C104.084 29.048 104.576 29.132 105.176 29.132C105.776 29.132 106.268 29.06 106.652 28.916C107.036 28.772 107.312 28.544 107.48 28.232C107.672 27.92 107.792 27.608 107.84 27.296C107.912 26.984 107.948 26.576 107.948 26.072V14.3C107.948 13.484 108.044 12.8 108.236 12.248C108.452 11.696 108.764 11.288 109.172 11.024C109.604 10.76 110.036 10.58 110.468 10.484C110.924 10.388 111.464 10.34 112.088 10.34C113.48 10.34 114.524 10.676 115.22 11.348C115.916 12.02 116.264 13.124 116.264 14.66ZM121.999 27.296V23.048C121.399 23.024 120.919 22.928 120.559 22.76C120.199 22.568 119.935 22.328 119.767 22.04C119.623 21.752 119.551 21.392 119.551 20.96C119.551 19.592 120.379 18.848 122.035 18.728V15.38C122.035 14.468 122.695 13.652 124.015 12.932C125.335 12.188 126.643 11.816 127.939 11.816C128.731 11.816 129.247 12.044 129.487 12.5C129.727 12.956 129.847 13.64 129.847 14.552L129.883 18.692H130.855C132.175 18.692 133.075 18.872 133.555 19.232C134.059 19.568 134.311 20.192 134.311 21.104C134.311 21.488 134.239 21.812 134.095 22.076C133.951 22.34 133.711 22.544 133.375 22.688C133.063 22.832 132.679 22.94 132.223 23.012C131.767 23.06 131.203 23.084 130.531 23.084H129.883V27.044C129.883 27.428 129.895 27.752 129.919 28.016C129.967 28.256 130.027 28.448 130.099 28.592C130.171 28.736 130.267 28.832 130.387 28.88C130.531 28.928 130.699 28.952 130.891 28.952C131.179 28.952 131.419 28.856 131.611 28.664C131.803 28.448 131.947 28.22 132.043 27.98C132.163 27.716 132.307 27.488 132.475 27.296C132.667 27.08 132.883 26.972 133.123 26.972C133.675 26.972 134.095 27.104 134.383 27.368C134.695 27.632 134.851 27.956 134.851 28.34C134.851 28.988 134.719 29.684 134.455 30.428C134.215 31.172 133.855 31.892 133.375 32.588C132.895 33.284 132.223 33.86 131.359 34.316C130.519 34.772 129.571 35 128.515 35C126.139 35 124.459 34.4 123.475 33.2C122.491 32 121.999 30.032 121.999 27.296ZM149.159 26.468C149.159 25.22 149.003 24.128 148.691 23.192C148.379 22.232 147.923 21.752 147.323 21.752C146.915 21.752 146.555 21.992 146.243 22.472C145.931 22.952 145.703 23.54 145.559 24.236C145.415 24.932 145.343 25.676 145.343 26.468C145.343 27.692 145.511 28.772 145.847 29.708C146.183 30.62 146.663 31.076 147.287 31.076C147.911 31.076 148.379 30.62 148.691 29.708C149.003 28.796 149.159 27.716 149.159 26.468ZM147.287 35.252C145.415 35.252 143.723 34.916 142.211 34.244C140.723 33.572 139.523 32.564 138.611 31.22C137.723 29.876 137.279 28.304 137.279 26.504C137.279 23.768 138.215 21.596 140.087 19.988C141.959 18.38 144.359 17.576 147.287 17.576C150.215 17.576 152.603 18.38 154.451 19.988C156.299 21.596 157.223 23.768 157.223 26.504C157.223 29.216 156.275 31.352 154.379 32.912C152.507 34.472 150.143 35.252 147.287 35.252ZM168.198 37.088C168.198 39.032 167.874 40.412 167.226 41.228C166.578 42.068 165.582 42.488 164.238 42.488C162.894 42.488 161.91 42.104 161.286 41.336C160.662 40.592 160.35 39.26 160.35 37.34L160.278 22.148C160.278 20.66 160.638 19.568 161.358 18.872C162.078 18.176 163.038 17.828 164.238 17.828C165.174 17.828 165.93 17.948 166.506 18.188C167.082 18.404 167.514 18.848 167.802 19.52C169.458 18.224 171.234 17.576 173.13 17.576C175.05 17.576 176.622 18.38 177.846 19.988C179.07 21.596 179.682 23.78 179.682 26.54C179.682 29.228 179.058 31.352 177.81 32.912C176.562 34.448 174.99 35.216 173.094 35.216C171.27 35.216 169.638 34.808 168.198 33.992V37.088ZM168.198 29.78C168.606 30.452 169.146 30.788 169.818 30.788C170.466 30.788 170.97 30.356 171.33 29.492C171.69 28.628 171.87 27.644 171.87 26.54C171.87 25.364 171.678 24.32 171.294 23.408C170.91 22.496 170.406 22.04 169.782 22.04C169.134 22.04 168.606 22.388 168.198 23.084V29.78ZM182.493 12.824C182.493 12.032 182.829 11.384 183.501 10.88C184.197 10.352 185.169 10.088 186.417 10.088C189.033 10.088 190.341 11 190.341 12.824C190.341 13.832 190.005 14.54 189.333 14.948C188.685 15.356 187.713 15.56 186.417 15.56C185.289 15.56 184.353 15.344 183.609 14.912C182.865 14.48 182.493 13.784 182.493 12.824ZM190.305 31.148C190.305 32.588 190.005 33.596 189.405 34.172C188.805 34.724 187.749 35 186.237 35C184.821 35 183.849 34.676 183.321 34.028C182.817 33.356 182.565 32.264 182.565 30.752V21.896C182.565 20.672 182.889 19.688 183.537 18.944C184.209 18.2 185.097 17.828 186.201 17.828C187.497 17.828 188.505 18.116 189.225 18.692C189.945 19.244 190.305 20.276 190.305 21.788V31.148ZM200.014 35.216C198.118 35.216 196.546 34.448 195.298 32.912C194.05 31.352 193.426 29.228 193.426 26.54C193.426 23.804 194.038 21.632 195.262 20.024C196.51 18.392 198.094 17.576 200.014 17.576C201.958 17.576 203.758 18.26 205.414 19.628C206.062 18.428 207.106 17.828 208.546 17.828C209.842 17.828 210.85 18.116 211.57 18.692C212.29 19.244 212.65 20.276 212.65 21.788V31.148C212.65 32.588 212.35 33.596 211.75 34.172C211.15 34.724 210.094 35 208.582 35C206.998 35 205.954 34.556 205.45 33.668C203.914 34.7 202.102 35.216 200.014 35.216ZM204.91 23.084C204.502 22.388 203.974 22.04 203.326 22.04C202.702 22.04 202.198 22.496 201.814 23.408C201.43 24.32 201.238 25.364 201.238 26.54C201.238 27.644 201.418 28.628 201.778 29.492C202.138 30.356 202.642 30.788 203.29 30.788C203.962 30.788 204.502 30.464 204.91 29.816V23.084Z" fill="white"/>
<path d="M93.596 55C93.436 55 93.308 54.956 93.212 54.868C93.124 54.772 93.08 54.644 93.08 54.484V48.952C93.08 48.792 93.124 48.668 93.212 48.58C93.308 48.484 93.436 48.436 93.596 48.436C93.82 48.436 94 48.54 94.136 48.748L96.74 52.516L99.344 48.748C99.488 48.54 99.668 48.436 99.884 48.436C100.044 48.436 100.168 48.484 100.256 48.58C100.352 48.668 100.4 48.792 100.4 48.952V54.484C100.4 54.644 100.352 54.772 100.256 54.868C100.168 54.956 100.044 55 99.884 55C99.732 55 99.608 54.956 99.512 54.868C99.424 54.772 99.38 54.644 99.38 54.484V49.66L99.692 49.756L97.232 53.284C97.08 53.5 96.908 53.608 96.716 53.608C96.532 53.608 96.372 53.5 96.236 53.284L93.788 49.78L94.1 49.684V54.484C94.1 54.644 94.052 54.772 93.956 54.868C93.868 54.956 93.748 55 93.596 55ZM105.404 55.06C104.796 55.06 104.252 54.916 103.772 54.628C103.292 54.332 102.912 53.932 102.632 53.428C102.352 52.924 102.212 52.356 102.212 51.724C102.212 51.084 102.356 50.512 102.644 50.008C102.94 49.504 103.34 49.108 103.844 48.82C104.348 48.524 104.916 48.376 105.548 48.376C106.172 48.376 106.732 48.524 107.228 48.82C107.732 49.108 108.128 49.504 108.416 50.008C108.712 50.512 108.864 51.084 108.872 51.724L108.464 51.928C108.464 52.52 108.328 53.052 108.056 53.524C107.792 53.996 107.428 54.372 106.964 54.652C106.508 54.924 105.988 55.06 105.404 55.06ZM105.548 54.148C105.996 54.148 106.392 54.044 106.736 53.836C107.088 53.62 107.364 53.328 107.564 52.96C107.772 52.592 107.876 52.18 107.876 51.724C107.876 51.26 107.772 50.848 107.564 50.488C107.364 50.12 107.088 49.828 106.736 49.612C106.392 49.396 105.996 49.288 105.548 49.288C105.108 49.288 104.708 49.396 104.348 49.612C103.996 49.828 103.716 50.12 103.508 50.488C103.3 50.848 103.196 51.26 103.196 51.724C103.196 52.18 103.3 52.592 103.508 52.96C103.716 53.328 103.996 53.62 104.348 53.836C104.708 54.044 105.108 54.148 105.548 54.148ZM108.356 55C108.212 55 108.088 54.956 107.984 54.868C107.888 54.772 107.84 54.648 107.84 54.496V52.516L108.068 51.472L108.872 51.724V54.496C108.872 54.648 108.824 54.772 108.728 54.868C108.632 54.956 108.508 55 108.356 55ZM113.118 48.436C113.222 48.436 113.314 48.464 113.394 48.52C113.482 48.576 113.554 48.66 113.61 48.772L116.166 54.352C116.23 54.48 116.238 54.596 116.19 54.7C116.142 54.804 116.058 54.888 115.938 54.952C115.794 55.016 115.666 55.028 115.554 54.988C115.442 54.948 115.354 54.864 115.29 54.736L112.866 49.324H113.43L110.958 54.724C110.902 54.852 110.81 54.936 110.682 54.976C110.562 55.016 110.434 55.004 110.298 54.94C110.178 54.876 110.09 54.792 110.034 54.688C109.986 54.584 109.994 54.468 110.058 54.34L112.65 48.772C112.754 48.548 112.91 48.436 113.118 48.436ZM120.401 55.12C119.881 55.12 119.417 55.012 119.009 54.796C118.609 54.58 118.293 54.284 118.061 53.908C117.837 53.532 117.725 53.1 117.725 52.612V48.94C117.733 48.788 117.781 48.668 117.869 48.58C117.965 48.484 118.089 48.436 118.241 48.436C118.393 48.436 118.513 48.484 118.601 48.58C118.697 48.668 118.745 48.792 118.745 48.952V50.536H120.473C120.961 50.536 121.393 50.628 121.769 50.812C122.145 50.988 122.437 51.244 122.645 51.58C122.861 51.908 122.969 52.308 122.969 52.78C122.969 53.26 122.861 53.676 122.645 54.028C122.429 54.38 122.125 54.652 121.733 54.844C121.349 55.028 120.905 55.12 120.401 55.12ZM120.401 54.184C120.865 54.184 121.245 54.068 121.541 53.836C121.837 53.596 121.985 53.244 121.985 52.78C121.985 52.316 121.841 51.972 121.553 51.748C121.273 51.524 120.913 51.412 120.473 51.412H118.745V52.6C118.745 53.064 118.901 53.444 119.213 53.74C119.525 54.036 119.921 54.184 120.401 54.184ZM124.517 55C124.373 55 124.253 54.956 124.157 54.868C124.061 54.772 124.013 54.644 124.013 54.484V48.952C124.013 48.792 124.061 48.668 124.157 48.58C124.253 48.484 124.373 48.436 124.517 48.436C124.677 48.436 124.801 48.484 124.889 48.58C124.985 48.668 125.033 48.792 125.033 48.952V54.484C125.033 54.644 124.985 54.772 124.889 54.868C124.801 54.956 124.677 55 124.517 55ZM130.205 55.06C129.549 55.06 128.969 54.92 128.465 54.64C127.961 54.352 127.565 53.956 127.277 53.452C126.989 52.948 126.845 52.372 126.845 51.724C126.845 51.068 126.981 50.492 127.253 49.996C127.525 49.492 127.897 49.096 128.369 48.808C128.849 48.52 129.401 48.376 130.025 48.376C130.633 48.376 131.161 48.516 131.609 48.796C132.065 49.068 132.413 49.448 132.653 49.936C132.901 50.424 133.025 50.98 133.025 51.604C133.025 51.74 132.981 51.852 132.893 51.94C132.805 52.02 132.693 52.06 132.557 52.06H127.541V51.232H132.617L132.101 51.592C132.109 51.152 132.029 50.756 131.861 50.404C131.693 50.052 131.453 49.776 131.141 49.576C130.829 49.376 130.457 49.276 130.025 49.276C129.569 49.276 129.169 49.38 128.825 49.588C128.489 49.796 128.229 50.088 128.045 50.464C127.869 50.832 127.781 51.252 127.781 51.724C127.781 52.196 127.885 52.616 128.093 52.984C128.301 53.352 128.585 53.64 128.945 53.848C129.313 54.056 129.733 54.16 130.205 54.16C130.477 54.16 130.753 54.112 131.033 54.016C131.321 53.92 131.549 53.8 131.717 53.656C131.813 53.584 131.921 53.548 132.041 53.548C132.169 53.54 132.273 53.572 132.353 53.644C132.473 53.748 132.533 53.86 132.533 53.98C132.541 54.1 132.489 54.204 132.377 54.292C132.113 54.516 131.777 54.7 131.369 54.844C130.961 54.988 130.573 55.06 130.205 55.06ZM140.947 55.06C140.339 55.06 139.795 54.916 139.315 54.628C138.835 54.332 138.455 53.932 138.175 53.428C137.895 52.924 137.755 52.356 137.755 51.724C137.755 51.084 137.899 50.512 138.187 50.008C138.483 49.504 138.883 49.108 139.387 48.82C139.891 48.524 140.459 48.376 141.091 48.376C141.715 48.376 142.275 48.524 142.771 48.82C143.275 49.108 143.671 49.504 143.959 50.008C144.255 50.512 144.407 51.084 144.415 51.724L144.007 51.928C144.007 52.52 143.871 53.052 143.599 53.524C143.335 53.996 142.971 54.372 142.507 54.652C142.051 54.924 141.531 55.06 140.947 55.06ZM141.091 54.148C141.539 54.148 141.935 54.044 142.279 53.836C142.631 53.62 142.907 53.328 143.107 52.96C143.315 52.592 143.419 52.18 143.419 51.724C143.419 51.26 143.315 50.848 143.107 50.488C142.907 50.12 142.631 49.828 142.279 49.612C141.935 49.396 141.539 49.288 141.091 49.288C140.651 49.288 140.251 49.396 139.891 49.612C139.539 49.828 139.259 50.12 139.051 50.488C138.843 50.848 138.739 51.26 138.739 51.724C138.739 52.18 138.843 52.592 139.051 52.96C139.259 53.328 139.539 53.62 139.891 53.836C140.251 54.044 140.651 54.148 141.091 54.148ZM143.899 55C143.755 55 143.631 54.956 143.527 54.868C143.431 54.772 143.383 54.648 143.383 54.496V52.516L143.611 51.472L144.415 51.724V54.496C144.415 54.648 144.367 54.772 144.271 54.868C144.175 54.956 144.051 55 143.899 55ZM146.729 57.808C146.569 57.808 146.441 57.76 146.345 57.664C146.257 57.576 146.213 57.452 146.213 57.292V51.688C146.221 51.064 146.369 50.504 146.657 50.008C146.953 49.504 147.349 49.108 147.845 48.82C148.341 48.524 148.901 48.376 149.525 48.376C150.165 48.376 150.733 48.524 151.229 48.82C151.733 49.108 152.129 49.504 152.417 50.008C152.713 50.512 152.861 51.084 152.861 51.724C152.861 52.356 152.721 52.924 152.441 53.428C152.169 53.932 151.793 54.332 151.313 54.628C150.833 54.916 150.289 55.06 149.681 55.06C149.161 55.06 148.689 54.952 148.265 54.736C147.841 54.512 147.497 54.22 147.233 53.86V57.292C147.233 57.452 147.185 57.576 147.089 57.664C146.993 57.76 146.873 57.808 146.729 57.808ZM149.525 54.148C149.973 54.148 150.373 54.044 150.725 53.836C151.085 53.62 151.365 53.328 151.565 52.96C151.773 52.592 151.877 52.18 151.877 51.724C151.877 51.26 151.773 50.848 151.565 50.488C151.365 50.12 151.085 49.828 150.725 49.612C150.373 49.396 149.973 49.288 149.525 49.288C149.093 49.288 148.697 49.396 148.337 49.612C147.985 49.828 147.709 50.12 147.509 50.488C147.309 50.848 147.209 51.26 147.209 51.724C147.209 52.18 147.309 52.592 147.509 52.96C147.709 53.328 147.985 53.62 148.337 53.836C148.689 54.044 149.085 54.148 149.525 54.148ZM157.517 55.072C156.949 55.072 156.441 54.956 155.993 54.724C155.553 54.484 155.205 54.136 154.949 53.68C154.693 53.224 154.565 52.664 154.565 52V48.94C154.565 48.796 154.613 48.676 154.709 48.58C154.805 48.484 154.925 48.436 155.069 48.436C155.213 48.436 155.333 48.484 155.429 48.58C155.525 48.676 155.573 48.796 155.573 48.94V52C155.573 52.488 155.665 52.888 155.849 53.2C156.033 53.504 156.281 53.736 156.593 53.896C156.905 54.048 157.257 54.124 157.649 54.124C158.025 54.124 158.365 54.052 158.669 53.908C158.973 53.756 159.213 53.556 159.389 53.308C159.565 53.052 159.653 52.76 159.653 52.432H160.337C160.321 52.936 160.189 53.388 159.941 53.788C159.693 54.18 159.357 54.492 158.933 54.724C158.509 54.956 158.037 55.072 157.517 55.072ZM160.157 55C160.005 55 159.881 54.956 159.785 54.868C159.697 54.772 159.653 54.644 159.653 54.484V48.94C159.653 48.788 159.697 48.668 159.785 48.58C159.881 48.484 160.005 48.436 160.157 48.436C160.309 48.436 160.433 48.484 160.529 48.58C160.625 48.668 160.673 48.788 160.673 48.94V54.484C160.673 54.644 160.625 54.772 160.529 54.868C160.433 54.956 160.309 55 160.157 55ZM167.063 55C166.967 55 166.887 54.988 166.823 54.964C166.759 54.932 166.695 54.876 166.631 54.796L164.555 52.192L164.171 51.844L162.083 49.24C161.987 49.128 161.939 49.012 161.939 48.892C161.939 48.772 161.979 48.668 162.059 48.58C162.139 48.484 162.251 48.436 162.395 48.436C162.547 48.436 162.675 48.492 162.779 48.604L164.807 51.136L165.119 51.412L167.363 54.22C167.475 54.348 167.523 54.476 167.507 54.604C167.499 54.724 167.447 54.82 167.351 54.892C167.263 54.964 167.167 55 167.063 55ZM162.359 55C162.223 55 162.111 54.956 162.023 54.868C161.943 54.78 161.903 54.676 161.903 54.556C161.903 54.436 161.951 54.316 162.047 54.196L164.195 51.508L164.759 52.264L162.719 54.844C162.631 54.948 162.511 55 162.359 55ZM165.215 51.892L164.555 51.256L166.583 48.652C166.639 48.572 166.703 48.516 166.775 48.484C166.847 48.452 166.919 48.436 166.991 48.436C167.143 48.436 167.255 48.484 167.327 48.58C167.407 48.668 167.443 48.776 167.435 48.904C167.435 49.032 167.391 49.152 167.303 49.264L165.215 51.892ZM177.872 55C177.72 55 177.596 54.956 177.5 54.868C177.404 54.772 177.356 54.648 177.356 54.496V51.052C177.356 50.5 177.216 50.072 176.936 49.768C176.656 49.464 176.292 49.312 175.844 49.312C175.372 49.312 174.984 49.472 174.68 49.792C174.384 50.112 174.236 50.532 174.236 51.052H173.36C173.368 50.516 173.484 50.048 173.708 49.648C173.932 49.24 174.24 48.924 174.632 48.7C175.032 48.476 175.484 48.364 175.988 48.364C176.452 48.364 176.864 48.472 177.224 48.688C177.584 48.904 177.864 49.216 178.064 49.624C178.272 50.024 178.376 50.5 178.376 51.052V54.496C178.376 54.648 178.328 54.772 178.232 54.868C178.136 54.956 178.016 55 177.872 55ZM169.592 55C169.432 55 169.304 54.956 169.208 54.868C169.12 54.772 169.076 54.648 169.076 54.496V48.952C169.076 48.8 169.12 48.676 169.208 48.58C169.304 48.484 169.432 48.436 169.592 48.436C169.744 48.436 169.864 48.484 169.952 48.58C170.048 48.676 170.096 48.8 170.096 48.952V54.496C170.096 54.648 170.048 54.772 169.952 54.868C169.864 54.956 169.744 55 169.592 55ZM173.732 55C173.588 55 173.468 54.956 173.372 54.868C173.276 54.772 173.228 54.648 173.228 54.496V51.052C173.228 50.5 173.084 50.072 172.796 49.768C172.516 49.464 172.156 49.312 171.716 49.312C171.244 49.312 170.856 49.468 170.552 49.78C170.248 50.092 170.096 50.5 170.096 51.004H169.4C169.416 50.484 169.528 50.028 169.736 49.636C169.944 49.236 170.232 48.924 170.6 48.7C170.968 48.476 171.388 48.364 171.86 48.364C172.324 48.364 172.736 48.472 173.096 48.688C173.456 48.904 173.736 49.216 173.936 49.624C174.136 50.024 174.236 50.5 174.236 51.052V54.496C174.236 54.648 174.188 54.772 174.092 54.868C174.004 54.956 173.884 55 173.732 55ZM183.42 55.06C182.764 55.06 182.184 54.92 181.68 54.64C181.176 54.352 180.78 53.956 180.492 53.452C180.204 52.948 180.06 52.372 180.06 51.724C180.06 51.068 180.196 50.492 180.468 49.996C180.74 49.492 181.112 49.096 181.584 48.808C182.064 48.52 182.616 48.376 183.24 48.376C183.848 48.376 184.376 48.516 184.824 48.796C185.28 49.068 185.628 49.448 185.868 49.936C186.116 50.424 186.24 50.98 186.24 51.604C186.24 51.74 186.196 51.852 186.108 51.94C186.02 52.02 185.908 52.06 185.772 52.06H180.756V51.232H185.832L185.316 51.592C185.324 51.152 185.244 50.756 185.076 50.404C184.908 50.052 184.668 49.776 184.356 49.576C184.044 49.376 183.672 49.276 183.24 49.276C182.784 49.276 182.384 49.38 182.04 49.588C181.704 49.796 181.444 50.088 181.26 50.464C181.084 50.832 180.996 51.252 180.996 51.724C180.996 52.196 181.1 52.616 181.308 52.984C181.516 53.352 181.8 53.64 182.16 53.848C182.528 54.056 182.948 54.16 183.42 54.16C183.692 54.16 183.968 54.112 184.248 54.016C184.536 53.92 184.764 53.8 184.932 53.656C185.028 53.584 185.136 53.548 185.256 53.548C185.384 53.54 185.488 53.572 185.568 53.644C185.688 53.748 185.748 53.86 185.748 53.98C185.756 54.1 185.704 54.204 185.592 54.292C185.328 54.516 184.992 54.7 184.584 54.844C184.176 54.988 183.788 55.06 183.42 55.06ZM192.975 54.868C192.887 54.956 192.767 55 192.615 55C192.471 55 192.355 54.952 192.267 54.856L189.375 51.712L192.123 48.592C192.211 48.496 192.327 48.444 192.471 48.436C192.615 48.428 192.731 48.464 192.819 48.544C192.923 48.64 192.979 48.748 192.987 48.868C193.003 48.98 192.967 49.088 192.879 49.192L190.647 51.664L192.999 54.232C193.087 54.328 193.131 54.436 193.131 54.556C193.131 54.668 193.079 54.772 192.975 54.868ZM188.283 55C188.139 55 188.023 54.956 187.935 54.868C187.847 54.772 187.803 54.648 187.803 54.496V48.952C187.803 48.792 187.847 48.668 187.935 48.58C188.023 48.484 188.139 48.436 188.283 48.436C188.443 48.436 188.567 48.484 188.655 48.58C188.751 48.668 188.799 48.792 188.799 48.952V51.208H190.287V52.144H188.799V54.496C188.799 54.648 188.751 54.772 188.655 54.868C188.567 54.956 188.443 55 188.283 55ZM203.431 55C203.279 55 203.155 54.956 203.059 54.868C202.963 54.772 202.915 54.648 202.915 54.496V51.052C202.915 50.5 202.775 50.072 202.495 49.768C202.215 49.464 201.851 49.312 201.403 49.312C200.931 49.312 200.543 49.472 200.239 49.792C199.943 50.112 199.795 50.532 199.795 51.052H198.919C198.927 50.516 199.043 50.048 199.267 49.648C199.491 49.24 199.799 48.924 200.191 48.7C200.591 48.476 201.043 48.364 201.547 48.364C202.011 48.364 202.423 48.472 202.783 48.688C203.143 48.904 203.423 49.216 203.623 49.624C203.831 50.024 203.935 50.5 203.935 51.052V54.496C203.935 54.648 203.887 54.772 203.791 54.868C203.695 54.956 203.575 55 203.431 55ZM195.151 55C194.991 55 194.863 54.956 194.767 54.868C194.679 54.772 194.635 54.648 194.635 54.496V48.952C194.635 48.8 194.679 48.676 194.767 48.58C194.863 48.484 194.991 48.436 195.151 48.436C195.303 48.436 195.423 48.484 195.511 48.58C195.607 48.676 195.655 48.8 195.655 48.952V54.496C195.655 54.648 195.607 54.772 195.511 54.868C195.423 54.956 195.303 55 195.151 55ZM199.291 55C199.147 55 199.027 54.956 198.931 54.868C198.835 54.772 198.787 54.648 198.787 54.496V51.052C198.787 50.5 198.643 50.072 198.355 49.768C198.075 49.464 197.715 49.312 197.275 49.312C196.803 49.312 196.415 49.468 196.111 49.78C195.807 50.092 195.655 50.5 195.655 51.004H194.959C194.975 50.484 195.087 50.028 195.295 49.636C195.503 49.236 195.791 48.924 196.159 48.7C196.527 48.476 196.947 48.364 197.419 48.364C197.883 48.364 198.295 48.472 198.655 48.688C199.015 48.904 199.295 49.216 199.495 49.624C199.695 50.024 199.795 50.5 199.795 51.052V54.496C199.795 54.648 199.747 54.772 199.651 54.868C199.563 54.956 199.443 55 199.291 55ZM205.531 57.868C205.363 57.876 205.195 57.856 205.027 57.808C204.867 57.76 204.707 57.692 204.547 57.604C204.403 57.516 204.311 57.404 204.271 57.268C204.223 57.132 204.247 57.004 204.343 56.884C204.423 56.772 204.523 56.708 204.643 56.692C204.771 56.684 204.903 56.716 205.039 56.788C205.127 56.836 205.211 56.872 205.291 56.896C205.379 56.92 205.475 56.932 205.579 56.932C205.835 56.932 206.083 56.808 206.323 56.56C206.571 56.312 206.799 55.948 207.007 55.468L209.959 48.7C210.015 48.572 210.103 48.484 210.223 48.436C210.351 48.388 210.483 48.392 210.619 48.448C210.731 48.504 210.807 48.592 210.847 48.712C210.887 48.832 210.875 48.964 210.811 49.108L207.847 55.876C207.575 56.468 207.235 56.948 206.827 57.316C206.427 57.684 205.995 57.868 205.531 57.868ZM208.099 54.772C207.971 54.836 207.851 54.848 207.739 54.808C207.627 54.768 207.535 54.68 207.463 54.544L204.775 49.108C204.711 48.972 204.699 48.848 204.739 48.736C204.787 48.624 204.875 48.536 205.003 48.472C205.139 48.416 205.263 48.408 205.375 48.448C205.487 48.488 205.575 48.572 205.639 48.7L208.279 54.124C208.343 54.252 208.363 54.38 208.339 54.508C208.315 54.628 208.235 54.716 208.099 54.772ZM212.787 57.808C212.627 57.808 212.499 57.76 212.403 57.664C212.315 57.576 212.271 57.452 212.271 57.292V51.688C212.279 51.064 212.427 50.504 212.715 50.008C213.011 49.504 213.407 49.108 213.903 48.82C214.399 48.524 214.959 48.376 215.583 48.376C216.223 48.376 216.791 48.524 217.287 48.82C217.791 49.108 218.187 49.504 218.475 50.008C218.771 50.512 218.919 51.084 218.919 51.724C218.919 52.356 218.779 52.924 218.499 53.428C218.227 53.932 217.851 54.332 217.371 54.628C216.891 54.916 216.347 55.06 215.739 55.06C215.219 55.06 214.747 54.952 214.323 54.736C213.899 54.512 213.555 54.22 213.291 53.86V57.292C213.291 57.452 213.243 57.576 213.147 57.664C213.051 57.76 212.931 57.808 212.787 57.808ZM215.583 54.148C216.031 54.148 216.431 54.044 216.783 53.836C217.143 53.62 217.423 53.328 217.623 52.96C217.831 52.592 217.935 52.18 217.935 51.724C217.935 51.26 217.831 50.848 217.623 50.488C217.423 50.12 217.143 49.828 216.783 49.612C216.431 49.396 216.031 49.288 215.583 49.288C215.151 49.288 214.755 49.396 214.395 49.612C214.043 49.828 213.767 50.12 213.567 50.488C213.367 50.848 213.267 51.26 213.267 51.724C213.267 52.18 213.367 52.592 213.567 52.96C213.767 53.328 214.043 53.62 214.395 53.836C214.747 54.044 215.143 54.148 215.583 54.148ZM226.336 55C226.184 55 226.06 54.956 225.964 54.868C225.868 54.772 225.82 54.644 225.82 54.484V48.952C225.82 48.792 225.868 48.668 225.964 48.58C226.06 48.484 226.184 48.436 226.336 48.436C226.48 48.436 226.596 48.484 226.684 48.58C226.772 48.668 226.816 48.792 226.816 48.952V54.484C226.816 54.644 226.772 54.772 226.684 54.868C226.596 54.956 226.48 55 226.336 55ZM221.236 55C221.092 55 220.972 54.956 220.876 54.868C220.788 54.772 220.744 54.644 220.744 54.484V48.952C220.744 48.792 220.788 48.668 220.876 48.58C220.972 48.484 221.092 48.436 221.236 48.436C221.388 48.436 221.508 48.484 221.596 48.58C221.692 48.668 221.74 48.792 221.74 48.952V54.484C221.74 54.644 221.692 54.772 221.596 54.868C221.508 54.956 221.388 55 221.236 55ZM221.584 52.12V51.208H226.144V52.12H221.584ZM231.647 55.12C231.127 55.12 230.663 55.012 230.255 54.796C229.855 54.58 229.539 54.284 229.307 53.908C229.083 53.532 228.971 53.1 228.971 52.612V48.94C228.979 48.788 229.027 48.668 229.115 48.58C229.211 48.484 229.335 48.436 229.487 48.436C229.639 48.436 229.759 48.484 229.847 48.58C229.943 48.668 229.991 48.792 229.991 48.952V50.536H231.719C232.207 50.536 232.639 50.628 233.015 50.812C233.391 50.988 233.683 51.244 233.891 51.58C234.107 51.908 234.215 52.308 234.215 52.78C234.215 53.26 234.107 53.676 233.891 54.028C233.675 54.38 233.371 54.652 232.979 54.844C232.595 55.028 232.151 55.12 231.647 55.12ZM231.647 54.184C232.111 54.184 232.491 54.068 232.787 53.836C233.083 53.596 233.231 53.244 233.231 52.78C233.231 52.316 233.087 51.972 232.799 51.748C232.519 51.524 232.159 51.412 231.719 51.412H229.991V52.6C229.991 53.064 230.147 53.444 230.459 53.74C230.771 54.036 231.167 54.184 231.647 54.184ZM235.763 55C235.619 55 235.499 54.956 235.403 54.868C235.307 54.772 235.259 54.644 235.259 54.484V48.952C235.259 48.792 235.307 48.668 235.403 48.58C235.499 48.484 235.619 48.436 235.763 48.436C235.923 48.436 236.047 48.484 236.135 48.58C236.231 48.668 236.279 48.792 236.279 48.952V54.484C236.279 54.644 236.231 54.772 236.135 54.868C236.047 54.956 235.923 55 235.763 55ZM241.451 55.06C240.795 55.06 240.215 54.92 239.711 54.64C239.207 54.352 238.811 53.956 238.523 53.452C238.235 52.948 238.091 52.372 238.091 51.724C238.091 51.068 238.227 50.492 238.499 49.996C238.771 49.492 239.143 49.096 239.615 48.808C240.095 48.52 240.647 48.376 241.271 48.376C241.879 48.376 242.407 48.516 242.855 48.796C243.311 49.068 243.659 49.448 243.899 49.936C244.147 50.424 244.271 50.98 244.271 51.604C244.271 51.74 244.227 51.852 244.139 51.94C244.051 52.02 243.939 52.06 243.803 52.06H238.787V51.232H243.863L243.347 51.592C243.355 51.152 243.275 50.756 243.107 50.404C242.939 50.052 242.699 49.776 242.387 49.576C242.075 49.376 241.703 49.276 241.271 49.276C240.815 49.276 240.415 49.38 240.071 49.588C239.735 49.796 239.475 50.088 239.291 50.464C239.115 50.832 239.027 51.252 239.027 51.724C239.027 52.196 239.131 52.616 239.339 52.984C239.547 53.352 239.831 53.64 240.191 53.848C240.559 54.056 240.979 54.16 241.451 54.16C241.723 54.16 241.999 54.112 242.279 54.016C242.567 53.92 242.795 53.8 242.963 53.656C243.059 53.584 243.167 53.548 243.287 53.548C243.415 53.54 243.519 53.572 243.599 53.644C243.719 53.748 243.779 53.86 243.779 53.98C243.787 54.1 243.735 54.204 243.623 54.292C243.359 54.516 243.023 54.7 242.615 54.844C242.207 54.988 241.819 55.06 241.451 55.06ZM253.334 55.06V54.148C253.79 54.14 254.19 54.036 254.534 53.836C254.886 53.628 255.162 53.344 255.362 52.984C255.562 52.616 255.662 52.196 255.662 51.724C255.662 51.252 255.562 50.836 255.362 50.476C255.162 50.108 254.886 49.82 254.534 49.612C254.19 49.396 253.79 49.288 253.334 49.288V48.376C253.982 48.376 254.554 48.52 255.05 48.808C255.546 49.096 255.938 49.492 256.226 49.996C256.514 50.492 256.658 51.068 256.658 51.724C256.658 52.372 256.514 52.948 256.226 53.452C255.946 53.948 255.554 54.34 255.05 54.628C254.554 54.908 253.982 55.052 253.334 55.06ZM252.314 55.06C251.666 55.052 251.09 54.908 250.586 54.628C250.09 54.34 249.702 53.948 249.422 53.452C249.142 52.948 249.002 52.372 249.002 51.724C249.002 51.068 249.142 50.492 249.422 49.996C249.702 49.492 250.09 49.096 250.586 48.808C251.09 48.52 251.666 48.376 252.314 48.376V49.288C251.866 49.288 251.466 49.396 251.114 49.612C250.762 49.82 250.486 50.108 250.286 50.476C250.086 50.836 249.986 51.252 249.986 51.724C249.986 52.196 250.086 52.616 250.286 52.984C250.486 53.344 250.762 53.628 251.114 53.836C251.466 54.036 251.866 54.14 252.314 54.148V55.06ZM252.818 57.808C252.674 57.808 252.554 57.76 252.458 57.664C252.362 57.576 252.314 57.452 252.314 57.292V46.144C252.314 45.984 252.362 45.86 252.458 45.772C252.554 45.676 252.674 45.628 252.818 45.628C252.978 45.628 253.102 45.676 253.19 45.772C253.286 45.86 253.334 45.984 253.334 46.144V57.292C253.334 57.452 253.286 57.576 253.19 57.664C253.102 57.76 252.978 57.808 252.818 57.808ZM261.443 55.06C260.795 55.06 260.219 54.916 259.715 54.628C259.219 54.34 258.827 53.944 258.539 53.44C258.251 52.936 258.107 52.364 258.107 51.724C258.107 51.076 258.251 50.5 258.539 49.996C258.827 49.492 259.219 49.096 259.715 48.808C260.219 48.52 260.795 48.376 261.443 48.376C262.083 48.376 262.651 48.52 263.147 48.808C263.643 49.096 264.035 49.492 264.323 49.996C264.611 50.5 264.759 51.076 264.767 51.724C264.767 52.364 264.623 52.936 264.335 53.44C264.047 53.944 263.651 54.34 263.147 54.628C262.651 54.916 262.083 55.06 261.443 55.06ZM261.443 54.148C261.891 54.148 262.291 54.044 262.643 53.836C262.995 53.62 263.271 53.332 263.471 52.972C263.671 52.604 263.771 52.188 263.771 51.724C263.771 51.26 263.671 50.844 263.471 50.476C263.271 50.108 262.995 49.82 262.643 49.612C262.291 49.396 261.891 49.288 261.443 49.288C260.995 49.288 260.591 49.396 260.231 49.612C259.879 49.82 259.599 50.108 259.391 50.476C259.191 50.844 259.091 51.26 259.091 51.724C259.091 52.188 259.191 52.604 259.391 52.972C259.599 53.332 259.879 53.62 260.231 53.836C260.591 54.044 260.995 54.148 261.443 54.148ZM267.08 57.808C266.92 57.808 266.792 57.76 266.696 57.664C266.608 57.576 266.564 57.452 266.564 57.292V51.688C266.572 51.064 266.72 50.504 267.008 50.008C267.304 49.504 267.7 49.108 268.196 48.82C268.692 48.524 269.252 48.376 269.876 48.376C270.516 48.376 271.084 48.524 271.58 48.82C272.084 49.108 272.48 49.504 272.768 50.008C273.064 50.512 273.212 51.084 273.212 51.724C273.212 52.356 273.072 52.924 272.792 53.428C272.52 53.932 272.144 54.332 271.664 54.628C271.184 54.916 270.64 55.06 270.032 55.06C269.512 55.06 269.04 54.952 268.616 54.736C268.192 54.512 267.848 54.22 267.584 53.86V57.292C267.584 57.452 267.536 57.576 267.44 57.664C267.344 57.76 267.224 57.808 267.08 57.808ZM269.876 54.148C270.324 54.148 270.724 54.044 271.076 53.836C271.436 53.62 271.716 53.328 271.916 52.96C272.124 52.592 272.228 52.18 272.228 51.724C272.228 51.26 272.124 50.848 271.916 50.488C271.716 50.12 271.436 49.828 271.076 49.612C270.724 49.396 270.324 49.288 269.876 49.288C269.444 49.288 269.048 49.396 268.688 49.612C268.336 49.828 268.06 50.12 267.86 50.488C267.66 50.848 267.56 51.26 267.56 51.724C267.56 52.18 267.66 52.592 267.86 52.96C268.06 53.328 268.336 53.62 268.688 53.836C269.04 54.044 269.436 54.148 269.876 54.148ZM275.553 55C275.393 55 275.265 54.956 275.169 54.868C275.081 54.772 275.037 54.644 275.037 54.484V48.952C275.037 48.792 275.081 48.668 275.169 48.58C275.265 48.484 275.393 48.436 275.553 48.436C275.777 48.436 275.957 48.54 276.093 48.748L278.697 52.516L281.301 48.748C281.445 48.54 281.625 48.436 281.841 48.436C282.001 48.436 282.125 48.484 282.213 48.58C282.309 48.668 282.357 48.792 282.357 48.952V54.484C282.357 54.644 282.309 54.772 282.213 54.868C282.125 54.956 282.001 55 281.841 55C281.689 55 281.565 54.956 281.469 54.868C281.381 54.772 281.337 54.644 281.337 54.484V49.66L281.649 49.756L279.189 53.284C279.037 53.5 278.865 53.608 278.673 53.608C278.489 53.608 278.329 53.5 278.193 53.284L275.745 49.78L276.057 49.684V54.484C276.057 54.644 276.009 54.772 275.913 54.868C275.825 54.956 275.705 55 275.553 55ZM287.194 55.12C286.674 55.12 286.21 55.012 285.802 54.796C285.402 54.58 285.086 54.284 284.854 53.908C284.63 53.532 284.518 53.1 284.518 52.612V48.94C284.526 48.788 284.574 48.668 284.662 48.58C284.758 48.484 284.882 48.436 285.034 48.436C285.186 48.436 285.306 48.484 285.394 48.58C285.49 48.668 285.538 48.792 285.538 48.952V50.536H287.266C287.754 50.536 288.186 50.628 288.562 50.812C288.938 50.988 289.23 51.244 289.438 51.58C289.654 51.908 289.762 52.308 289.762 52.78C289.762 53.26 289.654 53.676 289.438 54.028C289.222 54.38 288.918 54.652 288.526 54.844C288.142 55.028 287.698 55.12 287.194 55.12ZM287.194 54.184C287.658 54.184 288.038 54.068 288.334 53.836C288.63 53.596 288.778 53.244 288.778 52.78C288.778 52.316 288.634 51.972 288.346 51.748C288.066 51.524 287.706 51.412 287.266 51.412H285.538V52.6C285.538 53.064 285.694 53.444 286.006 53.74C286.318 54.036 286.714 54.184 287.194 54.184ZM291.31 55C291.166 55 291.046 54.956 290.95 54.868C290.854 54.772 290.806 54.644 290.806 54.484V48.952C290.806 48.792 290.854 48.668 290.95 48.58C291.046 48.484 291.166 48.436 291.31 48.436C291.47 48.436 291.594 48.484 291.682 48.58C291.778 48.668 291.826 48.792 291.826 48.952V54.484C291.826 54.644 291.778 54.772 291.682 54.868C291.594 54.956 291.47 55 291.31 55Z" fill="white"/>
</svg>
