<svg width="31" height="21" viewBox="0 0 31 21" fill="none" xmlns="http://www.w3.org/2000/svg">
<path d="M17.2892 4.99935C17.818 4.46936 18.145 3.73802 18.145 2.93018C18.145 1.31188 16.8332 0 15.215 0C14.1919 0 13.2924 0.525078 12.7683 1.31966C12.6292 1.45921 0.964999 15.8355 0.856075 16.0006C0.327328 16.5307 0.000244141 17.262 0.000244141 18.0699C0.000244141 19.6881 1.31212 21 2.93036 21C3.95337 21 4.85283 20.4749 5.37691 19.6804C5.51608 19.5409 17.1803 5.16454 17.2892 4.99935Z" fill="black"/>
<path d="M24.0387 11.8208C24.5686 11.2906 24.8965 10.5582 24.8965 9.74924C24.8965 8.131 23.5847 6.81913 21.9664 6.81913C20.9429 6.81913 20.0431 7.3447 19.5192 8.1399C19.3788 8.28032 13.2525 15.8319 13.1428 15.9983C12.6127 16.5285 12.2849 17.2609 12.2849 18.0699C12.2849 19.6881 13.5967 21 15.215 21C16.2384 21 17.1382 20.4744 17.6621 19.6792C17.8026 19.5388 23.9289 11.9873 24.0387 11.8208Z" fill="black"/>
<path d="M30.4296 2.93018C30.4296 4.54841 29.1178 5.86023 27.4995 5.86023C25.8813 5.86023 24.5695 4.54841 24.5695 2.93018C24.5695 1.31189 25.8813 7.15256e-05 27.4995 7.15256e-05C29.1178 7.15256e-05 30.4296 1.31189 30.4296 2.93018Z" fill="black"/>
<path d="M5.86047 2.93018C5.86047 4.54841 4.54859 5.86023 2.93035 5.86023C1.31212 5.86023 0.000244141 4.54841 0.000244141 2.93018C0.000244141 1.31189 1.31212 7.15256e-05 2.93035 7.15256e-05C4.54859 7.15256e-05 5.86047 1.31189 5.86047 2.93018Z" fill="black"/>
</svg>
