<svg width="280" height="54" viewBox="0 0 280 54" fill="none" xmlns="http://www.w3.org/2000/svg">
<path d="M42.8109 12.3794C44.1201 11.067 44.9299 9.25604 44.9299 7.25568C44.9299 3.24847 41.6816 0 37.6745 0C35.1412 0 32.914 1.30019 31.6163 3.26773C31.2718 3.61328 2.38892 39.2118 2.1192 39.6207C0.809922 40.9332 0 42.7441 0 44.7445C0 48.7515 3.24846 52 7.25551 52C9.78868 52 12.0159 50.6998 13.3136 48.7324C13.6583 48.3869 42.5411 12.7884 42.8109 12.3794Z" fill="black"/>
<path d="M59.5237 29.2707C60.8361 27.9577 61.648 26.1441 61.648 24.141C61.648 20.1339 58.3997 16.8855 54.3925 16.8855C51.8581 16.8855 49.6301 18.1869 48.3327 20.156C47.985 20.5037 32.8151 39.2027 32.5435 39.6148C31.2308 40.9278 30.4191 42.7413 30.4191 44.7445C30.4191 48.7515 33.6675 52 37.6746 52C40.2088 52 42.4368 50.6986 43.7343 48.7295C44.082 48.3818 59.252 29.6828 59.5237 29.2707Z" fill="black"/>
<path d="M75.3489 7.25569C75.3489 11.2627 72.1006 14.511 68.0934 14.511C64.0863 14.511 60.838 11.2627 60.838 7.25569C60.838 3.24848 64.0863 0.000179291 68.0934 0.000179291C72.1006 0.000179291 75.3489 3.24848 75.3489 7.25569Z" fill="black"/>
<path d="M14.511 7.25569C14.511 11.2627 11.2626 14.511 7.25551 14.511C3.24846 14.511 0 11.2627 0 7.25569C0 3.24848 3.24846 0.000179291 7.25551 0.000179291C11.2626 0.000179291 14.511 3.24848 14.511 7.25569Z" fill="black"/>
<path d="M103.264 13.66V24.388C103.264 27.892 102.412 30.412 100.708 31.948C99.028 33.46 96.184 34.216 92.176 34.216C88.36 34.216 85.552 33.4 83.752 31.768C81.976 30.136 81.088 27.676 81.088 24.388V13.66C81.088 12.388 81.46 11.356 82.204 10.564C82.972 9.748 83.932 9.34 85.084 9.34C86.5 9.34 87.568 9.604 88.288 10.132C89.032 10.66 89.404 11.728 89.404 13.336V25.072C89.428 25.84 89.548 26.452 89.764 26.908C90.004 27.364 90.316 27.688 90.7 27.88C91.084 28.048 91.576 28.132 92.176 28.132C92.776 28.132 93.268 28.06 93.652 27.916C94.036 27.772 94.312 27.544 94.48 27.232C94.672 26.92 94.792 26.608 94.84 26.296C94.912 25.984 94.948 25.576 94.948 25.072V13.3C94.948 12.484 95.044 11.8 95.236 11.248C95.452 10.696 95.764 10.288 96.172 10.024C96.604 9.76 97.036 9.58 97.468 9.484C97.924 9.388 98.464 9.34 99.088 9.34C100.48 9.34 101.524 9.676 102.22 10.348C102.916 11.02 103.264 12.124 103.264 13.66ZM108.999 26.296V22.048C108.399 22.024 107.919 21.928 107.559 21.76C107.199 21.568 106.935 21.328 106.767 21.04C106.623 20.752 106.551 20.392 106.551 19.96C106.551 18.592 107.379 17.848 109.035 17.728V14.38C109.035 13.468 109.695 12.652 111.015 11.932C112.335 11.188 113.643 10.816 114.939 10.816C115.731 10.816 116.247 11.044 116.487 11.5C116.727 11.956 116.847 12.64 116.847 13.552L116.883 17.692H117.855C119.175 17.692 120.075 17.872 120.555 18.232C121.059 18.568 121.311 19.192 121.311 20.104C121.311 20.488 121.239 20.812 121.095 21.076C120.951 21.34 120.711 21.544 120.375 21.688C120.063 21.832 119.679 21.94 119.223 22.012C118.767 22.06 118.203 22.084 117.531 22.084H116.883V26.044C116.883 26.428 116.895 26.752 116.919 27.016C116.967 27.256 117.027 27.448 117.099 27.592C117.171 27.736 117.267 27.832 117.387 27.88C117.531 27.928 117.699 27.952 117.891 27.952C118.179 27.952 118.419 27.856 118.611 27.664C118.803 27.448 118.947 27.22 119.043 26.98C119.163 26.716 119.307 26.488 119.475 26.296C119.667 26.08 119.883 25.972 120.123 25.972C120.675 25.972 121.095 26.104 121.383 26.368C121.695 26.632 121.851 26.956 121.851 27.34C121.851 27.988 121.719 28.684 121.455 29.428C121.215 30.172 120.855 30.892 120.375 31.588C119.895 32.284 119.223 32.86 118.359 33.316C117.519 33.772 116.571 34 115.515 34C113.139 34 111.459 33.4 110.475 32.2C109.491 31 108.999 29.032 108.999 26.296ZM136.159 25.468C136.159 24.22 136.003 23.128 135.691 22.192C135.379 21.232 134.923 20.752 134.323 20.752C133.915 20.752 133.555 20.992 133.243 21.472C132.931 21.952 132.703 22.54 132.559 23.236C132.415 23.932 132.343 24.676 132.343 25.468C132.343 26.692 132.511 27.772 132.847 28.708C133.183 29.62 133.663 30.076 134.287 30.076C134.911 30.076 135.379 29.62 135.691 28.708C136.003 27.796 136.159 26.716 136.159 25.468ZM134.287 34.252C132.415 34.252 130.723 33.916 129.211 33.244C127.723 32.572 126.523 31.564 125.611 30.22C124.723 28.876 124.279 27.304 124.279 25.504C124.279 22.768 125.215 20.596 127.087 18.988C128.959 17.38 131.359 16.576 134.287 16.576C137.215 16.576 139.603 17.38 141.451 18.988C143.299 20.596 144.223 22.768 144.223 25.504C144.223 28.216 143.275 30.352 141.379 31.912C139.507 33.472 137.143 34.252 134.287 34.252ZM155.198 36.088C155.198 38.032 154.874 39.412 154.226 40.228C153.578 41.068 152.582 41.488 151.238 41.488C149.894 41.488 148.91 41.104 148.286 40.336C147.662 39.592 147.35 38.26 147.35 36.34L147.278 21.148C147.278 19.66 147.638 18.568 148.358 17.872C149.078 17.176 150.038 16.828 151.238 16.828C152.174 16.828 152.93 16.948 153.506 17.188C154.082 17.404 154.514 17.848 154.802 18.52C156.458 17.224 158.234 16.576 160.13 16.576C162.05 16.576 163.622 17.38 164.846 18.988C166.07 20.596 166.682 22.78 166.682 25.54C166.682 28.228 166.058 30.352 164.81 31.912C163.562 33.448 161.99 34.216 160.094 34.216C158.27 34.216 156.638 33.808 155.198 32.992V36.088ZM155.198 28.78C155.606 29.452 156.146 29.788 156.818 29.788C157.466 29.788 157.97 29.356 158.33 28.492C158.69 27.628 158.87 26.644 158.87 25.54C158.87 24.364 158.678 23.32 158.294 22.408C157.91 21.496 157.406 21.04 156.782 21.04C156.134 21.04 155.606 21.388 155.198 22.084V28.78ZM169.493 11.824C169.493 11.032 169.829 10.384 170.501 9.88C171.197 9.352 172.169 9.088 173.417 9.088C176.033 9.088 177.341 10 177.341 11.824C177.341 12.832 177.005 13.54 176.333 13.948C175.685 14.356 174.713 14.56 173.417 14.56C172.289 14.56 171.353 14.344 170.609 13.912C169.865 13.48 169.493 12.784 169.493 11.824ZM177.305 30.148C177.305 31.588 177.005 32.596 176.405 33.172C175.805 33.724 174.749 34 173.237 34C171.821 34 170.849 33.676 170.321 33.028C169.817 32.356 169.565 31.264 169.565 29.752V20.896C169.565 19.672 169.889 18.688 170.537 17.944C171.209 17.2 172.097 16.828 173.201 16.828C174.497 16.828 175.505 17.116 176.225 17.692C176.945 18.244 177.305 19.276 177.305 20.788V30.148ZM187.014 34.216C185.118 34.216 183.546 33.448 182.298 31.912C181.05 30.352 180.426 28.228 180.426 25.54C180.426 22.804 181.038 20.632 182.262 19.024C183.51 17.392 185.094 16.576 187.014 16.576C188.958 16.576 190.758 17.26 192.414 18.628C193.062 17.428 194.106 16.828 195.546 16.828C196.842 16.828 197.85 17.116 198.57 17.692C199.29 18.244 199.65 19.276 199.65 20.788V30.148C199.65 31.588 199.35 32.596 198.75 33.172C198.15 33.724 197.094 34 195.582 34C193.998 34 192.954 33.556 192.45 32.668C190.914 33.7 189.102 34.216 187.014 34.216ZM191.91 22.084C191.502 21.388 190.974 21.04 190.326 21.04C189.702 21.04 189.198 21.496 188.814 22.408C188.43 23.32 188.238 24.364 188.238 25.54C188.238 26.644 188.418 27.628 188.778 28.492C189.138 29.356 189.642 29.788 190.29 29.788C190.962 29.788 191.502 29.464 191.91 28.816V22.084Z" fill="black"/>
<path d="M80.596 50.1404C80.436 50.1404 80.308 50.0964 80.212 50.0084C80.124 49.9124 80.08 49.7844 80.08 49.6244V44.0924C80.08 43.9323 80.124 43.8083 80.212 43.7204C80.308 43.6243 80.436 43.5763 80.596 43.5763C80.82 43.5763 81 43.6803 81.136 43.8884L83.74 47.6564L86.344 43.8884C86.488 43.6803 86.668 43.5763 86.884 43.5763C87.044 43.5763 87.168 43.6243 87.256 43.7204C87.352 43.8083 87.4 43.9323 87.4 44.0924V49.6244C87.4 49.7844 87.352 49.9124 87.256 50.0084C87.168 50.0964 87.044 50.1404 86.884 50.1404C86.732 50.1404 86.608 50.0964 86.512 50.0084C86.424 49.9124 86.38 49.7844 86.38 49.6244V44.8004L86.692 44.8964L84.232 48.4244C84.08 48.6404 83.908 48.7484 83.716 48.7484C83.532 48.7484 83.372 48.6404 83.236 48.4244L80.788 44.9203L81.1 44.8244V49.6244C81.1 49.7844 81.052 49.9124 80.956 50.0084C80.868 50.0964 80.748 50.1404 80.596 50.1404ZM92.4045 50.2004C91.7965 50.2004 91.2525 50.0564 90.7725 49.7684C90.2925 49.4724 89.9125 49.0724 89.6325 48.5684C89.3525 48.0644 89.2125 47.4964 89.2125 46.8644C89.2125 46.2244 89.3565 45.6524 89.6445 45.1484C89.9405 44.6444 90.3405 44.2483 90.8445 43.9603C91.3485 43.6643 91.9165 43.5163 92.5485 43.5163C93.1725 43.5163 93.7325 43.6643 94.2285 43.9603C94.7325 44.2483 95.1285 44.6444 95.4165 45.1484C95.7125 45.6524 95.8645 46.2244 95.8725 46.8644L95.4645 47.0684C95.4645 47.6604 95.3285 48.1924 95.0565 48.6644C94.7925 49.1364 94.4285 49.5124 93.9645 49.7924C93.5085 50.0644 92.9885 50.2004 92.4045 50.2004ZM92.5485 49.2884C92.9965 49.2884 93.3925 49.1844 93.7365 48.9764C94.0885 48.7604 94.3645 48.4684 94.5645 48.1004C94.7725 47.7324 94.8765 47.3204 94.8765 46.8644C94.8765 46.4004 94.7725 45.9884 94.5645 45.6284C94.3645 45.2604 94.0885 44.9684 93.7365 44.7523C93.3925 44.5364 92.9965 44.4284 92.5485 44.4284C92.1085 44.4284 91.7085 44.5364 91.3485 44.7523C90.9965 44.9684 90.7165 45.2604 90.5085 45.6284C90.3005 45.9884 90.1965 46.4004 90.1965 46.8644C90.1965 47.3204 90.3005 47.7324 90.5085 48.1004C90.7165 48.4684 90.9965 48.7604 91.3485 48.9764C91.7085 49.1844 92.1085 49.2884 92.5485 49.2884ZM95.3565 50.1404C95.2125 50.1404 95.0885 50.0964 94.9845 50.0084C94.8885 49.9124 94.8405 49.7884 94.8405 49.6364V47.6564L95.0685 46.6124L95.8725 46.8644V49.6364C95.8725 49.7884 95.8245 49.9124 95.7285 50.0084C95.6325 50.0964 95.5085 50.1404 95.3565 50.1404ZM100.118 43.5763C100.222 43.5763 100.314 43.6043 100.394 43.6604C100.482 43.7163 100.554 43.8003 100.61 43.9123L103.166 49.4924C103.23 49.6204 103.238 49.7364 103.19 49.8404C103.142 49.9444 103.058 50.0284 102.938 50.0924C102.794 50.1564 102.666 50.1684 102.554 50.1284C102.442 50.0884 102.354 50.0044 102.29 49.8764L99.8658 44.4644H100.43L97.9578 49.8644C97.9018 49.9924 97.8098 50.0764 97.6818 50.1164C97.5618 50.1564 97.4338 50.1444 97.2978 50.0804C97.1778 50.0164 97.0898 49.9324 97.0338 49.8284C96.9858 49.7244 96.9938 49.6084 97.0578 49.4804L99.6498 43.9123C99.7538 43.6883 99.9098 43.5763 100.118 43.5763ZM107.401 50.2604C106.881 50.2604 106.417 50.1524 106.009 49.9364C105.609 49.7204 105.293 49.4244 105.061 49.0484C104.837 48.6724 104.725 48.2404 104.725 47.7524V44.0804C104.733 43.9283 104.781 43.8083 104.869 43.7204C104.965 43.6243 105.089 43.5763 105.241 43.5763C105.393 43.5763 105.513 43.6243 105.601 43.7204C105.697 43.8083 105.745 43.9323 105.745 44.0924V45.6764H107.473C107.961 45.6764 108.393 45.7684 108.769 45.9524C109.145 46.1284 109.437 46.3844 109.645 46.7204C109.861 47.0484 109.969 47.4484 109.969 47.9204C109.969 48.4004 109.861 48.8164 109.645 49.1684C109.429 49.5204 109.125 49.7924 108.733 49.9844C108.349 50.1684 107.905 50.2604 107.401 50.2604ZM107.401 49.3244C107.865 49.3244 108.245 49.2084 108.541 48.9764C108.837 48.7364 108.985 48.3844 108.985 47.9204C108.985 47.4564 108.841 47.1124 108.553 46.8884C108.273 46.6644 107.913 46.5524 107.473 46.5524H105.745V47.7404C105.745 48.2044 105.901 48.5844 106.213 48.8804C106.525 49.1764 106.921 49.3244 107.401 49.3244ZM111.517 50.1404C111.373 50.1404 111.253 50.0964 111.157 50.0084C111.061 49.9124 111.013 49.7844 111.013 49.6244V44.0924C111.013 43.9323 111.061 43.8083 111.157 43.7204C111.253 43.6243 111.373 43.5763 111.517 43.5763C111.677 43.5763 111.801 43.6243 111.889 43.7204C111.985 43.8083 112.033 43.9323 112.033 44.0924V49.6244C112.033 49.7844 111.985 49.9124 111.889 50.0084C111.801 50.0964 111.677 50.1404 111.517 50.1404ZM117.205 50.2004C116.549 50.2004 115.969 50.0604 115.465 49.7804C114.961 49.4924 114.565 49.0964 114.277 48.5924C113.989 48.0884 113.845 47.5124 113.845 46.8644C113.845 46.2084 113.981 45.6324 114.253 45.1364C114.525 44.6324 114.897 44.2364 115.369 43.9483C115.849 43.6603 116.401 43.5163 117.025 43.5163C117.633 43.5163 118.161 43.6563 118.609 43.9364C119.065 44.2084 119.413 44.5884 119.653 45.0764C119.901 45.5644 120.025 46.1204 120.025 46.7444C120.025 46.8804 119.981 46.9924 119.893 47.0804C119.805 47.1604 119.693 47.2004 119.557 47.2004H114.541V46.3724H119.617L119.101 46.7324C119.109 46.2924 119.029 45.8964 118.861 45.5444C118.693 45.1924 118.453 44.9164 118.141 44.7164C117.829 44.5164 117.457 44.4164 117.025 44.4164C116.569 44.4164 116.169 44.5203 115.825 44.7283C115.489 44.9364 115.229 45.2284 115.045 45.6044C114.869 45.9724 114.781 46.3924 114.781 46.8644C114.781 47.3364 114.885 47.7564 115.093 48.1244C115.301 48.4924 115.585 48.7804 115.945 48.9884C116.313 49.1964 116.733 49.3004 117.205 49.3004C117.477 49.3004 117.753 49.2524 118.033 49.1564C118.321 49.0604 118.549 48.9404 118.717 48.7964C118.813 48.7244 118.921 48.6884 119.041 48.6884C119.169 48.6804 119.273 48.7124 119.353 48.7844C119.473 48.8884 119.533 49.0004 119.533 49.1204C119.541 49.2404 119.489 49.3444 119.377 49.4324C119.113 49.6564 118.777 49.8404 118.369 49.9844C117.961 50.1284 117.573 50.2004 117.205 50.2004ZM127.947 50.2004C127.339 50.2004 126.795 50.0564 126.315 49.7684C125.835 49.4724 125.455 49.0724 125.175 48.5684C124.895 48.0644 124.755 47.4964 124.755 46.8644C124.755 46.2244 124.899 45.6524 125.187 45.1484C125.483 44.6444 125.883 44.2483 126.387 43.9603C126.891 43.6643 127.459 43.5163 128.091 43.5163C128.715 43.5163 129.275 43.6643 129.771 43.9603C130.275 44.2483 130.671 44.6444 130.959 45.1484C131.255 45.6524 131.407 46.2244 131.415 46.8644L131.007 47.0684C131.007 47.6604 130.871 48.1924 130.599 48.6644C130.335 49.1364 129.971 49.5124 129.507 49.7924C129.051 50.0644 128.531 50.2004 127.947 50.2004ZM128.091 49.2884C128.539 49.2884 128.935 49.1844 129.279 48.9764C129.631 48.7604 129.907 48.4684 130.107 48.1004C130.315 47.7324 130.419 47.3204 130.419 46.8644C130.419 46.4004 130.315 45.9884 130.107 45.6284C129.907 45.2604 129.631 44.9684 129.279 44.7523C128.935 44.5364 128.539 44.4284 128.091 44.4284C127.651 44.4284 127.251 44.5364 126.891 44.7523C126.539 44.9684 126.259 45.2604 126.051 45.6284C125.843 45.9884 125.739 46.4004 125.739 46.8644C125.739 47.3204 125.843 47.7324 126.051 48.1004C126.259 48.4684 126.539 48.7604 126.891 48.9764C127.251 49.1844 127.651 49.2884 128.091 49.2884ZM130.899 50.1404C130.755 50.1404 130.631 50.0964 130.527 50.0084C130.431 49.9124 130.383 49.7884 130.383 49.6364V47.6564L130.611 46.6124L131.415 46.8644V49.6364C131.415 49.7884 131.367 49.9124 131.271 50.0084C131.175 50.0964 131.051 50.1404 130.899 50.1404ZM133.729 52.9484C133.569 52.9484 133.441 52.9004 133.345 52.8044C133.257 52.7164 133.213 52.5924 133.213 52.4324V46.8284C133.221 46.2044 133.369 45.6444 133.657 45.1484C133.953 44.6444 134.349 44.2483 134.845 43.9603C135.341 43.6643 135.901 43.5163 136.525 43.5163C137.165 43.5163 137.733 43.6643 138.229 43.9603C138.733 44.2483 139.129 44.6444 139.417 45.1484C139.713 45.6524 139.861 46.2244 139.861 46.8644C139.861 47.4964 139.721 48.0644 139.441 48.5684C139.169 49.0724 138.793 49.4724 138.313 49.7684C137.833 50.0564 137.289 50.2004 136.681 50.2004C136.161 50.2004 135.689 50.0924 135.265 49.8764C134.841 49.6524 134.497 49.3604 134.233 49.0004V52.4324C134.233 52.5924 134.185 52.7164 134.089 52.8044C133.993 52.9004 133.873 52.9484 133.729 52.9484ZM136.525 49.2884C136.973 49.2884 137.373 49.1844 137.725 48.9764C138.085 48.7604 138.365 48.4684 138.565 48.1004C138.773 47.7324 138.877 47.3204 138.877 46.8644C138.877 46.4004 138.773 45.9884 138.565 45.6284C138.365 45.2604 138.085 44.9684 137.725 44.7523C137.373 44.5364 136.973 44.4284 136.525 44.4284C136.093 44.4284 135.697 44.5364 135.337 44.7523C134.985 44.9684 134.709 45.2604 134.509 45.6284C134.309 45.9884 134.209 46.4004 134.209 46.8644C134.209 47.3204 134.309 47.7324 134.509 48.1004C134.709 48.4684 134.985 48.7604 135.337 48.9764C135.689 49.1844 136.085 49.2884 136.525 49.2884ZM144.517 50.2124C143.949 50.2124 143.441 50.0964 142.993 49.8644C142.553 49.6244 142.205 49.2764 141.949 48.8204C141.693 48.3644 141.565 47.8044 141.565 47.1404V44.0804C141.565 43.9364 141.613 43.8164 141.709 43.7204C141.805 43.6243 141.925 43.5763 142.069 43.5763C142.213 43.5763 142.333 43.6243 142.429 43.7204C142.525 43.8164 142.573 43.9364 142.573 44.0804V47.1404C142.573 47.6284 142.665 48.0284 142.849 48.3404C143.033 48.6444 143.281 48.8764 143.593 49.0364C143.905 49.1884 144.257 49.2644 144.649 49.2644C145.025 49.2644 145.365 49.1924 145.669 49.0484C145.973 48.8964 146.213 48.6964 146.389 48.4484C146.565 48.1924 146.653 47.9004 146.653 47.5724H147.337C147.321 48.0764 147.189 48.5284 146.941 48.9284C146.693 49.3204 146.357 49.6324 145.933 49.8644C145.509 50.0964 145.037 50.2124 144.517 50.2124ZM147.157 50.1404C147.005 50.1404 146.881 50.0964 146.785 50.0084C146.697 49.9124 146.653 49.7844 146.653 49.6244V44.0804C146.653 43.9283 146.697 43.8083 146.785 43.7204C146.881 43.6243 147.005 43.5763 147.157 43.5763C147.309 43.5763 147.433 43.6243 147.529 43.7204C147.625 43.8083 147.673 43.9283 147.673 44.0804V49.6244C147.673 49.7844 147.625 49.9124 147.529 50.0084C147.433 50.0964 147.309 50.1404 147.157 50.1404ZM154.063 50.1404C153.967 50.1404 153.887 50.1284 153.823 50.1044C153.759 50.0724 153.695 50.0164 153.631 49.9364L151.555 47.3324L151.171 46.9844L149.083 44.3804C148.987 44.2684 148.939 44.1524 148.939 44.0324C148.939 43.9123 148.979 43.8083 149.059 43.7204C149.139 43.6243 149.251 43.5763 149.395 43.5763C149.547 43.5763 149.675 43.6323 149.779 43.7443L151.807 46.2764L152.119 46.5524L154.363 49.3604C154.475 49.4884 154.523 49.6164 154.507 49.7444C154.499 49.8644 154.447 49.9604 154.351 50.0324C154.263 50.1044 154.167 50.1404 154.063 50.1404ZM149.359 50.1404C149.223 50.1404 149.111 50.0964 149.023 50.0084C148.943 49.9204 148.903 49.8164 148.903 49.6964C148.903 49.5764 148.951 49.4564 149.047 49.3364L151.195 46.6484L151.759 47.4044L149.719 49.9844C149.631 50.0884 149.511 50.1404 149.359 50.1404ZM152.215 47.0324L151.555 46.3964L153.583 43.7923C153.639 43.7123 153.703 43.6563 153.775 43.6243C153.847 43.5923 153.919 43.5763 153.991 43.5763C154.143 43.5763 154.255 43.6243 154.327 43.7204C154.407 43.8083 154.443 43.9163 154.435 44.0444C154.435 44.1724 154.391 44.2924 154.303 44.4044L152.215 47.0324ZM164.872 50.1404C164.72 50.1404 164.596 50.0964 164.5 50.0084C164.404 49.9124 164.356 49.7884 164.356 49.6364V46.1924C164.356 45.6403 164.216 45.2124 163.936 44.9084C163.656 44.6043 163.292 44.4523 162.844 44.4523C162.372 44.4523 161.984 44.6123 161.68 44.9324C161.384 45.2524 161.236 45.6724 161.236 46.1924H160.36C160.368 45.6564 160.484 45.1884 160.708 44.7884C160.932 44.3804 161.24 44.0644 161.632 43.8403C162.032 43.6163 162.484 43.5043 162.988 43.5043C163.452 43.5043 163.864 43.6123 164.224 43.8284C164.584 44.0444 164.864 44.3564 165.064 44.7644C165.272 45.1644 165.376 45.6403 165.376 46.1924V49.6364C165.376 49.7884 165.328 49.9124 165.232 50.0084C165.136 50.0964 165.016 50.1404 164.872 50.1404ZM156.592 50.1404C156.432 50.1404 156.304 50.0964 156.208 50.0084C156.12 49.9124 156.076 49.7884 156.076 49.6364V44.0924C156.076 43.9404 156.12 43.8164 156.208 43.7204C156.304 43.6243 156.432 43.5763 156.592 43.5763C156.744 43.5763 156.864 43.6243 156.952 43.7204C157.048 43.8164 157.096 43.9404 157.096 44.0924V49.6364C157.096 49.7884 157.048 49.9124 156.952 50.0084C156.864 50.0964 156.744 50.1404 156.592 50.1404ZM160.732 50.1404C160.588 50.1404 160.468 50.0964 160.372 50.0084C160.276 49.9124 160.228 49.7884 160.228 49.6364V46.1924C160.228 45.6403 160.084 45.2124 159.796 44.9084C159.516 44.6043 159.156 44.4523 158.716 44.4523C158.244 44.4523 157.856 44.6083 157.552 44.9203C157.248 45.2323 157.096 45.6404 157.096 46.1444H156.4C156.416 45.6244 156.528 45.1683 156.736 44.7764C156.944 44.3764 157.232 44.0644 157.6 43.8403C157.968 43.6163 158.388 43.5043 158.86 43.5043C159.324 43.5043 159.736 43.6123 160.096 43.8284C160.456 44.0444 160.736 44.3564 160.936 44.7644C161.136 45.1644 161.236 45.6403 161.236 46.1924V49.6364C161.236 49.7884 161.188 49.9124 161.092 50.0084C161.004 50.0964 160.884 50.1404 160.732 50.1404ZM170.42 50.2004C169.764 50.2004 169.184 50.0604 168.68 49.7804C168.176 49.4924 167.78 49.0964 167.492 48.5924C167.204 48.0884 167.06 47.5124 167.06 46.8644C167.06 46.2084 167.196 45.6324 167.468 45.1364C167.74 44.6324 168.112 44.2364 168.584 43.9483C169.064 43.6603 169.616 43.5163 170.24 43.5163C170.848 43.5163 171.376 43.6563 171.824 43.9364C172.28 44.2084 172.628 44.5884 172.868 45.0764C173.116 45.5644 173.24 46.1204 173.24 46.7444C173.24 46.8804 173.196 46.9924 173.108 47.0804C173.02 47.1604 172.908 47.2004 172.772 47.2004H167.756V46.3724H172.832L172.316 46.7324C172.324 46.2924 172.244 45.8964 172.076 45.5444C171.908 45.1924 171.668 44.9164 171.356 44.7164C171.044 44.5164 170.672 44.4164 170.24 44.4164C169.784 44.4164 169.384 44.5203 169.04 44.7283C168.704 44.9364 168.444 45.2284 168.26 45.6044C168.084 45.9724 167.996 46.3924 167.996 46.8644C167.996 47.3364 168.1 47.7564 168.308 48.1244C168.516 48.4924 168.8 48.7804 169.16 48.9884C169.528 49.1964 169.948 49.3004 170.42 49.3004C170.692 49.3004 170.968 49.2524 171.248 49.1564C171.536 49.0604 171.764 48.9404 171.932 48.7964C172.028 48.7244 172.136 48.6884 172.256 48.6884C172.384 48.6804 172.488 48.7124 172.568 48.7844C172.688 48.8884 172.748 49.0004 172.748 49.1204C172.756 49.2404 172.704 49.3444 172.592 49.4324C172.328 49.6564 171.992 49.8404 171.584 49.9844C171.176 50.1284 170.788 50.2004 170.42 50.2004ZM179.975 50.0084C179.887 50.0964 179.767 50.1404 179.615 50.1404C179.471 50.1404 179.355 50.0924 179.267 49.9964L176.375 46.8524L179.123 43.7323C179.211 43.6364 179.327 43.5844 179.471 43.5763C179.615 43.5683 179.731 43.6043 179.819 43.6843C179.923 43.7803 179.979 43.8884 179.987 44.0083C180.003 44.1204 179.967 44.2284 179.879 44.3324L177.647 46.8044L179.999 49.3724C180.087 49.4684 180.131 49.5764 180.131 49.6964C180.131 49.8084 180.079 49.9124 179.975 50.0084ZM175.283 50.1404C175.139 50.1404 175.023 50.0964 174.935 50.0084C174.847 49.9124 174.803 49.7884 174.803 49.6364V44.0924C174.803 43.9323 174.847 43.8083 174.935 43.7204C175.023 43.6243 175.139 43.5763 175.283 43.5763C175.443 43.5763 175.567 43.6243 175.655 43.7204C175.751 43.8083 175.799 43.9323 175.799 44.0924V46.3484H177.287V47.2844H175.799V49.6364C175.799 49.7884 175.751 49.9124 175.655 50.0084C175.567 50.0964 175.443 50.1404 175.283 50.1404ZM190.431 50.1404C190.279 50.1404 190.155 50.0964 190.059 50.0084C189.963 49.9124 189.915 49.7884 189.915 49.6364V46.1924C189.915 45.6403 189.775 45.2124 189.495 44.9084C189.215 44.6043 188.851 44.4523 188.403 44.4523C187.931 44.4523 187.543 44.6123 187.239 44.9324C186.943 45.2524 186.795 45.6724 186.795 46.1924H185.919C185.927 45.6564 186.043 45.1884 186.267 44.7884C186.491 44.3804 186.799 44.0644 187.191 43.8403C187.591 43.6163 188.043 43.5043 188.547 43.5043C189.011 43.5043 189.423 43.6123 189.783 43.8284C190.143 44.0444 190.423 44.3564 190.623 44.7644C190.831 45.1644 190.935 45.6403 190.935 46.1924V49.6364C190.935 49.7884 190.887 49.9124 190.791 50.0084C190.695 50.0964 190.575 50.1404 190.431 50.1404ZM182.151 50.1404C181.991 50.1404 181.863 50.0964 181.767 50.0084C181.679 49.9124 181.635 49.7884 181.635 49.6364V44.0924C181.635 43.9404 181.679 43.8164 181.767 43.7204C181.863 43.6243 181.991 43.5763 182.151 43.5763C182.303 43.5763 182.423 43.6243 182.511 43.7204C182.607 43.8164 182.655 43.9404 182.655 44.0924V49.6364C182.655 49.7884 182.607 49.9124 182.511 50.0084C182.423 50.0964 182.303 50.1404 182.151 50.1404ZM186.291 50.1404C186.147 50.1404 186.027 50.0964 185.931 50.0084C185.835 49.9124 185.787 49.7884 185.787 49.6364V46.1924C185.787 45.6403 185.643 45.2124 185.355 44.9084C185.075 44.6043 184.715 44.4523 184.275 44.4523C183.803 44.4523 183.415 44.6083 183.111 44.9203C182.807 45.2323 182.655 45.6404 182.655 46.1444H181.959C181.975 45.6244 182.087 45.1683 182.295 44.7764C182.503 44.3764 182.791 44.0644 183.159 43.8403C183.527 43.6163 183.947 43.5043 184.419 43.5043C184.883 43.5043 185.295 43.6123 185.655 43.8284C186.015 44.0444 186.295 44.3564 186.495 44.7644C186.695 45.1644 186.795 45.6403 186.795 46.1924V49.6364C186.795 49.7884 186.747 49.9124 186.651 50.0084C186.563 50.0964 186.443 50.1404 186.291 50.1404ZM192.531 53.0084C192.363 53.0164 192.195 52.9964 192.027 52.9484C191.867 52.9004 191.707 52.8324 191.547 52.7444C191.403 52.6564 191.311 52.5444 191.271 52.4084C191.223 52.2724 191.247 52.1444 191.343 52.0244C191.423 51.9124 191.523 51.8484 191.643 51.8324C191.771 51.8244 191.903 51.8564 192.039 51.9284C192.127 51.9764 192.211 52.0124 192.291 52.0364C192.379 52.0604 192.475 52.0724 192.579 52.0724C192.835 52.0724 193.083 51.9484 193.323 51.7004C193.571 51.4524 193.799 51.0884 194.007 50.6084L196.959 43.8403C197.015 43.7124 197.103 43.6244 197.223 43.5763C197.351 43.5283 197.483 43.5324 197.619 43.5884C197.731 43.6444 197.807 43.7323 197.847 43.8523C197.887 43.9724 197.875 44.1044 197.811 44.2484L194.847 51.0164C194.575 51.6084 194.235 52.0884 193.827 52.4564C193.427 52.8244 192.995 53.0084 192.531 53.0084ZM195.099 49.9124C194.971 49.9764 194.851 49.9884 194.739 49.9484C194.627 49.9084 194.535 49.8204 194.463 49.6844L191.775 44.2484C191.711 44.1124 191.699 43.9884 191.739 43.8764C191.787 43.7644 191.875 43.6764 192.003 43.6123C192.139 43.5564 192.263 43.5484 192.375 43.5884C192.487 43.6284 192.575 43.7124 192.639 43.8403L195.279 49.2644C195.343 49.3924 195.363 49.5204 195.339 49.6484C195.315 49.7684 195.235 49.8564 195.099 49.9124ZM199.787 52.9484C199.627 52.9484 199.499 52.9004 199.403 52.8044C199.315 52.7164 199.271 52.5924 199.271 52.4324V46.8284C199.279 46.2044 199.427 45.6444 199.715 45.1484C200.011 44.6444 200.407 44.2483 200.903 43.9603C201.399 43.6643 201.959 43.5163 202.583 43.5163C203.223 43.5163 203.791 43.6643 204.287 43.9603C204.791 44.2483 205.187 44.6444 205.475 45.1484C205.771 45.6524 205.919 46.2244 205.919 46.8644C205.919 47.4964 205.779 48.0644 205.499 48.5684C205.227 49.0724 204.851 49.4724 204.371 49.7684C203.891 50.0564 203.347 50.2004 202.739 50.2004C202.219 50.2004 201.747 50.0924 201.323 49.8764C200.899 49.6524 200.555 49.3604 200.291 49.0004V52.4324C200.291 52.5924 200.243 52.7164 200.147 52.8044C200.051 52.9004 199.931 52.9484 199.787 52.9484ZM202.583 49.2884C203.031 49.2884 203.431 49.1844 203.783 48.9764C204.143 48.7604 204.423 48.4684 204.623 48.1004C204.831 47.7324 204.935 47.3204 204.935 46.8644C204.935 46.4004 204.831 45.9884 204.623 45.6284C204.423 45.2604 204.143 44.9684 203.783 44.7523C203.431 44.5364 203.031 44.4284 202.583 44.4284C202.151 44.4284 201.755 44.5364 201.395 44.7523C201.043 44.9684 200.767 45.2604 200.567 45.6284C200.367 45.9884 200.267 46.4004 200.267 46.8644C200.267 47.3204 200.367 47.7324 200.567 48.1004C200.767 48.4684 201.043 48.7604 201.395 48.9764C201.747 49.1844 202.143 49.2884 202.583 49.2884ZM213.336 50.1404C213.184 50.1404 213.06 50.0964 212.964 50.0084C212.868 49.9124 212.82 49.7844 212.82 49.6244V44.0924C212.82 43.9323 212.868 43.8083 212.964 43.7204C213.06 43.6243 213.184 43.5763 213.336 43.5763C213.48 43.5763 213.596 43.6243 213.684 43.7204C213.772 43.8083 213.816 43.9323 213.816 44.0924V49.6244C213.816 49.7844 213.772 49.9124 213.684 50.0084C213.596 50.0964 213.48 50.1404 213.336 50.1404ZM208.236 50.1404C208.092 50.1404 207.972 50.0964 207.876 50.0084C207.788 49.9124 207.744 49.7844 207.744 49.6244V44.0924C207.744 43.9323 207.788 43.8083 207.876 43.7204C207.972 43.6243 208.092 43.5763 208.236 43.5763C208.388 43.5763 208.508 43.6243 208.596 43.7204C208.692 43.8083 208.74 43.9323 208.74 44.0924V49.6244C208.74 49.7844 208.692 49.9124 208.596 50.0084C208.508 50.0964 208.388 50.1404 208.236 50.1404ZM208.584 47.2604V46.3484H213.144V47.2604H208.584ZM218.647 50.2604C218.127 50.2604 217.663 50.1524 217.255 49.9364C216.855 49.7204 216.539 49.4244 216.307 49.0484C216.083 48.6724 215.971 48.2404 215.971 47.7524V44.0804C215.979 43.9283 216.027 43.8083 216.115 43.7204C216.211 43.6243 216.335 43.5763 216.487 43.5763C216.639 43.5763 216.759 43.6243 216.847 43.7204C216.943 43.8083 216.991 43.9323 216.991 44.0924V45.6764H218.719C219.207 45.6764 219.639 45.7684 220.015 45.9524C220.391 46.1284 220.683 46.3844 220.891 46.7204C221.107 47.0484 221.215 47.4484 221.215 47.9204C221.215 48.4004 221.107 48.8164 220.891 49.1684C220.675 49.5204 220.371 49.7924 219.979 49.9844C219.595 50.1684 219.151 50.2604 218.647 50.2604ZM218.647 49.3244C219.111 49.3244 219.491 49.2084 219.787 48.9764C220.083 48.7364 220.231 48.3844 220.231 47.9204C220.231 47.4564 220.087 47.1124 219.799 46.8884C219.519 46.6644 219.159 46.5524 218.719 46.5524H216.991V47.7404C216.991 48.2044 217.147 48.5844 217.459 48.8804C217.771 49.1764 218.167 49.3244 218.647 49.3244ZM222.763 50.1404C222.619 50.1404 222.499 50.0964 222.403 50.0084C222.307 49.9124 222.259 49.7844 222.259 49.6244V44.0924C222.259 43.9323 222.307 43.8083 222.403 43.7204C222.499 43.6243 222.619 43.5763 222.763 43.5763C222.923 43.5763 223.047 43.6243 223.135 43.7204C223.231 43.8083 223.279 43.9323 223.279 44.0924V49.6244C223.279 49.7844 223.231 49.9124 223.135 50.0084C223.047 50.0964 222.923 50.1404 222.763 50.1404ZM228.451 50.2004C227.795 50.2004 227.215 50.0604 226.711 49.7804C226.207 49.4924 225.811 49.0964 225.523 48.5924C225.235 48.0884 225.091 47.5124 225.091 46.8644C225.091 46.2084 225.227 45.6324 225.499 45.1364C225.771 44.6324 226.143 44.2364 226.615 43.9483C227.095 43.6603 227.647 43.5163 228.271 43.5163C228.879 43.5163 229.407 43.6563 229.855 43.9364C230.311 44.2084 230.659 44.5884 230.899 45.0764C231.147 45.5644 231.271 46.1204 231.271 46.7444C231.271 46.8804 231.227 46.9924 231.139 47.0804C231.051 47.1604 230.939 47.2004 230.803 47.2004H225.787V46.3724H230.863L230.347 46.7324C230.355 46.2924 230.275 45.8964 230.107 45.5444C229.939 45.1924 229.699 44.9164 229.387 44.7164C229.075 44.5164 228.703 44.4164 228.271 44.4164C227.815 44.4164 227.415 44.5203 227.071 44.7283C226.735 44.9364 226.475 45.2284 226.291 45.6044C226.115 45.9724 226.027 46.3924 226.027 46.8644C226.027 47.3364 226.131 47.7564 226.339 48.1244C226.547 48.4924 226.831 48.7804 227.191 48.9884C227.559 49.1964 227.979 49.3004 228.451 49.3004C228.723 49.3004 228.999 49.2524 229.279 49.1564C229.567 49.0604 229.795 48.9404 229.963 48.7964C230.059 48.7244 230.167 48.6884 230.287 48.6884C230.415 48.6804 230.519 48.7124 230.599 48.7844C230.719 48.8884 230.779 49.0004 230.779 49.1204C230.787 49.2404 230.735 49.3444 230.623 49.4324C230.359 49.6564 230.023 49.8404 229.615 49.9844C229.207 50.1284 228.819 50.2004 228.451 50.2004ZM240.334 50.2004V49.2884C240.79 49.2804 241.19 49.1764 241.534 48.9764C241.886 48.7684 242.162 48.4844 242.362 48.1244C242.562 47.7564 242.662 47.3364 242.662 46.8644C242.662 46.3924 242.562 45.9764 242.362 45.6164C242.162 45.2484 241.886 44.9604 241.534 44.7523C241.19 44.5364 240.79 44.4284 240.334 44.4284V43.5163C240.982 43.5163 241.554 43.6603 242.05 43.9483C242.546 44.2364 242.938 44.6324 243.226 45.1364C243.514 45.6324 243.658 46.2084 243.658 46.8644C243.658 47.5124 243.514 48.0884 243.226 48.5924C242.946 49.0884 242.554 49.4804 242.05 49.7684C241.554 50.0484 240.982 50.1924 240.334 50.2004ZM239.314 50.2004C238.666 50.1924 238.09 50.0484 237.586 49.7684C237.09 49.4804 236.702 49.0884 236.422 48.5924C236.142 48.0884 236.002 47.5124 236.002 46.8644C236.002 46.2084 236.142 45.6324 236.422 45.1364C236.702 44.6324 237.09 44.2364 237.586 43.9483C238.09 43.6603 238.666 43.5163 239.314 43.5163V44.4284C238.866 44.4284 238.466 44.5364 238.114 44.7523C237.762 44.9604 237.486 45.2484 237.286 45.6164C237.086 45.9764 236.986 46.3924 236.986 46.8644C236.986 47.3364 237.086 47.7564 237.286 48.1244C237.486 48.4844 237.762 48.7684 238.114 48.9764C238.466 49.1764 238.866 49.2804 239.314 49.2884V50.2004ZM239.818 52.9484C239.674 52.9484 239.554 52.9004 239.458 52.8044C239.362 52.7164 239.314 52.5924 239.314 52.4324V41.2843C239.314 41.1244 239.362 41.0003 239.458 40.9123C239.554 40.8163 239.674 40.7684 239.818 40.7684C239.978 40.7684 240.102 40.8163 240.19 40.9123C240.286 41.0003 240.334 41.1244 240.334 41.2843V52.4324C240.334 52.5924 240.286 52.7164 240.19 52.8044C240.102 52.9004 239.978 52.9484 239.818 52.9484ZM248.443 50.2004C247.795 50.2004 247.219 50.0564 246.715 49.7684C246.219 49.4804 245.827 49.0844 245.539 48.5804C245.251 48.0764 245.107 47.5044 245.107 46.8644C245.107 46.2164 245.251 45.6404 245.539 45.1364C245.827 44.6324 246.219 44.2364 246.715 43.9483C247.219 43.6603 247.795 43.5163 248.443 43.5163C249.083 43.5163 249.651 43.6603 250.147 43.9483C250.643 44.2364 251.035 44.6324 251.323 45.1364C251.611 45.6404 251.759 46.2164 251.767 46.8644C251.767 47.5044 251.623 48.0764 251.335 48.5804C251.047 49.0844 250.651 49.4804 250.147 49.7684C249.651 50.0564 249.083 50.2004 248.443 50.2004ZM248.443 49.2884C248.891 49.2884 249.291 49.1844 249.643 48.9764C249.995 48.7604 250.271 48.4724 250.471 48.1124C250.671 47.7444 250.771 47.3284 250.771 46.8644C250.771 46.4004 250.671 45.9844 250.471 45.6164C250.271 45.2484 249.995 44.9604 249.643 44.7523C249.291 44.5364 248.891 44.4284 248.443 44.4284C247.995 44.4284 247.591 44.5364 247.231 44.7523C246.879 44.9604 246.599 45.2484 246.391 45.6164C246.191 45.9844 246.091 46.4004 246.091 46.8644C246.091 47.3284 246.191 47.7444 246.391 48.1124C246.599 48.4724 246.879 48.7604 247.231 48.9764C247.591 49.1844 247.995 49.2884 248.443 49.2884ZM254.08 52.9484C253.92 52.9484 253.792 52.9004 253.696 52.8044C253.608 52.7164 253.564 52.5924 253.564 52.4324V46.8284C253.572 46.2044 253.72 45.6444 254.008 45.1484C254.304 44.6444 254.7 44.2483 255.196 43.9603C255.692 43.6643 256.252 43.5163 256.876 43.5163C257.516 43.5163 258.084 43.6643 258.58 43.9603C259.084 44.2483 259.48 44.6444 259.768 45.1484C260.064 45.6524 260.212 46.2244 260.212 46.8644C260.212 47.4964 260.072 48.0644 259.792 48.5684C259.52 49.0724 259.144 49.4724 258.664 49.7684C258.184 50.0564 257.64 50.2004 257.032 50.2004C256.512 50.2004 256.04 50.0924 255.616 49.8764C255.192 49.6524 254.848 49.3604 254.584 49.0004V52.4324C254.584 52.5924 254.536 52.7164 254.44 52.8044C254.344 52.9004 254.224 52.9484 254.08 52.9484ZM256.876 49.2884C257.324 49.2884 257.724 49.1844 258.076 48.9764C258.436 48.7604 258.716 48.4684 258.916 48.1004C259.124 47.7324 259.228 47.3204 259.228 46.8644C259.228 46.4004 259.124 45.9884 258.916 45.6284C258.716 45.2604 258.436 44.9684 258.076 44.7523C257.724 44.5364 257.324 44.4284 256.876 44.4284C256.444 44.4284 256.048 44.5364 255.688 44.7523C255.336 44.9684 255.06 45.2604 254.86 45.6284C254.66 45.9884 254.56 46.4004 254.56 46.8644C254.56 47.3204 254.66 47.7324 254.86 48.1004C255.06 48.4684 255.336 48.7604 255.688 48.9764C256.04 49.1844 256.436 49.2884 256.876 49.2884ZM262.553 50.1404C262.393 50.1404 262.265 50.0964 262.169 50.0084C262.081 49.9124 262.037 49.7844 262.037 49.6244V44.0924C262.037 43.9323 262.081 43.8083 262.169 43.7204C262.265 43.6243 262.393 43.5763 262.553 43.5763C262.777 43.5763 262.957 43.6803 263.093 43.8884L265.697 47.6564L268.301 43.8884C268.445 43.6803 268.625 43.5763 268.841 43.5763C269.001 43.5763 269.125 43.6243 269.213 43.7204C269.309 43.8083 269.357 43.9323 269.357 44.0924V49.6244C269.357 49.7844 269.309 49.9124 269.213 50.0084C269.125 50.0964 269.001 50.1404 268.841 50.1404C268.689 50.1404 268.565 50.0964 268.469 50.0084C268.381 49.9124 268.337 49.7844 268.337 49.6244V44.8004L268.649 44.8964L266.189 48.4244C266.037 48.6404 265.865 48.7484 265.673 48.7484C265.489 48.7484 265.329 48.6404 265.193 48.4244L262.745 44.9203L263.057 44.8244V49.6244C263.057 49.7844 263.009 49.9124 262.913 50.0084C262.825 50.0964 262.705 50.1404 262.553 50.1404ZM274.194 50.2604C273.674 50.2604 273.21 50.1524 272.802 49.9364C272.402 49.7204 272.086 49.4244 271.854 49.0484C271.63 48.6724 271.518 48.2404 271.518 47.7524V44.0804C271.526 43.9283 271.574 43.8083 271.662 43.7204C271.758 43.6243 271.882 43.5763 272.034 43.5763C272.186 43.5763 272.306 43.6243 272.394 43.7204C272.49 43.8083 272.538 43.9323 272.538 44.0924V45.6764H274.266C274.754 45.6764 275.186 45.7684 275.562 45.9524C275.938 46.1284 276.23 46.3844 276.438 46.7204C276.654 47.0484 276.762 47.4484 276.762 47.9204C276.762 48.4004 276.654 48.8164 276.438 49.1684C276.222 49.5204 275.918 49.7924 275.526 49.9844C275.142 50.1684 274.698 50.2604 274.194 50.2604ZM274.194 49.3244C274.658 49.3244 275.038 49.2084 275.334 48.9764C275.63 48.7364 275.778 48.3844 275.778 47.9204C275.778 47.4564 275.634 47.1124 275.346 46.8884C275.066 46.6644 274.706 46.5524 274.266 46.5524H272.538V47.7404C272.538 48.2044 272.694 48.5844 273.006 48.8804C273.318 49.1764 273.714 49.3244 274.194 49.3244ZM278.31 50.1404C278.166 50.1404 278.046 50.0964 277.95 50.0084C277.854 49.9124 277.806 49.7844 277.806 49.6244V44.0924C277.806 43.9323 277.854 43.8083 277.95 43.7204C278.046 43.6243 278.166 43.5763 278.31 43.5763C278.47 43.5763 278.594 43.6243 278.682 43.7204C278.778 43.8083 278.826 43.9323 278.826 44.0924V49.6244C278.826 49.7844 278.778 49.9124 278.682 50.0084C278.594 50.0964 278.47 50.1404 278.31 50.1404Z" fill="black"/>
</svg>
