<svg width="123" height="32" viewBox="0 0 123 32" fill="none" xmlns="http://www.w3.org/2000/svg">
<rect width="123" height="32" rx="10" fill="#121212"/>
<path d="M60.784 11.96V16.728C60.784 18.2853 60.4053 19.4053 59.648 20.088C58.9013 20.76 57.6373 21.096 55.856 21.096C54.16 21.096 52.912 20.7333 52.112 20.008C51.3227 19.2827 50.928 18.1893 50.928 16.728V11.96C50.928 11.3947 51.0933 10.936 51.424 10.584C51.7653 10.2213 52.192 10.04 52.704 10.04C53.3333 10.04 53.808 10.1573 54.128 10.392C54.4587 10.6267 54.624 11.1013 54.624 11.816V17.032C54.6347 17.3733 54.688 17.6453 54.784 17.848C54.8907 18.0507 55.0293 18.1947 55.2 18.28C55.3707 18.3547 55.5893 18.392 55.856 18.392C56.1227 18.392 56.3413 18.36 56.512 18.296C56.6827 18.232 56.8053 18.1307 56.88 17.992C56.9653 17.8533 57.0187 17.7147 57.04 17.576C57.072 17.4373 57.088 17.256 57.088 17.032V11.8C57.088 11.4373 57.1307 11.1333 57.216 10.888C57.312 10.6427 57.4507 10.4613 57.632 10.344C57.824 10.2267 58.016 10.1467 58.208 10.104C58.4107 10.0613 58.6507 10.04 58.928 10.04C59.5467 10.04 60.0107 10.1893 60.32 10.488C60.6293 10.7867 60.784 11.2773 60.784 11.96ZM63.3329 17.576V15.688C63.0662 15.6773 62.8529 15.6347 62.6929 15.56C62.5329 15.4747 62.4155 15.368 62.3409 15.24C62.2769 15.112 62.2449 14.952 62.2449 14.76C62.2449 14.152 62.6129 13.8213 63.3489 13.768V12.28C63.3489 11.8747 63.6422 11.512 64.2289 11.192C64.8155 10.8613 65.3969 10.696 65.9729 10.696C66.3249 10.696 66.5542 10.7973 66.6609 11C66.7675 11.2027 66.8209 11.5067 66.8209 11.912L66.8369 13.752H67.2689C67.8555 13.752 68.2555 13.832 68.4689 13.992C68.6929 14.1413 68.8049 14.4187 68.8049 14.824C68.8049 14.9947 68.7729 15.1387 68.7089 15.256C68.6449 15.3733 68.5382 15.464 68.3889 15.528C68.2502 15.592 68.0795 15.64 67.8769 15.672C67.6742 15.6933 67.4235 15.704 67.1249 15.704H66.8369V17.464C66.8369 17.6347 66.8422 17.7787 66.8529 17.896C66.8742 18.0027 66.9009 18.088 66.9329 18.152C66.9649 18.216 67.0075 18.2587 67.0609 18.28C67.1249 18.3013 67.1995 18.312 67.2849 18.312C67.4129 18.312 67.5195 18.2693 67.6049 18.184C67.6902 18.088 67.7542 17.9867 67.7969 17.88C67.8502 17.7627 67.9142 17.6613 67.9889 17.576C68.0742 17.48 68.1702 17.432 68.2769 17.432C68.5222 17.432 68.7089 17.4907 68.8369 17.608C68.9755 17.7253 69.0449 17.8693 69.0449 18.04C69.0449 18.328 68.9862 18.6373 68.8689 18.968C68.7622 19.2987 68.6022 19.6187 68.3889 19.928C68.1755 20.2373 67.8769 20.4933 67.4929 20.696C67.1195 20.8987 66.6982 21 66.2289 21C65.1729 21 64.4262 20.7333 63.9889 20.2C63.5515 19.6667 63.3329 18.792 63.3329 17.576ZM75.404 17.208C75.404 16.6533 75.3347 16.168 75.196 15.752C75.0573 15.3253 74.8547 15.112 74.588 15.112C74.4067 15.112 74.2467 15.2187 74.108 15.432C73.9693 15.6453 73.868 15.9067 73.804 16.216C73.74 16.5253 73.708 16.856 73.708 17.208C73.708 17.752 73.7827 18.232 73.932 18.648C74.0813 19.0533 74.2947 19.256 74.572 19.256C74.8493 19.256 75.0573 19.0533 75.196 18.648C75.3347 18.2427 75.404 17.7627 75.404 17.208ZM74.572 21.112C73.74 21.112 72.988 20.9627 72.316 20.664C71.6547 20.3653 71.1213 19.9173 70.716 19.32C70.3213 18.7227 70.124 18.024 70.124 17.224C70.124 16.008 70.54 15.0427 71.372 14.328C72.204 13.6133 73.2707 13.256 74.572 13.256C75.8733 13.256 76.9347 13.6133 77.756 14.328C78.5773 15.0427 78.988 16.008 78.988 17.224C78.988 18.4293 78.5667 19.3787 77.724 20.072C76.892 20.7653 75.8413 21.112 74.572 21.112ZM83.8658 21.928C83.8658 22.792 83.7218 23.4053 83.4338 23.768C83.1458 24.1413 82.7031 24.328 82.1058 24.328C81.5084 24.328 81.0711 24.1573 80.7938 23.816C80.5164 23.4853 80.3778 22.8933 80.3778 22.04L80.3458 15.288C80.3458 14.6267 80.5058 14.1413 80.8258 13.832C81.1458 13.5227 81.5724 13.368 82.1058 13.368C82.5218 13.368 82.8578 13.4213 83.1138 13.528C83.3698 13.624 83.5618 13.8213 83.6898 14.12C84.4258 13.544 85.2151 13.256 86.0578 13.256C86.9111 13.256 87.6098 13.6133 88.1538 14.328C88.6978 15.0427 88.9698 16.0133 88.9698 17.24C88.9698 18.4347 88.6924 19.3787 88.1378 20.072C87.5831 20.7547 86.8844 21.096 86.0418 21.096C85.2311 21.096 84.5058 20.9147 83.8658 20.552V21.928ZM83.8658 18.68C84.0471 18.9787 84.2871 19.128 84.5858 19.128C84.8738 19.128 85.0978 18.936 85.2578 18.552C85.4178 18.168 85.4978 17.7307 85.4978 17.24C85.4978 16.7173 85.4124 16.2533 85.2418 15.848C85.0711 15.4427 84.8471 15.24 84.5698 15.24C84.2818 15.24 84.0471 15.3947 83.8658 15.704V18.68ZM90.2193 11.144C90.2193 10.792 90.3686 10.504 90.6673 10.28C90.9766 10.0453 91.4086 9.928 91.9633 9.928C93.1259 9.928 93.7073 10.3333 93.7073 11.144C93.7073 11.592 93.5579 11.9067 93.2593 12.088C92.9713 12.2693 92.5393 12.36 91.9633 12.36C91.4619 12.36 91.0459 12.264 90.7153 12.072C90.3846 11.88 90.2193 11.5707 90.2193 11.144ZM93.6913 19.288C93.6913 19.928 93.5579 20.376 93.2913 20.632C93.0246 20.8773 92.5553 21 91.8832 21C91.2539 21 90.8219 20.856 90.5872 20.568C90.3633 20.2693 90.2513 19.784 90.2513 19.112V15.176C90.2513 14.632 90.3953 14.1947 90.6833 13.864C90.9819 13.5333 91.3766 13.368 91.8673 13.368C92.4433 13.368 92.8913 13.496 93.2113 13.752C93.5313 13.9973 93.6913 14.456 93.6913 15.128V19.288ZM98.0063 21.096C97.1636 21.096 96.4649 20.7547 95.9103 20.072C95.3556 19.3787 95.0783 18.4347 95.0783 17.24C95.0783 16.024 95.3503 15.0587 95.8943 14.344C96.4489 13.6187 97.1529 13.256 98.0063 13.256C98.8703 13.256 99.6703 13.56 100.406 14.168C100.694 13.6347 101.158 13.368 101.798 13.368C102.374 13.368 102.822 13.496 103.142 13.752C103.462 13.9973 103.622 14.456 103.622 15.128V19.288C103.622 19.928 103.489 20.376 103.222 20.632C102.956 20.8773 102.486 21 101.814 21C101.11 21 100.646 20.8027 100.422 20.408C99.7396 20.8667 98.9343 21.096 98.0063 21.096ZM100.182 15.704C100.001 15.3947 99.7663 15.24 99.4783 15.24C99.2009 15.24 98.9769 15.4427 98.8063 15.848C98.6356 16.2533 98.5503 16.7173 98.5503 17.24C98.5503 17.7307 98.6303 18.168 98.7903 18.552C98.9503 18.936 99.1743 19.128 99.4623 19.128C99.7609 19.128 100.001 18.984 100.182 18.696V15.704Z" fill="white"/>
<path d="M35.289 9.99935C35.8177 9.46936 36.1448 8.73802 36.1448 7.93018C36.1448 6.31188 34.833 5 33.2147 5C32.1916 5 31.2922 5.52508 30.7681 6.31966C30.629 6.45921 18.9648 20.8355 18.8558 21.0006C18.3271 21.5307 18 22.262 18 23.0699C18 24.6881 19.3119 26 20.9301 26C21.9531 26 22.8526 25.4749 23.3767 24.6804C23.5158 24.5409 35.1801 10.1645 35.289 9.99935Z" fill="white"/>
<path d="M42.0385 16.8208C42.5685 16.2906 42.8964 15.5582 42.8964 14.7492C42.8964 13.131 41.5845 11.8191 39.9662 11.8191C38.9427 11.8191 38.043 12.3447 37.519 13.1399C37.3786 13.2803 31.2523 20.8319 31.1426 20.9983C30.6125 21.5285 30.2847 22.2609 30.2847 23.0699C30.2847 24.6881 31.5965 26 33.2148 26C34.2382 26 35.138 25.4744 35.662 24.6792C35.8024 24.5388 41.9287 16.9873 42.0385 16.8208Z" fill="white"/>
<path d="M48.4294 7.93018C48.4294 9.54841 47.1176 10.8602 45.4993 10.8602C43.881 10.8602 42.5692 9.54841 42.5692 7.93018C42.5692 6.31189 43.881 5.00007 45.4993 5.00007C47.1176 5.00007 48.4294 6.31189 48.4294 7.93018Z" fill="white"/>
<path d="M23.8602 7.93018C23.8602 9.54841 22.5483 10.8602 20.9301 10.8602C19.3119 10.8602 18 9.54841 18 7.93018C18 6.31189 19.3119 5.00007 20.9301 5.00007C22.5483 5.00007 23.8602 6.31189 23.8602 7.93018Z" fill="white"/>
</svg>
