<svg width="48" height="12" viewBox="0 0 48 12" fill="none" xmlns="http://www.w3.org/2000/svg">
<path d="M23.066 4.915V7.597C23.066 8.473 22.853 9.103 22.427 9.487C22.007 9.865 21.296 10.054 20.294 10.054C19.34 10.054 18.638 9.85 18.188 9.442C17.744 9.034 17.522 8.419 17.522 7.597V4.915C17.522 4.597 17.615 4.339 17.801 4.141C17.993 3.937 18.233 3.835 18.521 3.835C18.875 3.835 19.142 3.901 19.322 4.033C19.508 4.165 19.601 4.432 19.601 4.834V7.768C19.607 7.96 19.637 8.113 19.691 8.227C19.751 8.341 19.829 8.422 19.925 8.47C20.021 8.512 20.144 8.533 20.294 8.533C20.444 8.533 20.567 8.515 20.663 8.479C20.759 8.443 20.828 8.386 20.87 8.308C20.918 8.23 20.948 8.152 20.96 8.074C20.978 7.996 20.987 7.894 20.987 7.768V4.825C20.987 4.621 21.011 4.45 21.059 4.312C21.113 4.174 21.191 4.072 21.293 4.006C21.401 3.94 21.509 3.895 21.617 3.871C21.731 3.847 21.866 3.835 22.022 3.835C22.37 3.835 22.631 3.919 22.805 4.087C22.979 4.255 23.066 4.531 23.066 4.915ZM24.4997 8.074V7.012C24.3497 7.006 24.2297 6.982 24.1397 6.94C24.0497 6.892 23.9837 6.832 23.9417 6.76C23.9057 6.688 23.8877 6.598 23.8877 6.49C23.8877 6.148 24.0947 5.962 24.5087 5.932V5.095C24.5087 4.867 24.6737 4.663 25.0037 4.483C25.3337 4.297 25.6607 4.204 25.9847 4.204C26.1827 4.204 26.3117 4.261 26.3717 4.375C26.4317 4.489 26.4617 4.66 26.4617 4.888L26.4707 5.923H26.7137C27.0437 5.923 27.2687 5.968 27.3887 6.058C27.5147 6.142 27.5777 6.298 27.5777 6.526C27.5777 6.622 27.5597 6.703 27.5237 6.769C27.4877 6.835 27.4277 6.886 27.3437 6.922C27.2657 6.958 27.1697 6.985 27.0557 7.003C26.9417 7.015 26.8007 7.021 26.6327 7.021H26.4707V8.011C26.4707 8.107 26.4737 8.188 26.4797 8.254C26.4917 8.314 26.5067 8.362 26.5247 8.398C26.5427 8.434 26.5667 8.458 26.5967 8.47C26.6327 8.482 26.6747 8.488 26.7227 8.488C26.7947 8.488 26.8547 8.464 26.9027 8.416C26.9507 8.362 26.9867 8.305 27.0107 8.245C27.0407 8.179 27.0767 8.122 27.1187 8.074C27.1667 8.02 27.2207 7.993 27.2807 7.993C27.4187 7.993 27.5237 8.026 27.5957 8.092C27.6737 8.158 27.7127 8.239 27.7127 8.335C27.7127 8.497 27.6797 8.671 27.6137 8.857C27.5537 9.043 27.4637 9.223 27.3437 9.397C27.2237 9.571 27.0557 9.715 26.8397 9.829C26.6297 9.943 26.3927 10 26.1287 10C25.5347 10 25.1147 9.85 24.8687 9.55C24.6227 9.25 24.4997 8.758 24.4997 8.074ZM31.2898 7.867C31.2898 7.555 31.2508 7.282 31.1728 7.048C31.0948 6.808 30.9808 6.688 30.8308 6.688C30.7288 6.688 30.6388 6.748 30.5608 6.868C30.4828 6.988 30.4258 7.135 30.3898 7.309C30.3538 7.483 30.3358 7.669 30.3358 7.867C30.3358 8.173 30.3778 8.443 30.4618 8.677C30.5458 8.905 30.6658 9.019 30.8218 9.019C30.9778 9.019 31.0948 8.905 31.1728 8.677C31.2508 8.449 31.2898 8.179 31.2898 7.867ZM30.8218 10.063C30.3538 10.063 29.9308 9.979 29.5528 9.811C29.1808 9.643 28.8808 9.391 28.6528 9.055C28.4308 8.719 28.3198 8.326 28.3198 7.876C28.3198 7.192 28.5538 6.649 29.0218 6.247C29.4898 5.845 30.0898 5.644 30.8218 5.644C31.5538 5.644 32.1508 5.845 32.6128 6.247C33.0748 6.649 33.3058 7.192 33.3058 7.876C33.3058 8.554 33.0688 9.088 32.5947 9.478C32.1268 9.868 31.5358 10.063 30.8218 10.063ZM36.0495 10.522C36.0495 11.008 35.9685 11.353 35.8065 11.557C35.6445 11.767 35.3955 11.872 35.0595 11.872C34.7235 11.872 34.4775 11.776 34.3215 11.584C34.1655 11.398 34.0875 11.065 34.0875 10.585L34.0695 6.787C34.0695 6.415 34.1595 6.142 34.3395 5.968C34.5195 5.794 34.7595 5.707 35.0595 5.707C35.2935 5.707 35.4825 5.737 35.6265 5.797C35.7705 5.851 35.8785 5.962 35.9505 6.13C36.3645 5.806 36.8085 5.644 37.2825 5.644C37.7625 5.644 38.1555 5.845 38.4615 6.247C38.7675 6.649 38.9205 7.195 38.9205 7.885C38.9205 8.557 38.7645 9.088 38.4525 9.478C38.1405 9.862 37.7475 10.054 37.2735 10.054C36.8175 10.054 36.4095 9.952 36.0495 9.748V10.522ZM36.0495 8.695C36.1515 8.863 36.2865 8.947 36.4545 8.947C36.6165 8.947 36.7425 8.839 36.8325 8.623C36.9225 8.407 36.9675 8.161 36.9675 7.885C36.9675 7.591 36.9195 7.33 36.8235 7.102C36.7275 6.874 36.6015 6.76 36.4455 6.76C36.2835 6.76 36.1515 6.847 36.0495 7.021V8.695ZM39.6233 4.456C39.6233 4.258 39.7073 4.096 39.8753 3.97C40.0493 3.838 40.2923 3.772 40.6043 3.772C41.2583 3.772 41.5853 4 41.5853 4.456C41.5853 4.708 41.5013 4.885 41.3333 4.987C41.1713 5.089 40.9283 5.14 40.6043 5.14C40.3223 5.14 40.0883 5.086 39.9023 4.978C39.7163 4.87 39.6233 4.696 39.6233 4.456ZM41.5763 9.037C41.5763 9.397 41.5013 9.649 41.3513 9.793C41.2013 9.931 40.9373 10 40.5593 10C40.2053 10 39.9623 9.919 39.8303 9.757C39.7043 9.589 39.6413 9.316 39.6413 8.938V6.724C39.6413 6.418 39.7223 6.172 39.8843 5.986C40.0523 5.8 40.2743 5.707 40.5503 5.707C40.8743 5.707 41.1263 5.779 41.3063 5.923C41.4863 6.061 41.5763 6.319 41.5763 6.697V9.037ZM44.0035 10.054C43.5295 10.054 43.1365 9.862 42.8245 9.478C42.5125 9.088 42.3565 8.557 42.3565 7.885C42.3565 7.201 42.5095 6.658 42.8155 6.256C43.1275 5.848 43.5235 5.644 44.0035 5.644C44.4895 5.644 44.9395 5.815 45.3535 6.157C45.5155 5.857 45.7765 5.707 46.1365 5.707C46.4605 5.707 46.7125 5.779 46.8925 5.923C47.0725 6.061 47.1625 6.319 47.1625 6.697V9.037C47.1625 9.397 47.0875 9.649 46.9375 9.793C46.7875 9.931 46.5235 10 46.1455 10C45.7495 10 45.4885 9.889 45.3625 9.667C44.9785 9.925 44.5255 10.054 44.0035 10.054ZM45.2275 7.021C45.1255 6.847 44.9935 6.76 44.8315 6.76C44.6755 6.76 44.5495 6.874 44.4535 7.102C44.3575 7.33 44.3095 7.591 44.3095 7.885C44.3095 8.161 44.3545 8.407 44.4445 8.623C44.5345 8.839 44.6605 8.947 44.8225 8.947C44.9905 8.947 45.1255 8.866 45.2275 8.704V7.021Z" fill="white"/>
<path d="M8.52252 2.46437C8.78316 2.20311 8.94437 1.8426 8.94437 1.44438C8.94437 0.646651 8.29772 -3.33786e-05 7.50002 -3.33786e-05C6.9957 -3.33786e-05 6.55231 0.258801 6.29397 0.650486C6.2254 0.719275 0.475571 7.806 0.421877 7.8874C0.161234 8.14869 0 8.5092 0 8.90742C0 9.70512 0.646683 10.3518 1.44438 10.3518C1.94867 10.3518 2.39206 10.093 2.6504 9.70132C2.719 9.63253 8.46883 2.5458 8.52252 2.46437Z" fill="white"/>
<path d="M11.8496 5.82699C12.1109 5.56561 12.2725 5.20457 12.2725 4.8058C12.2725 4.0081 11.6259 3.36142 10.8281 3.36142C10.3236 3.36142 9.88008 3.6205 9.6218 4.01249C9.55258 4.08171 6.53265 7.80419 6.47858 7.88624C6.21727 8.14762 6.05566 8.50865 6.05566 8.90742C6.05566 9.70512 6.70235 10.3518 7.50005 10.3518C8.00455 10.3518 8.44809 10.0927 8.70637 9.70074C8.77559 9.63152 11.7955 5.90903 11.8496 5.82699Z" fill="white"/>
<path d="M14.9999 1.44438C14.9999 2.24208 14.3533 2.88873 13.5556 2.88873C12.7579 2.88873 12.1112 2.24208 12.1112 1.44438C12.1112 0.64665 12.7579 -1.43051e-06 13.5556 -1.43051e-06C14.3533 -1.43051e-06 14.9999 0.64665 14.9999 1.44438Z" fill="white"/>
<path d="M2.88877 1.44438C2.88877 2.24208 2.24208 2.88873 1.44438 2.88873C0.646683 2.88873 0 2.24208 0 1.44438C0 0.64665 0.646683 -1.43051e-06 1.44438 -1.43051e-06C2.24208 -1.43051e-06 2.88877 0.64665 2.88877 1.44438Z" fill="white"/>
</svg>
