<svg width="354" height="338" viewBox="0 0 354 338" fill="none" xmlns="http://www.w3.org/2000/svg">
<g clip-path="url(#clip0_13_719)">
<path d="M320.257 57.7605C320.257 57.7605 298.271 8.30649 249.719 0.97998C201.167 -6.34656 167.272 29.3702 131.545 47.6866C112.835 57.2788 91.4653 53.5533 71.6026 58.1955C8.09262 73.0418 -15.8317 166.05 10.6226 218.944C33.5249 264.735 73.8323 288.546 135.209 294.041C196.587 299.536 239.642 305.946 294.607 261.072C349.572 216.197 345.907 122.783 320.257 57.7605Z" fill="#73CD91"/>
<path d="M193.035 297.912C175.102 297.911 156.225 295.923 135.209 294.041C73.8323 288.546 33.5249 264.735 10.6226 218.944C3.47287 204.649 0.00322278 187.424 2.18872e-06 169.603C-0.00858604 121.486 25.2573 69.0288 71.6026 58.1956C91.4653 53.5533 112.835 57.2789 131.545 47.6866C164.026 31.0343 194.987 0.00375366 236.828 0.00375366C241.011 0.00375366 245.306 0.314209 249.719 0.980011C298.271 8.30652 320.257 57.7606 320.257 57.7606C331.278 85.7003 338.241 118.881 338.237 151.201C338.232 194.099 325.954 235.479 294.607 261.072C258.462 290.581 227.476 297.913 193.035 297.912Z" fill="#D9F1DC"/>
<path d="M306.058 121.258V129.194C306.058 129.315 306.107 129.433 306.192 129.518C306.277 129.603 306.395 129.652 306.516 129.652H338.884C339.137 129.652 339.342 129.447 339.342 129.194C339.342 128.941 339.137 128.736 338.884 128.736H306.974V121.258C306.974 121.005 306.769 120.8 306.516 120.8C306.263 120.8 306.058 121.005 306.058 121.258Z" fill="#17282F"/>
<path d="M321.936 131.026V139.726H302.241C301.988 139.726 301.783 139.931 301.783 140.184C301.783 140.437 301.988 140.642 302.241 140.642H322.394C322.515 140.642 322.633 140.593 322.718 140.508C322.804 140.423 322.852 140.305 322.852 140.184V131.026C322.852 130.773 322.647 130.568 322.394 130.568C322.142 130.568 321.936 130.773 321.936 131.026Z" fill="#17282F"/>
<path d="M306.669 143.237V150.564C306.669 150.684 306.718 150.802 306.803 150.887C306.888 150.972 307.006 151.022 307.127 151.022H333.387C333.64 151.022 333.845 150.816 333.845 150.564C333.845 150.311 333.64 150.106 333.387 150.106H307.585V143.237C307.585 142.984 307.38 142.779 307.127 142.779C306.874 142.779 306.669 142.984 306.669 143.237Z" fill="#17282F"/>
<path d="M330.945 141.253H345.602C345.855 141.253 346.06 141.047 346.06 140.795C346.06 140.541 345.855 140.337 345.602 140.337H330.945C330.692 140.337 330.487 140.541 330.487 140.795C330.487 141.047 330.692 141.253 330.945 141.253Z" fill="#17282F"/>
<path d="M321.936 154.227V164.606C321.936 164.859 322.142 165.064 322.394 165.064C322.647 165.064 322.852 164.859 322.852 164.606V154.227C322.852 153.973 322.647 153.769 322.394 153.769C322.142 153.769 321.936 153.973 321.936 154.227Z" fill="#17282F"/>
<path d="M343.006 127.973V120.036C343.006 119.783 342.801 119.578 342.548 119.578C342.295 119.578 342.09 119.783 342.09 120.036V127.973C342.09 128.226 342.295 128.431 342.548 128.431C342.801 128.431 343.006 128.226 343.006 127.973Z" fill="#17282F"/>
<path d="M324.074 117.594V109.046C324.074 108.793 323.869 108.588 323.616 108.588C323.364 108.588 323.158 108.793 323.158 109.046V117.594C323.158 117.847 323.364 118.052 323.616 118.052C323.869 118.052 324.074 117.847 324.074 117.594Z" fill="#17282F"/>
<path d="M334.609 119.273H353.541C353.794 119.273 353.999 119.068 353.999 118.815C353.999 118.561 353.794 118.357 353.541 118.357H334.609C334.357 118.357 334.151 118.561 334.151 118.815C334.151 119.068 334.357 119.273 334.609 119.273Z" fill="#17282F"/>
<path d="M271.858 34.5592V42.4975C271.858 42.6175 271.907 42.7357 271.992 42.8208C272.077 42.906 272.195 42.9554 272.316 42.9554H304.684C304.937 42.9554 305.142 42.7503 305.142 42.4975C305.142 42.2439 304.937 42.0396 304.684 42.0396H272.774V34.5592C272.774 34.3074 272.569 34.1022 272.316 34.1022C272.063 34.1022 271.858 34.3074 271.858 34.5592Z" fill="#17282F"/>
<path d="M287.736 44.3291V53.0294H268.041C267.788 53.0294 267.583 53.2336 267.583 53.4873C267.583 53.74 267.788 53.9452 268.041 53.9452H288.194C288.315 53.9452 288.433 53.8957 288.518 53.8106C288.604 53.7254 288.652 53.6073 288.652 53.4873V44.3291C288.652 44.0754 288.447 43.8712 288.194 43.8712C287.942 43.8712 287.736 44.0754 287.736 44.3291Z" fill="#17282F"/>
<path d="M272.468 56.5388V63.8653C272.468 63.9862 272.517 64.1044 272.602 64.1895C272.687 64.2747 272.805 64.3232 272.926 64.3232H299.187C299.44 64.3232 299.645 64.119 299.645 63.8653C299.645 63.6135 299.44 63.4074 299.187 63.4074H273.384V56.5388C273.384 56.287 273.179 56.0818 272.926 56.0818C272.673 56.0818 272.468 56.287 272.468 56.5388Z" fill="#17282F"/>
<path d="M296.744 54.5552H311.401C311.654 54.5552 311.86 54.35 311.86 54.0973C311.86 53.8445 311.654 53.6394 311.401 53.6394H296.744C296.491 53.6394 296.286 53.8445 296.286 54.0973C296.286 54.35 296.491 54.5552 296.744 54.5552Z" fill="#17282F"/>
<path d="M287.736 67.5286V77.9084C287.736 78.1612 287.942 78.3663 288.194 78.3663C288.447 78.3663 288.653 78.1612 288.653 77.9084V67.5286C288.653 67.2767 288.447 67.0707 288.194 67.0707C287.942 67.0707 287.736 67.2767 287.736 67.5286Z" fill="#17282F"/>
<path d="M308.806 41.2757V33.3393C308.806 33.0856 308.601 32.8814 308.348 32.8814C308.095 32.8814 307.89 33.0856 307.89 33.3393V41.2757C307.89 41.5285 308.095 41.7336 308.348 41.7336C308.601 41.7336 308.806 41.5285 308.806 41.2757Z" fill="#17282F"/>
<path d="M289.874 30.8959V22.3495C289.874 22.0958 289.668 21.8916 289.416 21.8916C289.163 21.8916 288.958 22.0958 288.958 22.3495V30.8959C288.958 31.1495 289.163 31.3538 289.416 31.3538C289.668 31.3538 289.874 31.1495 289.874 30.8959Z" fill="#17282F"/>
<path d="M300.409 32.5756H319.341C319.594 32.5756 319.799 32.3704 319.799 32.1177C319.799 31.8649 319.594 31.6597 319.341 31.6597H300.409C300.156 31.6597 299.951 31.8649 299.951 32.1177C299.951 32.3704 300.156 32.5756 300.409 32.5756Z" fill="#17282F"/>
<path d="M176.586 235.429V243.366C176.586 243.487 176.634 243.605 176.72 243.69C176.805 243.775 176.923 243.824 177.044 243.824H209.412C209.665 243.824 209.87 243.619 209.87 243.366C209.87 243.113 209.665 242.908 209.412 242.908H177.502V235.429C177.502 235.176 177.297 234.971 177.044 234.971C176.791 234.971 176.586 235.176 176.586 235.429Z" fill="#17282F"/>
<path d="M192.464 245.198V253.898H172.769C172.516 253.898 172.311 254.103 172.311 254.356C172.311 254.609 172.516 254.814 172.769 254.814H192.922C193.043 254.814 193.161 254.765 193.246 254.68C193.332 254.595 193.38 254.477 193.38 254.356V245.198C193.38 244.945 193.175 244.74 192.922 244.74C192.67 244.74 192.464 244.945 192.464 245.198Z" fill="#17282F"/>
<path d="M177.196 257.408V264.735C177.196 264.856 177.245 264.974 177.33 265.059C177.415 265.144 177.533 265.193 177.654 265.193H203.915C204.168 265.193 204.373 264.988 204.373 264.735C204.373 264.482 204.168 264.277 203.915 264.277H178.112V257.408C178.112 257.155 177.907 256.95 177.654 256.95C177.401 256.95 177.196 257.155 177.196 257.408Z" fill="#17282F"/>
<path d="M201.472 255.423H216.129C216.382 255.423 216.587 255.219 216.587 254.966C216.587 254.713 216.382 254.508 216.129 254.508H201.472C201.219 254.508 201.014 254.713 201.014 254.966C201.014 255.219 201.219 255.423 201.472 255.423Z" fill="#17282F"/>
<path d="M192.464 268.398V278.777C192.464 279.03 192.669 279.235 192.922 279.235C193.175 279.235 193.38 279.03 193.38 278.777V268.398C193.38 268.145 193.175 267.94 192.922 267.94C192.669 267.94 192.464 268.145 192.464 268.398Z" fill="#17282F"/>
<path d="M213.534 242.144V234.208C213.534 233.955 213.329 233.75 213.076 233.75C212.823 233.75 212.618 233.955 212.618 234.208V242.144C212.618 242.397 212.823 242.602 213.076 242.602C213.329 242.602 213.534 242.397 213.534 242.144Z" fill="#17282F"/>
<path d="M194.602 231.765V223.218C194.602 222.965 194.396 222.76 194.143 222.76C193.891 222.76 193.685 222.965 193.685 223.218V231.765C193.685 232.018 193.891 232.223 194.143 232.223C194.396 232.223 194.602 232.018 194.602 231.765Z" fill="#17282F"/>
<path d="M205.136 233.444H224.069C224.322 233.444 224.527 233.239 224.527 232.986C224.527 232.733 224.322 232.528 224.069 232.528H205.136C204.884 232.528 204.678 232.733 204.678 232.986C204.678 233.239 204.884 233.444 205.136 233.444Z" fill="#17282F"/>
<path d="M33.6773 201.239V209.175C33.6773 209.296 33.726 209.414 33.8115 209.499C33.8967 209.584 34.0148 209.633 34.1353 209.633H66.5037C66.7563 209.633 66.9613 209.428 66.9613 209.175C66.9613 208.922 66.7563 208.717 66.5037 208.717H34.5934V201.239C34.5934 200.986 34.3884 200.781 34.1353 200.781C33.8823 200.781 33.6773 200.986 33.6773 201.239Z" fill="#17282F"/>
<path d="M49.5562 211.007V219.707H29.8606C29.6072 219.707 29.4025 219.912 29.4025 220.165C29.4025 220.418 29.6072 220.623 29.8606 220.623H50.0143C50.1345 220.623 50.2526 220.574 50.3377 220.489C50.4233 220.404 50.4723 220.286 50.4723 220.165V211.007C50.4723 210.754 50.2669 210.549 50.0143 210.549C49.7609 210.549 49.5562 210.754 49.5562 211.007Z" fill="#17282F"/>
<path d="M34.2881 223.218V230.545C34.2881 230.666 34.3372 230.784 34.4224 230.869C34.5075 230.954 34.6256 231.003 34.7462 231.003H61.0072C61.2599 231.003 61.4652 230.797 61.4652 230.545C61.4652 230.292 61.2599 230.087 61.0072 230.087H35.2042V223.218C35.2042 222.965 34.9992 222.76 34.7462 222.76C34.4932 222.76 34.2881 222.965 34.2881 223.218Z" fill="#17282F"/>
<path d="M58.5642 221.234H73.2215C73.4745 221.234 73.6795 221.028 73.6795 220.776C73.6795 220.523 73.4745 220.318 73.2215 220.318H58.5642C58.3112 220.318 58.1062 220.523 58.1062 220.776C58.1062 221.028 58.3112 221.234 58.5642 221.234Z" fill="#17282F"/>
<path d="M49.5562 234.208V244.587C49.5562 244.84 49.7609 245.045 50.0143 245.045C50.2669 245.045 50.4723 244.84 50.4723 244.587V234.208C50.4723 233.955 50.2669 233.75 50.0143 233.75C49.7609 233.75 49.5562 233.955 49.5562 234.208Z" fill="#17282F"/>
<path d="M70.626 207.954V200.017C70.626 199.764 70.4207 199.559 70.168 199.559C69.9146 199.559 69.71 199.764 69.71 200.017V207.954C69.71 208.207 69.9146 208.412 70.168 208.412C70.4207 208.412 70.626 208.207 70.626 207.954Z" fill="#17282F"/>
<path d="M51.6937 197.575V189.027C51.6937 188.774 51.4886 188.569 51.2356 188.569C50.9826 188.569 50.7776 188.774 50.7776 189.027V197.575C50.7776 197.828 50.9826 198.033 51.2356 198.033C51.4886 198.033 51.6937 197.828 51.6937 197.575Z" fill="#17282F"/>
<path d="M62.2285 199.254H81.1609C81.4136 199.254 81.619 199.049 81.619 198.796C81.619 198.543 81.4136 198.338 81.1609 198.338H62.2285C61.9755 198.338 61.7705 198.543 61.7705 198.796C61.7705 199.049 61.9755 199.254 62.2285 199.254Z" fill="#17282F"/>
<path d="M214.45 257.408V265.345C214.45 265.466 214.499 265.585 214.584 265.67C214.669 265.755 214.787 265.803 214.908 265.803H247.276C247.529 265.803 247.734 265.598 247.734 265.345C247.734 265.093 247.529 264.887 247.276 264.887H215.366V257.408C215.366 257.155 215.161 256.95 214.908 256.95C214.655 256.95 214.45 257.155 214.45 257.408Z" fill="#17282F"/>
<path d="M230.329 267.177V275.877H210.633C210.38 275.877 210.175 276.083 210.175 276.335C210.175 276.588 210.38 276.793 210.633 276.793H230.787C230.908 276.793 231.025 276.745 231.11 276.66C231.196 276.575 231.245 276.456 231.245 276.335V267.177C231.245 266.925 231.039 266.719 230.787 266.719C230.534 266.719 230.329 266.925 230.329 267.177Z" fill="#17282F"/>
<path d="M215.061 279.388V286.714C215.061 286.835 215.11 286.953 215.195 287.038C215.28 287.123 215.398 287.172 215.519 287.172H241.78C242.032 287.172 242.238 286.967 242.238 286.714C242.238 286.461 242.032 286.256 241.78 286.256H215.977V279.388C215.977 279.135 215.772 278.93 215.519 278.93C215.266 278.93 215.061 279.135 215.061 279.388Z" fill="#17282F"/>
<path d="M239.337 277.403H253.994C254.247 277.403 254.453 277.198 254.453 276.945C254.453 276.693 254.247 276.487 253.994 276.487H239.337C239.084 276.487 238.879 276.693 238.879 276.945C238.879 277.198 239.084 277.403 239.337 277.403Z" fill="#17282F"/>
<path d="M230.329 290.378V300.756C230.329 301.009 230.534 301.214 230.787 301.214C231.039 301.214 231.245 301.009 231.245 300.756V290.378C231.245 290.125 231.039 289.92 230.787 289.92C230.534 289.92 230.329 290.125 230.329 290.378Z" fill="#17282F"/>
<path d="M251.398 264.124V256.187C251.398 255.935 251.193 255.729 250.94 255.729C250.688 255.729 250.482 255.935 250.482 256.187V264.124C250.482 264.377 250.688 264.582 250.94 264.582C251.193 264.582 251.398 264.377 251.398 264.124Z" fill="#17282F"/>
<path d="M232.467 253.745V245.198C232.467 244.945 232.261 244.74 232.009 244.74C231.756 244.74 231.551 244.945 231.551 245.198V253.745C231.551 253.998 231.756 254.203 232.009 254.203C232.261 254.203 232.467 253.998 232.467 253.745Z" fill="#17282F"/>
<path d="M243.002 255.423H261.933C262.186 255.423 262.391 255.219 262.391 254.966C262.391 254.713 262.186 254.508 261.933 254.508H243.002C242.749 254.508 242.544 254.713 242.544 254.966C242.544 255.219 242.749 255.423 243.002 255.423Z" fill="#17282F"/>
<path d="M95.9702 257.408V265.345C95.9702 265.466 96.0196 265.585 96.1048 265.67C96.19 265.755 96.3082 265.803 96.4282 265.803H128.797C129.05 265.803 129.255 265.598 129.255 265.345C129.255 265.093 129.05 264.887 128.797 264.887H96.8862V257.408C96.8862 257.155 96.6819 256.95 96.4282 256.95C96.1754 256.95 95.9702 257.155 95.9702 257.408Z" fill="#17282F"/>
<path d="M111.849 267.177V275.877H92.1538C91.9009 275.877 91.6957 276.083 91.6957 276.335C91.6957 276.588 91.9009 276.793 92.1538 276.793H112.307C112.428 276.793 112.546 276.745 112.631 276.66C112.717 276.575 112.766 276.456 112.766 276.335V267.177C112.766 266.925 112.56 266.719 112.307 266.719C112.055 266.719 111.849 266.925 111.849 267.177Z" fill="#17282F"/>
<path d="M96.5812 279.388V286.714C96.5812 286.835 96.6306 286.953 96.7158 287.038C96.801 287.123 96.9192 287.172 97.0392 287.172H123.3C123.553 287.172 123.758 286.967 123.758 286.714C123.758 286.461 123.553 286.256 123.3 286.256H97.4973V279.388C97.4973 279.135 97.293 278.93 97.0392 278.93C96.7864 278.93 96.5812 279.135 96.5812 279.388Z" fill="#17282F"/>
<path d="M120.857 277.403H135.515C135.768 277.403 135.973 277.198 135.973 276.945C135.973 276.693 135.768 276.487 135.515 276.487H120.857C120.604 276.487 120.399 276.693 120.399 276.945C120.399 277.198 120.604 277.403 120.857 277.403Z" fill="#17282F"/>
<path d="M111.849 290.378V300.756C111.849 301.009 112.055 301.214 112.307 301.214C112.56 301.214 112.766 301.009 112.766 300.756V290.378C112.766 290.125 112.56 289.92 112.307 289.92C112.055 289.92 111.849 290.125 111.849 290.378Z" fill="#17282F"/>
<path d="M132.919 264.124V256.187C132.919 255.935 132.714 255.729 132.461 255.729C132.208 255.729 132.003 255.935 132.003 256.187V264.124C132.003 264.377 132.208 264.582 132.461 264.582C132.714 264.582 132.919 264.377 132.919 264.124Z" fill="#17282F"/>
<path d="M113.987 253.745V245.198C113.987 244.945 113.782 244.74 113.529 244.74C113.276 244.74 113.071 244.945 113.071 245.198V253.745C113.071 253.998 113.276 254.203 113.529 254.203C113.782 254.203 113.987 253.998 113.987 253.745Z" fill="#17282F"/>
<path d="M124.522 255.423H143.454C143.707 255.423 143.912 255.219 143.912 254.966C143.912 254.713 143.707 254.508 143.454 254.508H124.522C124.269 254.508 124.064 254.713 124.064 254.966C124.064 255.219 124.269 255.423 124.522 255.423Z" fill="#17282F"/>
<path d="M11.6914 121.258V129.194C11.6914 129.315 11.7401 129.433 11.8256 129.518C11.9108 129.603 12.0289 129.652 12.1495 129.652H44.5178C44.7705 129.652 44.9758 129.447 44.9758 129.194C44.9758 128.941 44.7705 128.736 44.5178 128.736H12.6075V121.258C12.6075 121.004 12.4025 120.8 12.1495 120.8C11.8965 120.8 11.6914 121.004 11.6914 121.258Z" fill="#17282F"/>
<path d="M27.5704 131.026V139.726H7.87433C7.62169 139.726 7.41629 139.931 7.41629 140.184C7.41629 140.437 7.62169 140.642 7.87433 140.642H28.0284C28.1486 140.642 28.2668 140.593 28.3519 140.508C28.4374 140.423 28.4865 140.305 28.4865 140.184V131.026C28.4865 130.773 28.2811 130.568 28.0284 130.568C27.775 130.568 27.5704 130.773 27.5704 131.026Z" fill="#17282F"/>
<path d="M12.3023 143.237V150.564C12.3023 150.684 12.3513 150.802 12.4365 150.887C12.5217 150.972 12.6398 151.022 12.7603 151.022H39.0213C39.274 151.022 39.4794 150.816 39.4794 150.564C39.4794 150.311 39.274 150.106 39.0213 150.106H13.2184V143.237C13.2184 142.984 13.0133 142.779 12.7603 142.779C12.5073 142.779 12.3023 142.984 12.3023 143.237Z" fill="#17282F"/>
<path d="M36.5783 141.253H51.2356C51.4886 141.253 51.6936 141.047 51.6936 140.795C51.6936 140.541 51.4886 140.337 51.2356 140.337H36.5783C36.3253 140.337 36.1203 140.541 36.1203 140.795C36.1203 141.047 36.3253 141.253 36.5783 141.253Z" fill="#17282F"/>
<path d="M27.5704 154.227V164.606C27.5704 164.859 27.775 165.064 28.0284 165.064C28.2811 165.064 28.4865 164.859 28.4865 164.606V154.227C28.4865 153.973 28.2811 153.769 28.0284 153.769C27.775 153.769 27.5704 153.973 27.5704 154.227Z" fill="#17282F"/>
<path d="M48.6401 127.973V120.036C48.6401 119.783 48.4348 119.578 48.1821 119.578C47.9287 119.578 47.7241 119.783 47.7241 120.036V127.973C47.7241 128.226 47.9287 128.431 48.1821 128.431C48.4348 128.431 48.6401 128.226 48.6401 127.973Z" fill="#17282F"/>
<path d="M29.7078 117.594V109.046C29.7078 108.793 29.5027 108.588 29.2497 108.588C28.9967 108.588 28.7917 108.793 28.7917 109.046V117.594C28.7917 117.847 28.9967 118.052 29.2497 118.052C29.5027 118.052 29.7078 117.847 29.7078 117.594Z" fill="#17282F"/>
<path d="M40.2426 119.273H59.175C59.4277 119.273 59.6331 119.068 59.6331 118.815C59.6331 118.561 59.4277 118.357 59.175 118.357H40.2426C39.9896 118.357 39.7846 118.561 39.7846 118.815C39.7846 119.068 39.9896 119.273 40.2426 119.273Z" fill="#17282F"/>
<path d="M64.824 48.6023V56.5388C64.824 56.6597 64.8726 56.7778 64.9582 56.863C65.0434 56.9482 65.1615 56.9967 65.282 56.9967H97.6502C97.9031 56.9967 98.1083 56.7925 98.1083 56.5388C98.1083 56.2869 97.9031 56.0809 97.6502 56.0809H65.7401V48.6023C65.7401 48.3496 65.535 48.1444 65.282 48.1444C65.029 48.1444 64.824 48.3496 64.824 48.6023Z" fill="#17282F"/>
<path d="M80.7029 58.3704V67.0706H61.0072C60.7538 67.0706 60.5492 67.2767 60.5492 67.5285C60.5492 67.7822 60.7538 67.9865 61.0072 67.9865H81.1609C81.2811 67.9865 81.3993 67.9379 81.4844 67.8527C81.57 67.7676 81.619 67.6494 81.619 67.5285V58.3704C81.619 58.1185 81.4136 57.9125 81.1609 57.9125C80.9076 57.9125 80.7029 58.1185 80.7029 58.3704Z" fill="#17282F"/>
<path d="M65.4348 70.5819V77.9084C65.4348 78.0293 65.4838 78.1475 65.569 78.2326C65.6542 78.3178 65.7723 78.3663 65.8929 78.3663H92.1538C92.4066 78.3663 92.6118 78.1612 92.6118 77.9084C92.6118 77.6557 92.4066 77.4505 92.1538 77.4505H66.3509V70.5819C66.3509 70.3291 66.1459 70.124 65.8929 70.124C65.6398 70.124 65.4348 70.3291 65.4348 70.5819Z" fill="#17282F"/>
<path d="M89.7108 68.5983H104.368C104.622 68.5983 104.826 68.3931 104.826 68.1404C104.826 67.8867 104.622 67.6825 104.368 67.6825H89.7108C89.4578 67.6825 89.2528 67.8867 89.2528 68.1404C89.2528 68.3931 89.4578 68.5983 89.7108 68.5983Z" fill="#17282F"/>
<path d="M80.7029 81.5717V91.9515C80.7029 92.2043 80.9075 92.4094 81.1609 92.4094C81.4136 92.4094 81.619 92.2043 81.619 91.9515V81.5717C81.619 81.3189 81.4136 81.1137 81.1609 81.1137C80.9075 81.1137 80.7029 81.3189 80.7029 81.5717Z" fill="#17282F"/>
<path d="M101.773 55.3189V47.3806C101.773 47.1288 101.567 46.9227 101.315 46.9227C101.062 46.9227 100.857 47.1288 100.857 47.3806V55.3189C100.857 55.5717 101.062 55.7769 101.315 55.7769C101.567 55.7769 101.773 55.5717 101.773 55.3189Z" fill="#17282F"/>
<path d="M82.8403 44.9391V36.3908C82.8403 36.139 82.6353 35.9329 82.3822 35.9329C82.1292 35.9329 81.9242 36.139 81.9242 36.3908V44.9391C81.9242 45.1918 82.1292 45.397 82.3822 45.397C82.6353 45.397 82.8403 45.1918 82.8403 44.9391Z" fill="#17282F"/>
<path d="M93.3749 46.6187H112.307C112.56 46.6187 112.766 46.4135 112.766 46.1607C112.766 45.9071 112.56 45.7028 112.307 45.7028H93.3749C93.1221 45.7028 92.9169 45.9071 92.9169 46.1607C92.9169 46.4135 93.1221 46.6187 93.3749 46.6187Z" fill="#17282F"/>
<path d="M267.583 182.922V190.859C267.583 190.98 267.631 191.098 267.716 191.183C267.802 191.268 267.92 191.317 268.041 191.317H300.409C300.661 191.317 300.867 191.111 300.867 190.859C300.867 190.606 300.661 190.401 300.409 190.401H268.499V182.922C268.499 182.669 268.294 182.464 268.041 182.464C267.788 182.464 267.583 182.669 267.583 182.922Z" fill="#17282F"/>
<path d="M283.461 192.69V201.391H263.765C263.513 201.391 263.307 201.596 263.307 201.848C263.307 202.101 263.513 202.306 263.765 202.306H283.919C284.04 202.306 284.157 202.258 284.243 202.173C284.329 202.088 284.377 201.969 284.377 201.848V192.69C284.377 192.438 284.172 192.232 283.919 192.232C283.666 192.232 283.461 192.438 283.461 192.69Z" fill="#17282F"/>
<path d="M268.194 204.902V212.228C268.194 212.349 268.242 212.467 268.327 212.553C268.413 212.638 268.531 212.686 268.652 212.686H294.912C295.165 212.686 295.37 212.481 295.37 212.228C295.37 211.976 295.165 211.77 294.912 211.77H269.11V204.902C269.11 204.649 268.905 204.444 268.652 204.444C268.399 204.444 268.194 204.649 268.194 204.902Z" fill="#17282F"/>
<path d="M292.47 202.917H307.127C307.38 202.917 307.585 202.712 307.585 202.459C307.585 202.207 307.38 202.001 307.127 202.001H292.47C292.217 202.001 292.012 202.207 292.012 202.459C292.012 202.712 292.217 202.917 292.47 202.917Z" fill="#17282F"/>
<path d="M283.461 215.892V226.27C283.461 226.523 283.666 226.728 283.919 226.728C284.172 226.728 284.377 226.523 284.377 226.27V215.892C284.377 215.639 284.172 215.434 283.919 215.434C283.666 215.434 283.461 215.639 283.461 215.892Z" fill="#17282F"/>
<path d="M304.531 189.638V181.701C304.531 181.448 304.326 181.243 304.073 181.243C303.82 181.243 303.615 181.448 303.615 181.701V189.638C303.615 189.891 303.82 190.096 304.073 190.096C304.326 190.096 304.531 189.891 304.531 189.638Z" fill="#17282F"/>
<path d="M285.599 179.259V170.711C285.599 170.458 285.394 170.253 285.141 170.253C284.888 170.253 284.683 170.458 284.683 170.711V179.259C284.683 179.512 284.888 179.717 285.141 179.717C285.394 179.717 285.599 179.512 285.599 179.259Z" fill="#17282F"/>
<path d="M296.134 180.938H315.066C315.319 180.938 315.524 180.732 315.524 180.48C315.524 180.227 315.319 180.022 315.066 180.022H296.134C295.881 180.022 295.676 180.227 295.676 180.48C295.676 180.732 295.881 180.938 296.134 180.938Z" fill="#17282F"/>
<path d="M27.1123 307.32H338.579C338.832 307.32 339.037 307.115 339.037 306.862C339.037 306.609 338.832 306.404 338.579 306.404H27.1123C26.8589 306.404 26.6539 306.609 26.6539 306.862C26.6539 307.115 26.8589 307.32 27.1123 307.32Z" fill="#17282F"/>
<path d="M138.568 322.431C138.568 331.03 116.284 338 88.7948 338C61.3053 338 39.0214 331.03 39.0214 322.431C39.0214 313.832 61.3053 306.862 88.7948 306.862C116.284 306.862 138.568 313.832 138.568 322.431Z" fill="#73CD91"/>
<path d="M88.7948 338C61.3053 338 39.0214 331.03 39.0214 322.431C39.0214 313.832 61.3053 306.862 88.7948 306.862C116.284 306.862 138.568 313.832 138.568 322.431C138.568 331.03 116.284 338 88.7948 338Z" fill="#73CD91"/>
<path d="M100.362 22.3496V227.491H279.913V15.633H141.89L100.362 22.3496Z" fill="#73CD91"/>
<path d="M100.362 22.3496H99.9038V227.949H280.371V15.1751H141.854L99.9038 21.9594V22.3496H100.362L100.435 22.8011L141.927 16.0909H279.455V227.033H100.82V22.3496H100.362Z" fill="#17282F"/>
<path d="M259.089 148.412C259.089 144.549 256.025 141.409 252.194 141.271C252.043 141.319 251.885 141.352 251.718 141.352C251.536 141.352 251.364 141.315 251.2 141.257H251.074V141.211C250.526 140.965 250.142 140.416 250.142 139.775C250.142 139.134 250.526 138.586 251.074 138.339V138.308H251.152C251.329 138.24 251.518 138.199 251.718 138.199C251.886 138.199 252.044 138.232 252.195 138.281C256.028 137.999 259.051 134.809 259.051 130.905V129.202C259.051 125.114 255.736 121.799 251.647 121.799V121.791C250.81 121.753 250.142 121.068 250.142 120.222C250.142 119.376 250.81 118.691 251.647 118.653V118.651L251.668 118.65L251.718 118.646L251.735 118.648C255.489 118.599 258.516 115.547 258.516 111.784V108.637C258.516 104.843 255.441 101.769 251.647 101.769H208.999C208.999 101.769 209.857 95.4737 211.002 91.1813C212.147 86.8889 217.299 80.5936 218.158 72.8677C219.017 65.1419 213.292 50.2618 206.423 48.8313C199.553 47.4008 198.122 52.838 198.408 60.5638C198.695 68.2887 188.104 82.025 180.948 89.1784C173.793 96.3319 165.001 107.93 165.001 107.93L165.491 162.718C165.491 162.718 165.491 162.718 174.364 167.011C183.238 171.303 193.543 171.589 193.543 171.589H246.972C250.133 171.589 252.696 169.027 252.696 165.866V164.436C252.696 161.274 251.61 159.517 249.356 158.713V158.694C248.566 158.61 247.948 157.949 247.948 157.135C247.948 156.321 248.566 155.66 249.356 155.576V155.565H249.463L249.524 155.559L249.585 155.565H251.933C255.885 155.565 259.089 152.361 259.089 148.412Z" fill="white"/>
<path d="M259.089 148.412H261.379C261.381 145.868 260.364 143.541 258.723 141.852C257.085 140.158 254.8 139.073 252.276 138.982C252.004 138.973 251.757 139.006 251.498 139.089L251.718 139.779V139.062C251.579 139.062 251.499 139.089 251.498 139.089L251.718 139.779V139.062V139.785L251.96 139.098C251.939 139.089 251.849 139.062 251.718 139.062V139.785L251.96 139.098C251.721 139.013 251.455 138.968 251.2 138.968H251.074V141.257H253.364V141.211C253.364 140.307 252.838 139.493 252.013 139.122L251.724 139.765L252.312 139.376C252.237 139.263 252.137 139.179 252.013 139.122L251.724 139.765L252.312 139.376L251.709 139.775H252.433C252.434 139.636 252.387 139.487 252.312 139.376L251.709 139.775L252.312 140.175C252.387 140.064 252.434 139.914 252.433 139.775H251.709L252.312 140.175L251.724 139.785L252.013 140.427C252.137 140.372 252.237 140.286 252.312 140.175L251.724 139.785L252.013 140.427C252.838 140.057 253.364 139.244 253.364 138.339V138.308H251.074V140.598H251.152C251.441 140.598 251.707 140.548 251.976 140.444L251.718 139.775V140.489C251.833 140.489 251.929 140.463 251.976 140.444L251.718 139.775V140.489V139.772L251.498 140.461C251.498 140.461 251.582 140.489 251.718 140.489V139.772L251.498 140.461C251.773 140.549 252.075 140.585 252.363 140.564C254.87 140.38 257.122 139.241 258.733 137.514C260.348 135.792 261.343 133.454 261.341 130.905V129.202C261.341 123.848 257.002 119.511 251.647 119.509V121.799H253.937V121.791C253.937 120.568 252.973 119.559 251.751 119.504L251.719 120.213L252.23 119.721C252.111 119.595 251.933 119.511 251.751 119.504L251.719 120.213L252.23 119.721L251.71 120.222H252.433C252.434 120.036 252.351 119.843 252.23 119.721L251.71 120.222H252.433H251.709L252.229 120.724C252.351 120.601 252.434 120.407 252.433 120.222H251.709L252.229 120.724L251.719 120.231L251.751 120.94C251.933 120.933 252.111 120.849 252.229 120.724L251.719 120.231L251.751 120.94C252.973 120.885 253.937 119.876 253.937 118.653V118.651H251.647L251.746 120.939L251.767 120.938L251.888 120.93L251.939 120.924L251.718 118.646L251.539 120.928L251.555 120.93L251.765 120.936C254.26 120.906 256.533 119.868 258.162 118.219C259.793 116.573 260.808 114.285 260.806 111.784V108.637C260.806 103.579 256.707 99.4804 251.647 99.4795H208.999V101.769L211.268 102.079C211.268 102.078 211.28 101.989 211.304 101.813C211.392 101.199 211.63 99.5812 211.967 97.6671C212.303 95.7558 212.744 93.5377 213.215 91.772C213.424 90.9734 213.898 89.879 214.531 88.6198C215.478 86.7222 216.764 84.4418 217.913 81.8528C219.059 79.262 220.075 76.3433 220.434 73.1205C220.503 72.5069 220.534 71.8732 220.534 71.2229C220.532 68.9627 220.161 66.4836 219.516 63.9614C218.544 60.181 216.96 56.3217 214.9 53.142C213.867 51.5531 212.712 50.1308 211.401 48.9824C210.09 47.8403 208.597 46.9493 206.89 46.5903C206.019 46.4089 205.185 46.3128 204.382 46.3128C202.873 46.3082 201.44 46.669 200.254 47.4173C199.364 47.9731 198.638 48.725 198.085 49.563C197.254 50.8268 196.78 52.2692 196.484 53.8179C196.192 55.3683 196.085 57.0434 196.084 58.8237C196.084 59.4199 196.097 60.0289 196.119 60.6489V60.648L196.123 60.8742C196.134 62.3102 195.598 64.3717 194.581 66.6631C193.067 70.1121 190.54 74.0821 187.746 77.7967C184.953 81.5149 181.89 84.9995 179.329 87.5593C175.65 91.239 171.636 95.9637 168.516 99.7909C165.399 103.615 163.187 106.532 163.175 106.547C162.868 106.953 162.706 107.441 162.711 107.951L163.201 162.739C163.209 163.608 163.711 164.401 164.494 164.779C164.495 164.78 164.495 164.78 165.603 165.316C166.712 165.852 168.93 166.926 173.367 169.071C178.099 171.357 183.082 172.534 186.908 173.169C190.734 173.799 193.403 173.875 193.478 173.878L193.543 173.879H246.972C249.178 173.879 251.196 172.978 252.639 171.532C254.086 170.089 254.988 168.071 254.987 165.866V164.436C254.985 162.603 254.68 160.948 253.842 159.525C253.427 158.819 252.878 158.195 252.24 157.698C251.602 157.199 250.883 156.826 250.127 156.557L249.356 158.713H251.647V158.694C251.647 157.527 250.762 156.542 249.6 156.418L249.525 157.121L250.047 156.645C249.934 156.52 249.773 156.436 249.6 156.418L249.525 157.121L250.047 156.645L249.509 157.135H250.238C250.24 156.957 250.162 156.766 250.047 156.645L249.509 157.135H250.238H249.51L250.047 157.625C250.162 157.504 250.24 157.313 250.238 157.135H249.51L250.047 157.625L249.524 157.148L249.599 157.853C249.773 157.834 249.934 157.75 250.047 157.625L249.524 157.148L249.599 157.853C250.76 157.729 251.647 156.744 251.647 155.576V155.565H249.356V157.855H249.463C249.558 157.855 249.598 157.853 249.694 157.843L249.755 157.836L249.524 155.559L249.293 157.836L249.355 157.843C249.45 157.853 249.49 157.855 249.585 157.855H251.933C254.535 157.855 256.91 156.794 258.612 155.089C260.318 153.387 261.381 151.012 261.379 148.412H259.089H256.799C256.798 149.761 256.258 150.963 255.374 151.85C254.486 152.734 253.285 153.275 251.933 153.275H249.585V155.565L249.817 153.287L249.755 153.281C249.59 153.264 249.458 153.264 249.293 153.281L249.231 153.287L249.463 155.565V153.275H249.356C248.754 153.275 248.164 153.52 247.738 153.946C247.311 154.373 247.066 154.962 247.066 155.565V155.576H249.356L249.115 153.299C248.15 153.402 247.283 153.859 246.664 154.538C246.042 155.215 245.655 156.143 245.657 157.135C245.655 158.127 246.043 159.055 246.664 159.731C247.283 160.411 248.149 160.868 249.114 160.971L249.356 158.694H247.066V158.713C247.066 159.681 247.675 160.543 248.587 160.869C248.957 161.001 249.22 161.15 249.419 161.305C249.713 161.543 249.906 161.788 250.093 162.261C250.273 162.731 250.407 163.445 250.406 164.436V165.866C250.405 166.821 250.025 167.666 249.4 168.294C248.771 168.918 247.927 169.299 246.972 169.299H193.543V171.589L193.606 169.3H193.59C193.359 169.292 190.815 169.193 187.319 168.594C183.822 167.999 179.374 166.894 175.362 164.95C170.926 162.804 168.707 161.73 167.598 161.194C166.489 160.658 166.49 160.658 166.489 160.658L165.491 162.718L167.782 162.698L167.291 107.91L165.001 107.93L166.826 109.313C166.826 109.313 166.858 109.271 166.922 109.186C167.407 108.552 169.678 105.592 172.651 101.968C175.623 98.3466 179.309 94.0542 182.567 90.7967C186.211 87.1517 190.642 81.9453 194.234 76.5667C196.029 73.8752 197.612 71.1451 198.773 68.5085C199.929 65.8664 200.693 63.3277 200.704 60.8742C200.704 60.7424 200.702 60.6105 200.696 60.4786C200.675 59.909 200.664 59.3567 200.664 58.8237C200.664 57.4115 200.745 56.1367 200.917 55.0616C201.045 54.2547 201.225 53.5633 201.441 53.0101C201.77 52.174 202.148 51.6886 202.548 51.3919C202.752 51.2417 202.974 51.1272 203.265 51.0384C203.555 50.9505 203.918 50.8918 204.382 50.8918C204.819 50.8918 205.343 50.945 205.955 51.0732C206.422 51.1693 206.945 51.3882 207.514 51.7619C208.508 52.4094 209.606 53.5367 210.625 54.9938C212.162 57.1753 213.526 60.0692 214.472 63.0035C215.425 65.935 215.958 68.9252 215.953 71.2229C215.953 71.7248 215.929 72.1928 215.882 72.615C215.505 76.042 214.137 79.3004 212.639 82.2878C211.892 83.7824 211.118 85.2065 210.434 86.572C209.753 87.9412 209.153 89.2434 208.79 90.5915C208.184 92.8646 207.679 95.5525 207.313 97.7019C206.949 99.8486 206.731 101.443 206.729 101.46C206.64 102.116 206.837 102.776 207.273 103.275C207.709 103.774 208.335 104.059 208.999 104.059H251.647C252.919 104.06 254.049 104.567 254.885 105.399C255.718 106.235 256.225 107.365 256.226 108.637V111.784C256.225 113.045 255.726 114.166 254.905 114.999C254.082 115.829 252.964 116.341 251.706 116.358L251.735 118.648L251.916 116.364L251.899 116.363C251.764 116.352 251.633 116.353 251.498 116.367L251.448 116.372L251.668 118.65L251.568 116.363L251.548 116.364C250.326 116.418 249.356 117.429 249.356 118.651V118.653H251.647L251.543 116.365C250.524 116.411 249.595 116.856 248.932 117.545C248.267 118.231 247.85 119.19 247.852 120.222C247.85 121.253 248.267 122.213 248.932 122.898C249.594 123.587 250.524 124.033 251.543 124.078L251.647 121.791H249.356V121.799C249.356 122.402 249.601 122.992 250.028 123.418C250.454 123.845 251.044 124.088 251.647 124.088C253.067 124.09 254.331 124.657 255.263 125.587C256.192 126.519 256.76 127.783 256.761 129.202V130.905C256.76 132.26 256.243 133.469 255.388 134.388C254.53 135.303 253.352 135.9 252.028 135.997L252.195 138.281L252.892 136.099C252.59 136.003 252.19 135.91 251.718 135.91C251.203 135.909 250.728 136.017 250.327 136.172L251.152 138.308V136.019H251.074C250.471 136.019 249.881 136.263 249.455 136.689C249.028 137.116 248.784 137.705 248.784 138.308V138.339H251.074L250.136 136.251C249.464 136.554 248.897 137.036 248.493 137.644C248.089 138.251 247.851 138.996 247.852 139.775C247.851 140.555 248.089 141.299 248.493 141.907C248.897 142.515 249.464 142.997 250.136 143.299L251.074 141.211H248.784V141.257C248.784 141.86 249.028 142.45 249.455 142.876C249.881 143.302 250.471 143.547 251.074 143.547H251.2V141.257L250.441 143.417C250.787 143.539 251.223 143.641 251.718 143.641C252.191 143.641 252.587 143.548 252.889 143.452L252.194 141.271L252.111 143.559C253.418 143.606 254.581 144.16 255.433 145.037C256.282 145.918 256.798 147.091 256.799 148.412H259.089Z" fill="#17282F"/>
<path d="M160.759 174.069H133.587C130.341 174.069 127.709 171.438 127.709 168.193V106.977C127.709 103.732 130.341 101.101 133.587 101.101H160.759C164.005 101.101 166.636 103.732 166.636 106.977V168.193C166.636 171.438 164.005 174.069 160.759 174.069Z" fill="#17282F"/>
<path d="M130.592 116.373L120.821 87.3725C120.821 87.3725 119.905 83.7092 119.905 82.4875C119.905 81.2659 124.769 74.2553 124.769 74.2553C124.769 74.2553 123.628 70.9785 125.482 70.4089C127.335 69.8383 131.611 73.9705 132.038 74.683C132.466 75.3955 132.323 76.8205 131.753 78.1026C131.183 79.3857 127.335 87.3652 126.765 87.7929C126.194 88.2196 133.463 100.474 138.309 107.314C143.156 114.154 147.432 120.423 146.434 123.131C145.437 125.839 140.875 123.701 137.455 122.133C134.034 120.566 130.613 117.004 130.613 117.004L130.592 116.373Z" fill="white"/>
<path d="M130.592 116.373L131.027 116.227L121.255 87.2259L120.821 87.3724L121.265 87.2607C121.265 87.2607 121.208 87.0354 121.123 86.6755C120.995 86.1352 120.803 85.2954 120.644 84.4821C120.484 83.6734 120.36 82.8703 120.363 82.4875C120.355 82.4756 120.407 82.2448 120.534 81.9645C120.97 80.9489 122.133 79.0587 123.175 77.4587C123.696 76.6565 124.189 75.9201 124.552 75.3853C124.915 74.8496 125.145 74.5171 125.145 74.5162C125.23 74.3953 125.25 74.2433 125.202 74.105L125.19 74.0693C125.13 73.8898 124.878 73.0426 124.88 72.2679C124.879 71.908 124.935 71.5709 125.053 71.3319C125.175 71.092 125.322 70.9418 125.616 70.8465C125.685 70.8255 125.767 70.8126 125.866 70.8126C126.228 70.8072 126.792 71.0004 127.398 71.3383C128.31 71.8402 129.323 72.6351 130.132 73.3614C130.537 73.724 130.892 74.0702 131.16 74.3523C131.426 74.6279 131.617 74.8642 131.646 74.9192C131.752 75.0913 131.831 75.4091 131.829 75.8057C131.83 76.4156 131.657 77.195 131.334 77.9166C131.057 78.5412 129.95 80.8619 128.849 83.0635C128.299 84.1652 127.747 85.2395 127.302 86.0601C127.079 86.4694 126.882 86.8165 126.729 87.0665C126.652 87.1911 126.586 87.2909 126.538 87.3587L126.481 87.431L126.473 87.4402L126.591 87.5602L126.49 87.4264L126.473 87.4402L126.591 87.5602L126.49 87.4264C126.387 87.5034 126.331 87.6078 126.305 87.6865L126.275 87.8889C126.279 88.0675 126.32 88.2049 126.378 88.3835C126.596 89.0291 127.141 90.1208 127.918 91.5485C130.249 95.8153 134.64 102.927 137.936 107.579C140.118 110.658 142.18 113.617 143.688 116.17C144.442 117.446 145.056 118.621 145.478 119.649C145.901 120.677 146.124 121.561 146.122 122.225C146.122 122.518 146.081 122.766 146.004 122.973C145.86 123.355 145.661 123.576 145.393 123.732C145.123 123.886 144.76 123.967 144.309 123.967C143.461 123.97 142.34 123.672 141.169 123.234C139.994 122.798 138.764 122.229 137.645 121.717C136 120.965 134.311 119.703 133.047 118.631C132.414 118.095 131.887 117.607 131.518 117.254C131.333 117.077 131.189 116.934 131.091 116.836C130.993 116.738 130.943 116.686 130.943 116.686L130.613 117.004L131.071 116.988L131.05 116.358L131.027 116.227L130.592 116.373L130.134 116.387L130.155 117.018C130.159 117.132 130.204 117.239 130.283 117.321C130.305 117.336 133.724 120.92 137.263 122.55C138.381 123.061 139.629 123.639 140.85 124.093C142.072 124.544 143.261 124.881 144.309 124.883C144.865 124.883 145.391 124.786 145.846 124.528C146.301 124.272 146.662 123.845 146.864 123.289C146.985 122.96 147.038 122.603 147.038 122.225C147.036 121.366 146.771 120.393 146.325 119.302C144.985 116.039 141.961 111.678 138.683 107.05C136.362 103.773 133.471 99.2313 131.165 95.362C130.013 93.4278 129.006 91.6603 128.291 90.3058C127.934 89.6299 127.649 89.0557 127.458 88.6234C127.362 88.4073 127.291 88.2269 127.246 88.0932L127.2 87.9329L127.192 87.8917L127.191 87.8844L127.137 87.8889H127.191V87.8844L127.137 87.8889H127.191H126.925L127.176 87.9705L127.191 87.8889H126.925L127.176 87.9705L126.808 87.8505L127.039 88.1591L127.176 87.9705L126.808 87.8505L127.039 88.1591C127.154 88.0684 127.205 87.9952 127.279 87.8963C127.535 87.5391 127.912 86.8687 128.372 86.0023C129.744 83.4143 131.761 79.2116 132.172 78.2894C132.54 77.4569 132.743 76.5795 132.745 75.8057C132.743 75.302 132.662 74.8367 132.431 74.4475C132.349 74.3129 132.239 74.1783 132.083 74.0015C131.547 73.398 130.506 72.4016 129.354 71.5334C128.778 71.1002 128.176 70.7009 127.588 70.4024C126.998 70.1056 126.426 69.9005 125.866 69.8968C125.691 69.8968 125.516 69.9188 125.347 69.971C124.81 70.1304 124.428 70.5077 124.228 70.9326C124.023 71.3576 123.965 71.8228 123.964 72.2679C123.967 73.3604 124.33 74.3807 124.336 74.4063L124.769 74.2552L124.393 73.9942C124.391 73.9969 123.173 75.7526 121.951 77.6675C121.339 78.6246 120.728 79.621 120.264 80.4653C120.031 80.8884 119.835 81.2722 119.693 81.6019C119.553 81.9389 119.454 82.1935 119.446 82.4875C119.45 83.1908 119.685 84.3988 119.915 85.4831C120.145 86.561 120.375 87.4805 120.376 87.4832L120.386 87.518L130.158 116.519L130.592 116.373Z" fill="#17282F"/>
<path d="M126.062 74.0519L128.027 75.5273C128.229 75.6793 128.517 75.6381 128.669 75.4357C128.82 75.2342 128.78 74.9466 128.577 74.7946L126.612 73.3192C126.41 73.1672 126.123 73.2084 125.971 73.4108C125.819 73.6132 125.86 73.8998 126.062 74.0519Z" fill="#17282F"/>
<path d="M56.7439 181.275C56.7439 181.275 58.5306 186.798 63.7222 188.02C68.9131 189.24 82.6507 172.237 82.6507 172.237L83.2611 167.048L62.497 169.49C62.497 169.49 55.8278 173.338 56.7439 181.275Z" fill="white"/>
<path d="M56.7439 181.275L56.308 181.416C56.3177 181.444 56.7771 182.864 57.9134 184.455C59.0473 186.043 60.8773 187.819 63.6173 188.465C63.8352 188.516 64.0611 188.54 64.2918 188.54C65.096 188.538 65.9587 188.262 66.878 187.812C70.08 186.231 74.0685 182.424 77.3113 178.996C80.5465 175.571 83.0024 172.53 83.007 172.525C83.0618 172.457 83.0954 172.377 83.1055 172.291L83.7162 167.101C83.7327 166.961 83.6848 166.824 83.5853 166.724C83.4859 166.624 83.3473 166.577 83.2078 166.593L62.4436 169.036L62.2679 169.093C62.2389 169.111 60.7392 169.977 59.2288 171.745C57.7201 173.509 56.1985 176.195 56.1993 179.796C56.1993 180.289 56.2279 180.8 56.2887 181.328L56.308 181.416L56.7439 181.275L57.1987 181.222C57.1418 180.73 57.1154 180.254 57.1154 179.796C57.1164 176.46 58.5145 173.994 59.9254 172.339C60.6304 171.514 61.3375 170.896 61.8649 170.487C62.1291 170.282 62.3477 170.13 62.4987 170.03L62.6719 169.919L62.726 169.886L62.497 169.49L62.5506 169.945L82.7387 167.57L82.1958 172.184L82.6507 172.237L82.2946 171.95C82.2938 171.951 82.0971 172.194 81.7378 172.626C80.4807 174.134 77.2537 177.916 73.7482 181.309C71.9966 183.004 70.1737 184.602 68.5065 185.763C66.8447 186.931 65.3188 187.635 64.2918 187.624C64.1234 187.624 63.9687 187.607 63.827 187.574C61.3754 186.998 59.7165 185.401 58.6587 183.923C58.1316 183.185 57.7587 182.481 57.5197 181.964C57.4002 181.706 57.314 181.495 57.2581 181.351L57.1973 181.185L57.1798 181.134L56.7439 181.275Z" fill="#17282F"/>
<path d="M134.562 18.0746C134.562 18.0746 130.286 27.5386 130.286 28.4545C130.286 29.3703 130.4 29.9033 132.201 30.2421C134.101 30.6011 150.923 33.8449 154.104 33.0335C156.432 32.441 158.38 20.822 158.38 20.822C158.38 20.822 154.715 19.9062 152.578 19.9062C150.44 19.9062 144.639 19.2963 144.639 19.2963L142.195 21.4338L143.112 18.6864L139.447 18.0746L138.531 20.2121L137.921 17.7706L134.562 18.0746Z" fill="white"/>
<path d="M134.562 18.0745L134.144 17.8868C134.143 17.8877 133.074 20.2551 132.003 22.7406C131.468 23.9834 130.932 25.2545 130.528 26.2784C130.327 26.7903 130.157 27.2409 130.036 27.599C129.976 27.7785 129.927 27.9351 129.892 28.0716C129.857 28.2099 129.831 28.3133 129.828 28.4544C129.829 28.6925 129.835 28.926 129.884 29.1669C129.952 29.5268 130.172 29.9041 130.547 30.1486C130.92 30.3968 131.41 30.5571 132.116 30.6926C132.96 30.852 136.763 31.5828 141.005 32.2742C145.254 32.9657 149.924 33.6196 152.59 33.6205C153.256 33.6196 153.797 33.583 154.218 33.4767C154.678 33.3531 155.017 33.0234 155.326 32.6103C155.861 31.8795 156.319 30.8062 156.74 29.5818C157.992 25.9176 158.829 20.9099 158.831 20.898L158.901 20.4813L158.491 20.3787C158.485 20.3769 157.563 20.147 156.367 19.9153C155.169 19.6836 153.708 19.4501 152.578 19.4482C151.546 19.4492 149.558 19.2981 147.848 19.1451C146.134 18.9931 144.69 18.8411 144.686 18.8411L144.487 18.82L143.164 19.9785L143.716 18.3227L139.168 17.5644L138.646 18.7824L138.27 17.2787L134.254 17.6432L134.144 17.8868L134.562 18.0745L134.603 18.5306L137.572 18.2613L138.417 21.6416L139.727 18.5855L142.508 19.049L141.228 22.889L144.94 19.6415L144.639 19.2962L144.591 19.7514C144.601 19.7523 150.382 20.3631 152.578 20.3641C153.585 20.3631 155.025 20.5875 156.193 20.8137C156.778 20.9273 157.299 21.0408 157.672 21.126C158.045 21.2112 158.268 21.2671 158.269 21.2671L158.38 20.822L157.928 20.7469C157.928 20.7469 157.898 20.9245 157.841 21.2414C157.64 22.3486 157.104 25.1373 156.37 27.6942C156.003 28.9718 155.586 30.1926 155.149 31.1002C154.931 31.5535 154.707 31.9281 154.497 32.1836C154.289 32.4437 154.098 32.5673 153.992 32.5902C153.711 32.6625 153.215 32.7065 152.59 32.7047C150.055 32.7074 145.377 32.0599 141.153 31.3703C136.924 30.6816 133.132 29.9517 132.285 29.7924C131.42 29.633 131.04 29.4206 130.914 29.263C130.845 29.1834 130.809 29.1064 130.781 28.9782C130.754 28.8509 130.744 28.6742 130.744 28.4544H130.731L130.745 28.4562L130.744 28.4544H130.731L130.745 28.4562C130.748 28.3985 130.821 28.1238 130.943 27.7785C131.372 26.5431 132.385 24.151 133.286 22.0849C133.736 21.0509 134.16 20.0948 134.471 19.3979C134.782 18.701 134.979 18.2641 134.979 18.2632L134.562 18.0745Z" fill="#17282F"/>
<path d="M154.104 33.0335C155.054 32.7918 155.942 30.7128 156.658 28.3363L131.392 25.3654C130.76 26.8976 130.286 28.1504 130.286 28.4545C130.286 29.3703 130.4 29.9033 132.201 30.2421C134.101 30.6011 150.923 33.8449 154.104 33.0335Z" fill="#17282F"/>
<path d="M154.104 33.0335L154.218 33.4776C154.594 33.3787 154.889 33.1342 155.152 32.8292C155.545 32.3677 155.884 31.733 156.207 30.983C156.527 30.2338 156.825 29.3702 157.097 28.469L157.255 27.9452L131.101 24.8699L130.969 25.1904C130.651 25.9606 130.373 26.6603 130.172 27.2134C130.071 27.4909 129.99 27.7309 129.931 27.9296C129.874 28.1348 129.833 28.2721 129.828 28.4544C129.829 28.6925 129.835 28.926 129.884 29.1669C129.952 29.5268 130.172 29.9041 130.547 30.1486C130.92 30.3968 131.41 30.5571 132.116 30.6926C132.96 30.852 136.763 31.5828 141.005 32.2742C145.254 32.9657 149.924 33.6196 152.59 33.6205C153.256 33.6196 153.797 33.583 154.218 33.4767L154.104 33.0335L153.992 32.5902C153.711 32.6625 153.215 32.7065 152.59 32.7047C150.055 32.7074 145.377 32.06 141.153 31.3703C136.924 30.6816 133.132 29.9517 132.285 29.7924C131.42 29.633 131.04 29.4206 130.914 29.263C130.845 29.1834 130.809 29.1064 130.781 28.9782C130.754 28.8509 130.744 28.6742 130.744 28.4544H130.677L130.744 28.4599V28.4544H130.677L130.744 28.4599C130.744 28.4443 130.771 28.3106 130.825 28.1393C130.984 27.6118 131.359 26.6456 131.815 25.5393L131.392 25.3653L131.338 25.8196L156.605 28.7914L156.658 28.3362L156.22 28.2044C155.867 29.3766 155.47 30.4719 155.061 31.2778C154.857 31.6808 154.649 32.0096 154.456 32.2339C154.263 32.4611 154.091 32.5673 153.992 32.5902L154.104 33.0335Z" fill="#17282F"/>
<path d="M61.5039 224.821C61.326 224.821 61.145 224.786 60.9704 224.713C60.2712 224.419 59.9434 223.613 60.2382 222.913L141.769 29.6761C142.064 28.9773 142.871 28.6495 143.57 28.9435C144.269 29.2393 144.596 30.0443 144.302 30.744L62.7707 223.981C62.5495 224.506 62.0399 224.821 61.5039 224.821Z" fill="#17282F"/>
<path d="M61.5039 224.821V224.363C61.3858 224.363 61.2655 224.34 61.1478 224.291H61.1482C60.7983 224.144 60.5886 223.804 60.5878 223.446C60.5878 223.328 60.6107 223.208 60.6601 223.091L142.191 29.8537C142.338 29.5039 142.679 29.2942 143.037 29.2932C143.155 29.2942 143.275 29.3161 143.392 29.3656H143.391C143.742 29.513 143.952 29.8528 143.952 30.2109C143.952 30.329 143.929 30.4481 143.879 30.5653L62.3487 223.803C62.2017 224.153 61.8617 224.362 61.5039 224.363V224.821V225.279C62.2182 225.28 62.897 224.858 63.1929 224.159L144.724 30.9216C144.821 30.6899 144.868 30.4481 144.868 30.2109C144.869 29.4956 144.447 28.817 143.747 28.5221V28.5212C143.516 28.4241 143.274 28.3774 143.037 28.3774C142.322 28.3774 141.643 28.7978 141.347 29.4975L59.8159 222.735C59.7187 222.966 59.6718 223.209 59.6718 223.446C59.6714 224.161 60.0929 224.84 60.7925 225.135H60.7928C61.0241 225.232 61.2663 225.279 61.5039 225.279V224.821Z" fill="#17282F"/>
<path d="M121.661 89.814C121.661 89.814 119.828 85.4638 120.636 78.5302C120.876 76.4696 123.059 73.6855 123.201 72.6882C123.343 71.6909 122.489 70.5507 123.771 70.5507C125.054 70.5507 126.337 72.2605 126.337 73.6855C126.337 75.1105 125.339 77.3909 125.482 77.9606C125.624 78.5302 125.339 80.6677 125.339 80.6677" fill="white"/>
<path d="M122.083 89.6364L122.072 89.6107C121.953 89.3122 120.888 86.5162 120.888 82.0232C120.888 80.9673 120.947 79.817 121.091 78.5834C121.19 77.6832 121.767 76.4935 122.356 75.4312C122.65 74.8972 122.944 74.3917 123.179 73.9457C123.413 73.4933 123.595 73.1251 123.654 72.7524C123.67 72.6462 123.676 72.5418 123.676 72.4401C123.675 72.1489 123.627 71.8824 123.585 71.6516C123.543 71.4236 123.509 71.2276 123.51 71.1168L123.519 71.0279L123.467 71.0005L123.507 71.0444L123.519 71.0279L123.467 71.0005L123.507 71.0444V71.0453C123.52 71.0362 123.604 71.0078 123.771 71.0087C124.201 70.9995 124.752 71.3283 125.177 71.8686C125.602 72.4007 125.883 73.1105 125.879 73.6856C125.882 74.2553 125.678 75.0887 125.461 75.8552C125.353 76.2398 125.244 76.6107 125.16 76.9413C125.077 77.2756 125.013 77.5549 125.01 77.8242C125.01 77.903 125.015 77.9826 125.037 78.0724V78.0715C125.049 78.1099 125.065 78.2702 125.064 78.4598C125.064 78.8481 125.02 79.393 124.975 79.8326C124.93 80.2722 124.885 80.6064 124.885 80.6074C124.851 80.8583 125.028 81.0882 125.278 81.1221C125.529 81.155 125.76 80.9792 125.793 80.7282C125.794 80.7182 125.978 79.3545 125.98 78.4598C125.978 78.2317 125.972 78.0394 125.926 77.8498V77.8489L125.856 77.8663L125.928 77.8544L125.926 77.8489L125.856 77.8663L125.928 77.8544L125.926 77.8242C125.923 77.7262 125.968 77.4716 126.048 77.1685C126.165 76.7078 126.349 76.1116 126.506 75.4998C126.661 74.8853 126.793 74.2571 126.795 73.6856C126.791 72.8357 126.43 71.9785 125.894 71.299C125.356 70.6277 124.624 70.102 123.771 70.0929C123.431 70.0938 123.128 70.1542 122.888 70.3685C122.772 70.4739 122.691 70.6112 122.649 70.7413C122.606 70.8732 122.595 70.9986 122.594 71.1168C122.596 71.365 122.644 71.5921 122.685 71.8164C122.725 72.039 122.76 72.2542 122.76 72.4401L122.747 72.6233C122.735 72.7497 122.591 73.1041 122.369 73.519C122.036 74.1509 121.542 74.9696 121.106 75.8332C120.671 76.6987 120.285 77.6053 120.181 78.4772C120.033 79.7474 119.972 80.9334 119.972 82.0232C119.972 86.9704 121.221 89.9505 121.238 89.9917C121.336 90.2243 121.605 90.3342 121.838 90.2362C122.071 90.1383 122.181 89.8699 122.083 89.6364Z" fill="#17282F"/>
<path d="M99.9487 86.3431C99.9487 86.3431 104.07 90.7921 104.564 91.946C105.059 93.0999 104.894 95.5717 104.894 96.0663C104.894 96.5599 106.213 97.2202 106.543 98.2083C106.872 99.1974 109.18 105.953 109.18 106.942C109.18 107.932 107.696 109.249 106.213 109.909C104.729 110.568 102.916 111.392 102.916 111.392L102.421 116.665L89.5638 118.643L88.0801 113.04C88.0801 113.04 92.2014 111.886 92.6961 108.261C93.1898 104.636 87.5853 99.5271 88.9042 93.7593C90.2229 87.9906 96.157 85.0252 99.9487 86.3431Z" fill="white"/>
<path d="M99.9487 86.3431L99.6125 86.6545C99.6134 86.6545 99.8681 86.9302 100.261 87.3643C100.85 88.0136 101.745 89.0173 102.536 89.9606C102.931 90.4322 103.299 90.8883 103.587 91.2748C103.875 91.6567 104.086 91.9864 104.143 92.1265C104.262 92.3976 104.35 92.8298 104.398 93.2987C104.448 93.7686 104.462 94.2787 104.462 94.7338C104.462 95.3447 104.437 95.8401 104.436 96.0663C104.437 96.2321 104.489 96.3686 104.549 96.4785C104.766 96.8512 105.101 97.0994 105.416 97.4144C105.733 97.7185 106.01 98.0482 106.108 98.3531C106.274 98.8513 106.932 100.783 107.548 102.715C107.856 103.68 108.154 104.645 108.373 105.423C108.483 105.812 108.573 106.156 108.633 106.425C108.695 106.69 108.725 106.9 108.722 106.943C108.738 107.204 108.455 107.731 107.935 108.219C107.424 108.713 106.717 109.184 106.027 109.49C104.54 110.151 102.727 110.975 102.726 110.975C102.577 111.043 102.475 111.186 102.46 111.349L101.999 116.267L89.9012 118.128L88.5228 112.923L88.0802 113.04L88.2036 113.481C88.2326 113.472 89.3026 113.173 90.4599 112.389C91.6124 111.61 92.8784 110.308 93.1496 108.323C93.1734 108.147 93.1844 107.97 93.1844 107.792C93.1706 106.003 92.1199 104.128 91.1261 102.075C90.1227 100.026 89.1577 97.8284 89.1609 95.5663C89.1609 95.004 89.2196 94.4362 89.3508 93.861C89.8808 91.5431 91.1899 89.7023 92.8014 88.4358C94.4128 87.1683 96.3265 86.4897 98.0158 86.4906C98.6506 86.4906 99.2525 86.5858 99.7984 86.7754L99.9487 86.3431L100.099 85.9108C99.4457 85.6828 98.7413 85.5757 98.0158 85.5757C96.0847 85.5775 93.9978 86.3331 92.2362 87.715C90.4749 89.0979 89.0377 91.1191 88.458 93.6568C88.3103 94.3025 88.2448 94.9399 88.2448 95.5663C88.248 98.0903 89.2951 100.408 90.3031 102.477C91.3212 104.54 92.2829 106.386 92.2683 107.792C92.2683 107.932 92.26 108.067 92.2417 108.199C92.0182 109.839 90.9769 110.927 89.9449 111.632C89.4314 111.98 88.9272 112.225 88.5551 112.381C88.3686 112.459 88.2155 112.514 88.1106 112.55L87.9914 112.589L87.9568 112.599C87.7156 112.666 87.5735 112.915 87.6371 113.157L89.1211 118.76C89.1809 118.986 89.4028 119.131 89.6336 119.095L102.491 117.118C102.699 117.086 102.858 116.918 102.877 116.708L103.372 111.435L102.916 111.393L103.105 111.809C103.108 111.807 104.917 110.985 106.399 110.327C107.192 109.974 107.969 109.457 108.57 108.88C109.163 108.296 109.622 107.67 109.638 106.943C109.635 106.739 109.592 106.521 109.527 106.223C109.295 105.202 108.732 103.392 108.188 101.711C107.645 100.034 107.121 98.4933 106.977 98.0637C106.758 97.4245 106.284 96.9785 105.909 96.6186C105.72 96.4409 105.551 96.2852 105.45 96.168L105.354 96.0398L105.347 96.0288V96.027L105.231 96.0663H105.352L105.347 96.027L105.231 96.0663H105.352C105.352 95.896 105.378 95.363 105.378 94.7338C105.378 94.2585 105.364 93.7209 105.309 93.2026C105.253 92.6833 105.164 92.186 104.985 91.7657C104.816 91.3819 104.46 90.8975 103.994 90.3013C102.606 88.5374 100.289 86.0363 100.285 86.0317L100.099 85.9108L99.9487 86.3431Z" fill="#17282F"/>
<path d="M98.9593 86.6727C98.9593 86.6727 97.8059 89.9687 97.8059 91.4514C97.8059 92.9351 101.268 92.6054 101.268 94.4178C101.268 96.2302 99.9487 98.7029 99.9487 98.7029C99.9487 98.7029 101.762 100.515 101.432 101.504C101.102 102.493 99.6189 103.482 99.1242 102.329C98.6304 101.175 96.4868 101.669 97.3113 103.976C98.1357 106.283 99.7838 107.932 99.7838 107.932C99.7838 107.932 99.1242 110.238 96.6517 112.71C94.1792 115.182 90.3875 116.006 89.3988 115.347C88.4097 114.688 82.9702 110.403 80.1675 106.448C77.3652 102.493 74.8925 96.3959 77.3652 90.1336C79.838 83.8712 85.6075 82.2228 87.2557 81.894C88.9042 81.5643 84.4534 81.0698 86.1017 78.7628C87.7503 76.455 92.3663 74.8074 95.0037 76.1253C97.641 77.4441 96.8166 79.0925 98.2997 79.5862C99.7838 80.0807 101.268 77.6089 102.751 79.751C104.234 81.894 105.883 88.65 98.9593 86.6727Z" fill="#17282F"/>
<path d="M98.9593 86.6728L98.5269 86.5217C98.5251 86.5272 98.2347 87.3569 97.9425 88.3799C97.6511 89.4102 97.3525 90.6044 97.3479 91.4515C97.3461 91.7262 97.4349 91.9882 97.5779 92.1915C97.8325 92.5496 98.1944 92.7474 98.5636 92.9168C99.1196 93.165 99.738 93.3472 100.175 93.5881C100.393 93.7062 100.558 93.8345 100.658 93.9636C100.756 94.0946 100.807 94.2173 100.81 94.4178C100.813 95.2164 100.503 96.2577 100.181 97.0737C100.022 97.4831 99.8607 97.8393 99.7407 98.0912C99.6812 98.2175 99.6317 98.3183 99.5969 98.3861L99.5447 98.4868C99.4494 98.6654 99.4824 98.8834 99.6253 99.0262L99.683 99.0867C99.8186 99.2286 100.171 99.6114 100.477 100.049C100.79 100.481 101.027 100.993 101.014 101.242L100.998 101.36C100.922 101.593 100.721 101.879 100.483 102.08C100.246 102.287 99.9752 102.396 99.8342 102.39L99.6894 102.35C99.6509 102.322 99.5987 102.271 99.5456 102.148C99.3037 101.576 98.7504 101.266 98.2164 101.272C97.8289 101.271 97.4331 101.425 97.1391 101.731C96.8422 102.037 96.6645 102.487 96.6664 103.015C96.6664 103.353 96.7351 103.724 96.8798 104.13C97.7492 106.551 99.4366 108.228 99.4595 108.255L99.7838 107.932L99.3431 107.805L99.3386 107.823C99.2726 108.035 98.5782 110.138 96.3274 112.387C95.4141 113.301 94.2965 113.987 93.2219 114.439C92.1492 114.893 91.1136 115.109 90.4118 115.107C90.0182 115.112 89.7362 115.029 89.6529 114.966C89.197 114.664 87.5845 113.426 85.7696 111.793C83.9499 110.159 81.907 108.113 80.5415 106.183C78.5852 103.425 76.8045 99.6068 76.8074 95.4729C76.8074 93.7914 77.099 92.0559 77.7915 90.3012C78.9881 87.2736 80.9698 85.3741 82.8643 84.1763C84.7569 82.9802 86.5629 82.4985 87.3455 82.3428C87.4987 82.3107 87.6178 82.2814 87.7441 82.221L87.9489 82.0699C88.0208 81.9939 88.0891 81.8547 88.0866 81.7146C88.0855 81.5671 88.0287 81.4609 87.9814 81.394C87.8883 81.2686 87.8068 81.2173 87.722 81.1568C87.4349 80.9682 87.0328 80.7813 86.7032 80.5286C86.5404 80.4049 86.4036 80.2712 86.3167 80.1403C86.2294 80.0075 86.1879 79.8875 86.1868 79.7437C86.1872 79.577 86.2473 79.3472 86.4745 79.0285C87.0285 78.2491 88.0146 77.5036 89.1612 76.9725C90.3067 76.4385 91.6087 76.1134 92.7749 76.1143C93.5343 76.1143 94.2323 76.2517 94.7985 76.5347C96.0297 77.1629 96.3723 77.7656 96.6719 78.3645C96.8203 78.6667 96.9412 78.9799 97.1555 79.2867C97.3672 79.5935 97.6988 79.8738 98.155 80.0212C98.3455 80.0844 98.5379 80.1119 98.722 80.1119C99.3019 80.1064 99.7893 79.8701 100.229 79.676C100.669 79.4745 101.062 79.316 101.361 79.3215C101.521 79.3224 101.659 79.3545 101.821 79.4497C101.982 79.545 102.169 79.7162 102.374 80.012C102.955 80.8372 103.612 82.5892 103.604 84.0279C103.605 84.7725 103.436 85.4135 103.081 85.8449C102.724 86.2726 102.171 86.5666 101.173 86.573C100.614 86.573 99.9212 86.4713 99.0848 86.2323C98.8512 86.1654 98.6075 86.2918 98.5269 86.5217L98.9593 86.6728L98.8338 87.1133C99.7306 87.3688 100.504 87.4888 101.173 87.4888C102.355 87.4952 103.247 87.095 103.789 86.4246C104.332 85.7579 104.519 84.8988 104.52 84.0279C104.511 82.3282 103.826 80.5139 103.127 79.491C102.869 79.1173 102.593 78.8444 102.291 78.6631C101.99 78.4817 101.664 78.4039 101.361 78.4057C100.781 78.4103 100.294 78.6475 99.8543 78.8407C99.4146 79.0422 99.0216 79.2006 98.722 79.1961C98.6249 79.1951 98.5361 79.1823 98.4445 79.1521C98.1605 79.0523 98.0386 78.9406 97.904 78.7592C97.7043 78.4891 97.5559 77.9982 97.2023 77.4258C96.8468 76.8543 96.2605 76.2389 95.208 75.716C94.4788 75.3524 93.6415 75.1994 92.7749 75.1985C91.4424 75.2003 90.0304 75.5584 88.7747 76.1418C87.5198 76.7279 86.4184 77.5357 85.7288 78.4964C85.425 78.9204 85.2703 79.3408 85.2707 79.7437C85.2697 80.1668 85.4457 80.5322 85.6708 80.8051C86.0104 81.2163 86.4563 81.4783 86.8002 81.677C86.9716 81.775 87.1201 81.8565 87.2016 81.9105L87.2468 81.9426L87.2564 81.9499L87.3992 81.7979L87.2224 81.9059L87.2564 81.9499L87.3992 81.7979L87.2224 81.9059L87.5359 81.7146H87.1706C87.1708 81.808 87.2024 81.8739 87.2224 81.9059L87.5359 81.7146H87.1706H87.5523L87.2664 81.4581C87.2232 81.5021 87.168 81.6092 87.1706 81.7146H87.5523L87.2664 81.4581L87.4721 81.6422L87.333 81.4032L87.2664 81.4581L87.4721 81.6422L87.333 81.4032L87.3838 81.4902L87.3398 81.3995L87.333 81.4032L87.3838 81.4902L87.3398 81.3995C87.3398 81.4004 87.2765 81.4233 87.1659 81.4444C86.3003 81.6184 84.3972 82.1258 82.3751 83.4015C80.3547 84.6754 78.2152 86.7314 76.9394 89.9651C76.2026 91.8306 75.891 93.6861 75.8914 95.4729C75.8938 99.8743 77.765 103.847 79.7939 106.713C81.2307 108.738 83.3087 110.812 85.1569 112.474C87.0095 114.138 88.6116 115.372 89.1447 115.728C89.4954 115.954 89.9181 116.018 90.4118 116.023C91.2871 116.021 92.4066 115.775 93.5773 115.283C94.7463 114.79 95.9591 114.049 96.976 113.035C99.5209 110.489 100.21 108.107 100.224 108.057C100.27 107.897 100.225 107.726 100.108 107.607L100.093 107.594C99.9322 107.431 98.4729 105.877 97.7427 103.822C97.6264 103.497 97.5824 103.229 97.5824 103.015C97.5843 102.68 97.6832 102.488 97.7986 102.366C97.915 102.245 98.0661 102.188 98.2164 102.188C98.4271 102.193 98.6048 102.287 98.7037 102.509C98.8091 102.755 98.9657 102.963 99.17 103.103C99.3725 103.244 99.6116 103.307 99.8342 103.306C100.311 103.299 100.726 103.072 101.079 102.776C101.429 102.473 101.718 102.087 101.867 101.649C101.912 101.514 101.93 101.375 101.93 101.242C101.927 100.872 101.803 100.534 101.643 100.211C101.161 99.2561 100.287 98.398 100.273 98.3787L99.9487 98.7029L100.353 98.9181C100.358 98.9071 100.695 98.2762 101.035 97.4061C101.373 96.5334 101.722 95.4326 101.726 94.4178C101.727 94.1193 101.651 93.839 101.517 93.6055C101.282 93.1943 100.911 92.9379 100.532 92.741C99.9615 92.4488 99.3257 92.2675 98.875 92.0514C98.6497 91.947 98.4784 91.8352 98.3858 91.7363C98.2942 91.6337 98.2677 91.5751 98.264 91.4515C98.2594 90.815 98.537 89.6208 98.8228 88.6317C98.9648 88.1344 99.1077 87.6811 99.2149 87.3523C99.3212 87.0245 99.3917 86.8248 99.3917 86.8239L98.9593 86.6728Z" fill="#17282F"/>
<path d="M97.3498 91.413C97.3498 91.413 97.3406 91.5156 97.3168 91.7153C97.1592 93.111 96.2477 99.0308 92.9709 102.697C91.1097 104.794 88.5067 106.104 86.3651 106.876C85.2951 107.262 84.3418 107.515 83.659 107.671C83.3176 107.748 83.0439 107.802 82.8568 107.836C82.763 107.853 82.6914 107.866 82.6435 107.873L82.5744 107.884C82.3239 107.92 82.15 108.151 82.1857 108.401C82.2212 108.652 82.4534 108.826 82.704 108.791C82.7247 108.787 84.4498 108.541 86.6764 107.737C88.9011 106.932 91.6353 105.574 93.6552 103.306C95.6697 101.036 96.8065 98.0902 97.4569 95.71C98.1055 93.3289 98.2603 91.5092 98.2622 91.49C98.2833 91.2381 98.0964 91.0165 97.8444 90.9954C97.5925 90.9734 97.3708 91.1612 97.3498 91.413Z" fill="white"/>
<path d="M88.0626 113.498L88.1353 113.499C88.6928 113.501 92.3718 113.344 96.528 109.65C96.7177 109.481 96.7341 109.192 96.5665 109.003C96.3979 108.814 96.1085 108.797 95.9198 108.965C91.9586 112.482 88.5382 112.58 88.1353 112.583L88.0977 112.582C87.8447 112.573 87.6322 112.77 87.6225 113.023C87.6129 113.275 87.8096 113.488 88.0626 113.498Z" fill="white"/>
<path d="M100.938 103.647C100.938 103.647 98.4655 99.6911 97.1464 101.175C95.8272 102.658 97.4762 107.107 99.7838 107.932C102.092 108.755 102.916 107.272 102.916 107.272" fill="white"/>
<path d="M101.326 103.404C101.318 103.393 100.872 102.677 100.24 101.945C99.923 101.579 99.5602 101.207 99.1663 100.913C98.7715 100.623 98.3419 100.39 97.8435 100.383C97.4697 100.378 97.0795 100.552 96.8038 100.871C96.3741 101.36 96.2211 102.015 96.2193 102.708C96.222 103.774 96.5866 104.978 97.1793 106.031C97.7757 107.078 98.5984 107.988 99.6299 108.363C100.174 108.557 100.659 108.639 101.086 108.639C101.854 108.64 102.423 108.368 102.779 108.088C103.138 107.808 103.295 107.531 103.316 107.495C103.439 107.274 103.359 106.995 103.138 106.872C102.917 106.749 102.638 106.829 102.516 107.05L102.632 107.115L102.517 107.046L102.516 107.05L102.632 107.115L102.517 107.046C102.51 107.059 102.399 107.235 102.173 107.398C101.944 107.562 101.608 107.721 101.086 107.723C100.775 107.723 100.397 107.664 99.9377 107.5C99.2286 107.254 98.4976 106.51 97.9763 105.581C97.4514 104.656 97.1326 103.56 97.1354 102.708C97.1335 102.149 97.271 101.719 97.489 101.479C97.6301 101.33 97.7134 101.306 97.8435 101.299C98.0148 101.294 98.307 101.411 98.6185 101.647C99.0885 101.995 99.585 102.563 99.9487 103.038C100.132 103.276 100.283 103.491 100.388 103.646L100.509 103.827L100.55 103.889C100.683 104.104 100.966 104.169 101.181 104.035C101.395 103.901 101.46 103.618 101.326 103.404Z" fill="#17282F"/>
<path d="M82.4753 122.104C82.4753 122.104 83.2998 118.478 84.948 117.324C86.5966 116.171 98.7944 114.852 102.092 114.524C105.388 114.194 108.85 116.171 108.85 116.171L110.498 118.973L82.4753 122.104Z" fill="white"/>
<path d="M82.4753 122.104L82.9219 122.205C82.9219 122.205 82.9334 122.156 82.958 122.058C83.0443 121.718 83.2876 120.834 83.6783 119.929C84.0637 119.022 84.6191 118.103 85.2107 117.7C85.328 117.613 85.6773 117.463 86.1525 117.325C87.834 116.827 91.1326 116.304 94.3423 115.881C97.5559 115.456 100.699 115.123 102.137 114.979C102.374 114.955 102.614 114.944 102.854 114.944C104.293 114.943 105.747 115.347 106.833 115.757C107.376 115.961 107.828 116.167 108.141 116.319C108.298 116.395 108.42 116.459 108.502 116.503L108.623 116.569L108.85 116.171L108.455 116.403L109.745 118.596L82.4245 121.649L82.4753 122.104L82.5261 122.559L110.55 119.428C110.703 119.41 110.839 119.316 110.908 119.178C110.977 119.039 110.972 118.874 110.893 118.74L109.245 115.938L109.077 115.774C109.044 115.761 106.064 114.037 102.854 114.028C102.586 114.028 102.316 114.041 102.047 114.067C100.393 114.233 96.5162 114.645 92.8381 115.161C90.9984 115.42 89.2095 115.704 87.7671 115.998C87.0453 116.145 86.4105 116.295 85.893 116.447C85.3728 116.603 84.9802 116.748 84.6854 116.95C83.716 117.642 83.1005 118.895 82.6671 119.979C82.242 121.064 82.0323 121.988 82.0287 122.002C81.9958 122.147 82.0348 122.298 82.1339 122.409C82.2327 122.52 82.3787 122.575 82.5261 122.559L82.4753 122.104Z" fill="#17282F"/>
<path d="M58.2221 168.269C58.2221 168.269 54.8627 171.932 54.2522 173.764C53.6417 175.596 53.3361 179.564 56.6948 182.006C60.0543 184.448 65.2452 185.059 67.6878 183.838C70.1311 182.616 71.6577 180.175 71.6577 176.206C71.6577 172.237 70.436 169.796 70.436 169.796C70.436 169.796 62.4969 164.911 58.2221 168.269Z" fill="white"/>
<path d="M58.2221 168.269L57.8843 167.96C57.88 167.964 57.0352 168.886 56.1083 170.044C55.6449 170.623 55.1608 171.261 54.7489 171.878C54.3373 172.498 53.9964 173.089 53.8177 173.619C53.5913 174.301 53.4098 175.228 53.4092 176.273C53.4034 178.247 54.0833 180.677 56.4253 182.376L56.4257 182.377C58.7685 184.074 61.89 184.902 64.4969 184.906C65.8027 184.905 66.9821 184.701 67.8928 184.247C69.1896 183.601 70.261 182.613 70.991 181.272C71.7228 179.93 72.1161 178.248 72.1157 176.206C72.115 172.142 70.8672 169.635 70.8457 169.591L70.6761 169.406C70.6628 169.397 69.5464 168.711 67.9146 168.021C66.2814 167.333 64.1358 166.634 62.0278 166.633C60.5814 166.632 59.1346 166.97 57.9391 167.908L57.8843 167.96L58.2221 168.269L58.5051 168.629C59.4968 167.85 60.7166 167.549 62.0278 167.548C63.9311 167.546 65.9898 168.201 67.5579 168.864C68.3426 169.196 69.0057 169.528 69.4706 169.777C69.7032 169.901 69.8864 170.004 70.0101 170.076C70.1344 170.148 70.1959 170.185 70.1963 170.185L70.436 169.796L70.0263 170L70.036 170.02C70.1501 170.259 71.2003 172.574 71.1997 176.206C71.1997 178.133 70.8293 179.656 70.1869 180.833C69.5432 182.01 68.6292 182.854 67.483 183.429C66.7646 183.79 65.7036 183.992 64.4969 183.99C62.0832 183.994 59.0992 183.193 56.9643 181.636C54.9074 180.136 54.3309 178.059 54.3252 176.273C54.3249 175.337 54.492 174.492 54.687 173.909C54.8133 173.524 55.1214 172.969 55.5115 172.387C56.0958 171.509 56.8612 170.552 57.4778 169.82C57.7859 169.452 58.0571 169.141 58.2511 168.922C58.445 168.703 58.5595 168.579 58.5595 168.578L58.2221 168.269Z" fill="#17282F"/>
<path d="M126.622 118.815C126.622 118.815 129.065 114.541 133.646 114.236C138.226 113.931 140.669 114.541 144.028 117.594C147.387 120.647 149.83 125.226 147.998 128.278C146.166 131.332 144.334 132.857 140.669 133.163C137.005 133.468 133.341 129.194 133.341 129.194L126.622 118.815Z" fill="white"/>
<path d="M126.622 118.815L127.02 119.042L127.043 119.004C127.169 118.794 127.822 117.768 128.948 116.776C130.076 115.78 131.661 114.827 133.676 114.693C134.347 114.648 134.969 114.623 135.552 114.623C137.226 114.623 138.561 114.825 139.829 115.33C141.097 115.836 142.314 116.655 143.72 117.933C144.969 119.068 146.091 120.424 146.891 121.817C147.694 123.21 148.168 124.637 148.166 125.9C148.166 126.682 147.991 127.4 147.605 128.043C146.705 129.542 145.827 130.628 144.758 131.376C143.688 132.123 142.409 132.557 140.631 132.706C140.518 132.716 140.405 132.721 140.291 132.721C138.7 132.728 137.025 131.794 135.769 130.823C135.142 130.341 134.618 129.855 134.252 129.492C134.07 129.31 133.928 129.16 133.831 129.055L133.723 128.935L133.688 128.896L133.341 129.194L133.725 128.945L127.007 118.566L126.622 118.815L126.238 119.063L132.956 129.443L132.993 129.493C133.006 129.507 133.877 130.523 135.211 131.55C136.547 132.571 138.348 133.629 140.291 133.637C140.429 133.637 140.568 133.631 140.707 133.619C142.594 133.464 144.062 132.982 145.284 132.126C146.504 131.271 147.458 130.068 148.391 128.514C148.871 127.715 149.083 126.82 149.083 125.9C149.081 124.41 148.54 122.85 147.686 121.361C146.829 119.872 145.652 118.452 144.336 117.256C142.882 115.933 141.569 115.037 140.169 114.48C138.768 113.92 137.296 113.707 135.552 113.708C134.944 113.708 134.302 113.733 133.615 113.779C131.184 113.942 129.334 115.155 128.103 116.306C126.871 117.459 126.24 118.562 126.225 118.588C126.14 118.736 126.145 118.92 126.238 119.063L126.622 118.815Z" fill="#17282F"/>
<path d="M104.331 310.83C104.331 310.83 114.103 310.22 115.935 312.662C117.767 315.105 116.694 318.703 110.141 322.341C104.428 325.515 91.3744 328.724 86.987 327.874C81.8555 326.88 84.7884 317.547 84.7884 317.547C84.7884 317.547 98.8347 318.157 104.331 310.83Z" fill="white"/>
<path d="M104.331 310.83L104.36 311.288C104.361 311.288 104.623 311.271 105.08 311.255C105.535 311.237 106.18 311.221 106.93 311.221C108.432 311.221 110.36 311.289 112.04 311.554C112.879 311.687 113.655 311.869 114.275 312.106C114.897 312.342 115.349 312.638 115.569 312.937C116.031 313.556 116.275 314.228 116.276 314.966C116.276 315.909 115.866 316.994 114.856 318.186C113.847 319.374 112.242 320.652 109.918 321.941C107.439 323.321 103.467 324.735 99.4586 325.792C95.4517 326.852 91.387 327.557 88.744 327.555C88.0867 327.555 87.5187 327.511 87.074 327.425C86.0126 327.212 85.3999 326.651 84.982 325.836C84.5709 325.021 84.4106 323.939 84.4119 322.832C84.4116 321.565 84.6145 320.27 84.8195 319.297C84.9215 318.811 85.0239 318.405 85.1005 318.122C85.1384 317.981 85.1703 317.87 85.1921 317.795L85.2253 317.684L84.7884 317.547L84.7687 318.005C84.7744 318.005 85.0672 318.018 85.5814 318.018C87.1254 318.017 90.6645 317.905 94.4376 316.996C98.2063 316.083 102.234 314.379 104.698 311.105L104.331 310.83L103.965 310.556C101.716 313.562 97.8903 315.223 94.2223 316.106C90.5597 316.989 87.0796 317.102 85.5814 317.102C85.3316 317.102 85.1369 317.098 85.0053 317.096C84.8735 317.093 84.8084 317.089 84.808 317.09C84.6009 317.081 84.4138 317.212 84.3515 317.41C84.3461 317.434 83.4987 320.109 83.4958 322.832C83.4973 324.023 83.6562 325.231 84.1628 326.247C84.6628 327.262 85.5667 328.073 86.8996 328.324C87.4278 328.426 88.0462 328.47 88.744 328.471C91.5359 328.469 95.6303 327.749 99.6922 326.678C103.754 325.604 107.763 324.185 110.363 322.742C112.754 321.414 114.446 320.083 115.555 318.778C116.663 317.476 117.192 316.182 117.192 314.966C117.193 314.019 116.867 313.139 116.302 312.387C115.91 311.872 115.31 311.524 114.602 311.251C112.482 310.447 109.229 310.31 106.93 310.305C105.402 310.305 104.309 310.374 104.303 310.374C104.168 310.382 104.045 310.449 103.965 310.556L104.331 310.83Z" fill="#17282F"/>
<path d="M115.827 312.54C115.228 314.384 114.04 316.943 111.743 318.993C107.665 322.634 98.1999 324.963 92.2289 325.836C88.5006 326.382 85.7377 325.621 84.1887 324.973C84.544 326.403 85.3588 327.559 86.987 327.874C91.3745 328.724 104.428 325.515 110.141 322.341C116.694 318.703 117.767 315.105 115.935 312.662L115.827 312.54Z" fill="#17282F"/>
<path d="M115.827 312.54L115.392 312.399C114.808 314.194 113.651 316.677 111.438 318.652C109.494 320.392 106.149 321.883 102.558 323.015C98.9658 324.153 95.1256 324.95 92.163 325.383C91.29 325.511 90.4727 325.565 89.7141 325.565C87.3133 325.565 85.4962 325.023 84.3651 324.551C84.2048 324.484 84.0222 324.512 83.8902 324.626C83.7582 324.739 83.702 324.915 83.7438 325.084C83.9346 325.849 84.2531 326.567 84.7684 327.146C85.2819 327.725 85.9968 328.152 86.8996 328.324C87.4279 328.426 88.0462 328.47 88.744 328.471C91.5359 328.469 95.6303 327.748 99.6922 326.678C103.754 325.604 107.763 324.185 110.363 322.742C112.754 321.414 114.446 320.083 115.555 318.778C116.663 317.476 117.192 316.182 117.192 314.966C117.193 314.019 116.867 313.139 116.302 312.387L116.278 312.359L116.17 312.237C116.062 312.115 115.894 312.059 115.734 312.093C115.573 312.125 115.442 312.244 115.392 312.399L115.827 312.54L115.484 312.844L115.593 312.966L115.935 312.662L115.569 312.937C116.031 313.556 116.275 314.228 116.276 314.966C116.276 315.909 115.866 316.995 114.856 318.186C113.847 319.374 112.242 320.652 109.918 321.941C107.439 323.321 103.467 324.735 99.4586 325.792C95.4517 326.852 91.387 327.557 88.744 327.555C88.0867 327.555 87.5187 327.511 87.074 327.425C86.3486 327.282 85.8423 326.971 85.4526 326.537C85.0647 326.103 84.7981 325.528 84.6331 324.863L84.1887 324.973L84.0119 325.396C85.235 325.907 87.1745 326.481 89.7141 326.481C90.5164 326.481 91.3781 326.423 92.2958 326.289C95.3042 325.849 99.181 325.045 102.834 323.888C106.488 322.729 109.914 321.234 112.048 319.335C114.428 317.208 115.647 314.575 116.263 312.682L115.827 312.54Z" fill="#17282F"/>
<path d="M57.611 313.578C57.611 313.578 56.39 319.073 57.9166 321.515C59.4431 323.958 67.6878 325.178 70.7417 323.652C73.7955 322.126 74.7116 318.157 74.7116 314.493C74.7116 310.83 69.52 318.463 57.611 313.578Z" fill="white"/>
<path d="M57.6109 313.578L57.164 313.479C57.1608 313.497 56.6917 315.597 56.6906 317.828C56.6956 319.226 56.8623 320.679 57.5282 321.758C57.8585 322.282 58.3878 322.704 59.038 323.071C60.9886 324.16 64.12 324.778 66.8615 324.783C68.4539 324.78 69.905 324.577 70.9466 324.061C72.6046 323.233 73.6659 321.745 74.301 320.034C74.938 318.319 75.1689 316.364 75.1696 314.494C75.1663 314.071 75.1187 313.729 74.9183 313.43C74.8182 313.284 74.6718 313.163 74.5118 313.095C74.3519 313.025 74.1865 313.002 74.027 313.002C73.6165 313.006 73.2021 313.137 72.6922 313.309C71.1792 313.827 68.8622 314.809 65.5357 314.811C63.3858 314.81 60.8168 314.398 57.7848 313.155C57.6592 313.103 57.5193 313.109 57.399 313.172C57.2785 313.235 57.1933 313.346 57.164 313.479L57.6109 313.578L57.4373 314.002C60.571 315.288 63.2677 315.726 65.5357 315.726C67.8727 315.726 69.7536 315.26 71.1846 314.799C71.8996 314.57 72.5036 314.341 72.9889 314.176C73.4705 314.007 73.8445 313.913 74.027 313.918L74.1447 313.934L74.1908 314.002C74.2224 314.076 74.2545 314.242 74.2535 314.494C74.2541 316.287 74.0266 318.148 73.4422 319.715C72.8561 321.285 71.9325 322.545 70.5369 323.242C69.7253 323.653 68.3681 323.871 66.8615 323.867C65.1299 323.868 63.1925 323.595 61.5833 323.119C60.7789 322.882 60.0564 322.593 59.4871 322.273C58.9163 321.954 58.5062 321.599 58.3051 321.273C57.7966 320.473 57.602 319.144 57.6066 317.828C57.6066 316.776 57.7197 315.732 57.8332 314.955C57.8897 314.567 57.9466 314.246 57.9888 314.022C58.0314 313.798 58.0583 313.678 58.0583 313.678L57.6109 313.578Z" fill="#17282F"/>
<path d="M57.198 318.929C57.2814 319.904 57.4889 320.831 57.9166 321.515C59.4431 323.958 67.6878 325.178 70.7417 323.652C72.0456 323.001 72.9566 321.902 73.5761 320.574C64.6479 323.702 59.3422 320.694 57.198 318.929Z" fill="#17282F"/>
<path d="M57.198 318.929L56.7414 318.969C56.8305 319.983 57.0398 320.971 57.5282 321.758C57.8586 322.282 58.3878 322.704 59.038 323.071C60.9886 324.16 64.1201 324.778 66.8615 324.783C68.4539 324.78 69.905 324.577 70.9467 324.061H70.9463C72.3616 323.356 73.3424 322.162 73.9912 320.767C74.0692 320.6 74.0392 320.403 73.9157 320.266C73.7922 320.13 73.5983 320.081 73.4248 320.142C70.6625 321.11 68.2675 321.476 66.2174 321.476C61.7483 321.475 58.9017 319.735 57.4889 318.575C57.3469 318.458 57.1475 318.438 56.9847 318.523C56.8219 318.609 56.7257 318.785 56.7414 318.969L57.198 318.929L56.9067 319.283C58.4347 320.543 61.5025 322.392 66.2174 322.392C68.377 322.392 70.878 322.004 73.7278 321.006L73.5761 320.574L73.161 320.38C72.5709 321.642 71.7293 322.647 70.5369 323.242C69.7254 323.653 68.3681 323.871 66.8615 323.867C65.1299 323.868 63.1925 323.595 61.5834 323.119C60.7789 322.882 60.0564 322.593 59.4871 322.273C58.9164 321.954 58.5063 321.599 58.3052 321.273C57.9384 320.692 57.7323 319.826 57.6542 318.89L57.198 318.929Z" fill="#17282F"/>
<path d="M75.0165 183.838C75.0165 183.838 72.8794 195.133 73.1843 197.269C73.4899 199.407 74.406 204.596 74.406 204.596C74.406 204.596 67.0774 248.25 66.4669 258.935C65.8557 269.619 61.5809 288.546 60.3592 295.567C59.1383 302.588 58.5271 309.304 56.6949 312.052C54.8627 314.799 59.1383 316.936 61.2753 318.157C63.413 319.378 71.9633 317.852 73.1843 317.241C74.406 316.631 75.3221 312.968 75.6277 310.22C75.9325 307.473 82.6507 290.378 83.8724 279.388C85.0933 268.398 92.7273 228.102 93.3383 225.05C93.9493 221.996 95.4755 213.144 95.4755 213.144C95.4755 213.144 93.3383 250.082 93.0332 259.85C92.7273 269.619 87.5367 282.135 86.6206 290.682C85.7045 299.231 84.4828 306.862 84.4828 310.22C84.4828 313.578 83.5668 319.684 85.3989 320.904C87.2311 322.126 90.5898 321.21 95.7815 319.684C100.972 318.157 104.331 314.799 104.636 312.357C104.942 309.914 105.552 308.694 105.552 307.167C105.552 305.641 111.355 273.588 115.019 256.797C118.683 240.008 121.126 217.723 118.988 204.902C116.851 192.08 116.851 182.006 116.851 182.006C116.851 182.006 88.7576 189.638 75.0165 183.838Z" fill="#17282F"/>
<path d="M75.0164 183.838L74.5667 183.753C74.5663 183.756 74.1 186.218 73.6334 189.066C73.1674 191.919 72.699 195.128 72.6966 196.726C72.6968 196.958 72.7062 197.158 72.7309 197.334C73.039 199.488 73.9547 204.673 73.9551 204.676L74.406 204.596L73.9543 204.52C73.954 204.522 72.1218 215.436 70.2127 227.688C68.3036 239.946 66.3186 253.517 66.0095 258.909C65.7072 264.208 64.4883 271.604 63.1919 278.541C61.895 285.481 60.522 291.962 59.9079 295.489C59.2956 299.011 58.8372 302.446 58.3059 305.329C57.7798 308.21 57.1569 310.547 56.3138 311.798C55.962 312.323 55.7906 312.868 55.7916 313.394C55.7916 314.041 56.0429 314.632 56.4125 315.149C56.9697 315.926 57.7989 316.575 58.6526 317.141C59.5064 317.705 60.3903 318.179 61.048 318.554C61.4198 318.765 61.8728 318.884 62.3975 318.965C62.9213 319.043 63.5165 319.076 64.1574 319.076C65.8764 319.076 67.9265 318.839 69.6713 318.548C70.5434 318.402 71.3381 318.242 71.9773 318.089C72.6214 317.933 73.0884 317.798 73.3893 317.651H73.3889C73.8363 317.421 74.1508 317.006 74.4389 316.496C75.2823 314.964 75.8438 312.377 76.0828 310.271C76.1128 309.988 76.2466 309.424 76.4596 308.684C77.2057 306.077 78.9047 301.179 80.5486 295.738C82.193 290.292 83.7861 284.301 84.3275 279.438C85.5416 268.499 93.1798 228.175 93.7872 225.14C94.4009 222.072 95.9262 213.225 95.9271 213.222L95.4755 213.144L95.0184 213.118C95.0184 213.121 92.8812 250.051 92.5752 259.836C92.4259 264.647 91.0628 270.195 89.6132 275.607C88.165 281.021 86.6317 286.296 86.165 290.634C85.7077 294.901 85.1738 298.942 84.7537 302.342C84.3336 305.743 84.0258 308.491 84.0248 310.22C84.0258 311.863 83.7964 314.235 83.7958 316.364C83.7964 317.431 83.8523 318.437 84.0351 319.289C84.2216 320.133 84.5225 320.861 85.1448 321.285C85.838 321.747 86.6882 321.929 87.663 321.928C89.7073 321.924 92.3901 321.154 95.9106 320.123C98.5682 319.341 100.76 318.092 102.342 316.708C103.921 315.322 104.908 313.813 105.091 312.414C105.241 311.221 105.463 310.33 105.655 309.525C105.845 308.722 106.01 307.994 106.01 307.167C106.009 307.131 106.03 306.908 106.073 306.596C106.718 301.792 112.035 272.614 115.466 256.895C118.192 244.401 120.243 228.893 120.243 216.444C120.243 212.12 119.997 208.167 119.44 204.827C118.375 198.435 117.842 192.726 117.575 188.617C117.442 186.562 117.375 184.908 117.342 183.768C117.309 182.627 117.309 182.008 117.309 182.006C117.309 181.865 117.242 181.729 117.13 181.643C117.016 181.557 116.869 181.527 116.731 181.565C116.73 181.565 116.505 181.626 116.078 181.735C113.092 182.498 100.354 185.558 88.7465 185.556C83.7074 185.558 78.8847 184.976 75.1946 183.416C75.0666 183.362 74.9226 183.369 74.8002 183.434C74.6776 183.5 74.5924 183.616 74.5667 183.753L75.0164 183.838L74.8385 184.26C78.7158 185.894 83.6372 186.47 88.7465 186.472C102.185 186.469 116.951 182.452 116.971 182.449L116.851 182.006H116.393C116.393 182.023 116.393 192.118 118.537 204.977C119.082 208.245 119.328 212.156 119.327 216.444C119.328 228.795 117.285 244.268 114.571 256.7C112.737 265.105 110.371 277.317 108.461 287.624C107.506 292.776 106.666 297.452 106.065 300.937C105.764 302.679 105.523 304.123 105.356 305.183C105.273 305.712 105.209 306.145 105.165 306.474C105.121 306.807 105.096 307.013 105.094 307.167C105.095 307.868 104.954 308.514 104.764 309.313C104.574 310.111 104.339 311.051 104.182 312.3C104.059 313.344 103.215 314.735 101.74 316.019C100.267 317.307 98.1862 318.5 95.6523 319.244C92.1437 320.279 89.4772 321.018 87.663 321.012C86.7959 321.012 86.1436 320.851 85.6533 320.523C85.3592 320.338 85.0875 319.845 84.9304 319.096C84.7697 318.354 84.7115 317.396 84.7119 316.364C84.7111 314.295 84.9401 311.936 84.9409 310.22C84.9398 308.591 85.2429 305.845 85.6626 302.455C86.0824 299.06 86.6173 295.012 87.0761 290.731C87.5256 286.523 89.0456 281.265 90.4982 275.843C91.9495 270.418 93.3346 264.823 93.4913 259.865C93.6433 254.992 94.2534 243.313 94.826 232.859C95.1127 227.631 95.3894 222.71 95.5946 219.094C95.6972 217.286 95.7815 215.806 95.841 214.777C95.8996 213.748 95.9326 213.173 95.9326 213.171C95.9473 212.928 95.7696 212.717 95.5277 212.689C95.2868 212.662 95.066 212.826 95.0248 213.066C95.0239 213.068 94.9295 213.619 94.7765 214.497C94.3185 217.127 93.3447 222.682 92.8894 224.96C92.2756 228.03 84.6449 268.297 83.4172 279.337C82.8146 284.77 80.8367 291.779 78.9691 297.759C78.0352 300.75 77.1295 303.486 76.4364 305.65C76.0899 306.732 75.7969 307.671 75.5789 308.432C75.3613 309.195 75.2186 309.767 75.1725 310.17C75.0232 311.515 74.7208 313.099 74.3125 314.395C74.1093 315.043 73.8785 315.619 73.6384 316.051C73.4015 316.485 73.1434 316.758 72.9795 316.832C72.8357 316.907 72.3713 317.055 71.764 317.199C69.9251 317.641 66.6135 318.162 64.1574 318.16C63.5483 318.16 62.9926 318.128 62.5331 318.059C62.0739 317.991 61.7111 317.88 61.5028 317.759H61.5025C60.6053 317.247 59.3683 316.59 58.3774 315.822C57.8822 315.439 57.4517 315.03 57.1582 314.616C56.8631 314.202 56.7077 313.799 56.7077 313.394C56.7088 313.063 56.8076 312.712 57.0763 312.306C58.0654 310.81 58.6637 308.416 59.207 305.495C59.7441 302.578 60.2017 299.145 60.8105 295.646C61.4184 292.152 62.7936 285.659 64.0922 278.709C65.3911 271.755 66.6157 264.346 66.9242 258.962C67.2255 253.668 69.2101 240.07 71.1181 227.829C72.0721 221.706 73.0068 215.916 73.7035 211.658C74.0516 209.529 74.3401 207.782 74.5416 206.568C74.7434 205.353 74.8575 204.674 74.8575 204.672L74.8571 204.516C74.8565 204.514 74.6281 203.22 74.3612 201.657C74.0942 200.095 73.789 198.263 73.638 197.204C73.6223 197.096 73.6126 196.931 73.6126 196.726C73.6101 195.277 74.0728 192.041 74.5376 189.213C74.7698 187.796 75.0021 186.473 75.1764 185.504C75.3506 184.536 75.4662 183.925 75.4666 183.923L75.0164 183.838Z" fill="#17282F"/>
<path d="M95.7265 212.761L86.8718 206.961C86.6599 206.822 86.3762 206.881 86.2373 207.092C86.0988 207.304 86.1579 207.588 86.3693 207.726L95.2245 213.527C95.4361 213.666 95.7201 213.607 95.8593 213.395C95.9977 213.183 95.9381 212.9 95.7265 212.761Z" fill="white"/>
<path d="M83.8724 121.258C83.8724 121.258 64.3291 126.753 63.7187 131.942C63.1074 137.131 59.1383 158.195 58.2222 164.301C57.3061 170.406 54.8627 175.596 58.8327 178.648C62.8026 181.701 68.299 179.564 69.52 177.121C70.7417 174.68 73.1843 168.88 73.1843 168.88C73.1843 168.88 73.7955 180.785 73.7955 182.616C73.7955 184.448 74.1004 187.195 80.2081 187.806C86.315 188.417 98.5297 189.027 104.331 187.501C110.133 185.975 116.24 185.67 116.851 182.006C117.461 178.343 115.629 166.133 116.851 159.111C118.072 152.089 118.988 140.795 118.988 140.795C118.988 140.795 140.669 131.942 144.028 130.721C147.387 129.5 143.723 120.952 140.058 118.815C136.394 116.679 132.425 116.679 127.538 117.594C122.653 118.51 116.545 117.288 113.492 117.288C110.439 117.288 83.8724 121.258 83.8724 121.258Z" fill="white"/>
<path d="M83.8723 121.258L83.7481 120.816C83.7389 120.819 78.8428 122.195 73.8516 124.229C71.3549 125.248 68.8354 126.427 66.8758 127.699C65.8957 128.335 65.0544 128.994 64.4221 129.683C63.7926 130.372 63.359 131.1 63.2638 131.888C62.9625 134.452 61.8163 141.024 60.6336 147.697C59.4506 154.376 58.2297 161.164 57.7691 164.232C57.2459 167.747 56.1845 170.989 56.1781 173.799C56.1781 174.805 56.3187 175.763 56.6909 176.647C57.062 177.531 57.6682 178.332 58.5535 179.011C60.0403 180.156 61.7376 180.614 63.3475 180.613C64.8268 180.612 66.2378 180.232 67.3961 179.639C68.553 179.043 69.467 178.242 69.9296 177.327C71.1657 174.855 73.604 169.062 73.6065 169.058L73.1843 168.88L72.727 168.903C72.727 168.905 72.7653 169.647 72.8225 170.791C72.9943 174.218 73.3381 181.277 73.3374 182.616C73.3367 183.551 73.4118 184.843 74.3615 185.965C75.313 187.085 77.0489 187.951 80.1626 188.262C83.4421 188.59 88.4606 188.917 93.3227 188.917C97.5605 188.915 101.667 188.674 104.448 187.945C107.319 187.187 110.294 186.732 112.674 185.992C113.864 185.621 114.911 185.179 115.73 184.561C116.546 183.947 117.132 183.124 117.303 182.081C117.402 181.485 117.438 180.724 117.438 179.819C117.437 176.295 116.879 170.584 116.879 165.441C116.879 163.154 116.99 160.984 117.302 159.189C118.529 152.131 119.444 140.839 119.445 140.831L118.988 140.795L119.162 141.219C119.165 141.217 120.516 140.665 122.601 139.816C128.852 137.271 141.691 132.057 144.184 131.151C144.757 130.946 145.19 130.539 145.447 130.035C145.706 129.53 145.809 128.94 145.809 128.303C145.805 126.647 145.116 124.62 144.098 122.771C143.074 120.924 141.73 119.267 140.289 118.419C137.999 117.082 135.577 116.553 132.946 116.555C131.222 116.555 129.404 116.778 127.454 117.144C126.16 117.386 124.763 117.477 123.355 117.476C119.593 117.478 115.787 116.834 113.492 116.831C113.068 116.831 112.32 116.895 111.294 117.004C104.14 117.766 83.8089 120.804 83.8046 120.804L83.7481 120.816L83.8723 121.258L83.9399 121.71C83.9442 121.709 85.5996 121.462 88.1374 121.09C91.944 120.532 97.7253 119.695 102.84 118.998C105.398 118.649 107.788 118.335 109.679 118.109C111.565 117.883 112.976 117.745 113.492 117.746C115.639 117.743 119.504 118.391 123.355 118.392C124.803 118.392 126.252 118.3 127.622 118.044C129.539 117.685 131.301 117.471 132.946 117.471C135.459 117.473 137.688 117.965 139.827 119.211C141.033 119.907 142.336 121.465 143.297 123.213C144.264 124.957 144.899 126.903 144.893 128.303C144.894 128.841 144.802 129.289 144.632 129.615C144.46 129.941 144.232 130.156 143.871 130.29C142.171 130.908 135.92 133.423 130.077 135.791C124.236 138.157 118.815 140.371 118.815 140.371C118.656 140.436 118.546 140.586 118.531 140.757C118.531 140.759 118.475 141.46 118.37 142.628C118.056 146.127 117.311 153.796 116.4 159.032C116.073 160.911 115.964 163.124 115.963 165.441C115.964 170.641 116.522 176.378 116.521 179.819C116.521 180.698 116.484 181.426 116.4 181.931C116.264 182.721 115.857 183.31 115.177 183.831C114.157 184.609 112.511 185.15 110.574 185.613C108.637 186.079 106.413 186.48 104.215 187.059C101.594 187.75 97.5192 188.003 93.3227 188.001C88.5017 188.001 83.5023 187.676 80.2535 187.351C77.2597 187.051 75.7893 186.237 75.0611 185.374C74.3315 184.511 74.2542 183.513 74.2535 182.616C74.2531 181.671 74.1003 178.25 73.9475 175.04C73.7947 171.833 73.6419 168.856 73.6419 168.856C73.6309 168.644 73.4734 168.465 73.2637 168.428C73.0536 168.392 72.845 168.505 72.7623 168.702C72.762 168.703 72.6099 169.063 72.3623 169.645C71.6202 171.386 70.0145 175.11 69.1106 176.916C68.7828 177.581 68.0102 178.298 66.9782 178.824C65.948 179.353 64.6679 179.699 63.3475 179.698C61.9072 179.697 60.4247 179.294 59.112 178.285C58.3406 177.691 57.8482 177.032 57.5355 176.292C57.2233 175.552 57.0942 174.721 57.0942 173.799C57.0878 171.22 58.1305 167.969 58.6752 164.369C59.1307 161.331 60.3527 154.535 61.5357 147.857C62.7194 141.176 63.8639 134.621 64.1734 131.996C64.231 131.486 64.5413 130.908 65.0977 130.302C66.0661 129.241 67.7458 128.14 69.7078 127.123C72.6521 125.595 76.2312 124.234 79.0679 123.26C80.4864 122.773 81.7202 122.382 82.5983 122.113C83.4765 121.844 83.995 121.698 83.9961 121.698L83.8723 121.258Z" fill="#17282F"/>
<path d="M120.366 125.781L118.534 140.739C118.506 140.963 118.648 141.176 118.867 141.236C119.086 141.296 119.315 141.187 119.407 140.98L125.21 127.853C125.311 127.622 125.207 127.351 124.975 127.249C124.744 127.147 124.474 127.252 124.371 127.483L119.818 137.783L121.275 125.892C121.306 125.641 121.127 125.413 120.876 125.382C120.625 125.351 120.396 125.53 120.366 125.781Z" fill="#17282F"/>
<path d="M73.6401 168.833L70.8919 141.664C70.8665 141.413 70.6418 141.229 70.3903 141.255C70.1383 141.28 69.9551 141.505 69.9805 141.756L72.7287 168.926C72.7541 169.178 72.9789 169.361 73.2305 169.335C73.4824 169.31 73.6656 169.085 73.6401 168.833Z" fill="#17282F"/>
<path d="M71.1638 149.164L66.2778 137.565C66.1798 137.331 65.911 137.222 65.6781 137.32C65.4448 137.418 65.3357 137.686 65.4337 137.92L70.3193 149.52C70.4178 149.753 70.6861 149.862 70.9194 149.764C71.1528 149.666 71.2619 149.398 71.1638 149.164Z" fill="#17282F"/>
<path d="M115.494 156.848C115.494 156.848 115.479 156.902 115.446 157.011C115.2 157.824 114.003 161.589 111.772 165.809C109.545 170.031 106.277 174.698 101.955 177.342C101.739 177.474 101.671 177.756 101.804 177.971C101.936 178.187 102.218 178.255 102.433 178.122C107.287 175.142 110.748 169.887 113.023 165.384C115.295 160.88 116.37 157.118 116.376 157.1C116.444 156.856 116.304 156.604 116.061 156.534C115.818 156.464 115.564 156.605 115.494 156.848Z" fill="#17282F"/>
<path d="M106.439 170.094L106.395 170.14C105.921 170.63 101.666 174.889 93.1331 179.155C92.9068 179.267 92.8152 179.543 92.9288 179.769C93.0415 179.995 93.3163 180.087 93.5426 179.973C102.762 175.365 107.079 170.75 107.109 170.718C107.282 170.533 107.272 170.244 107.087 170.072C106.902 169.898 106.612 169.909 106.439 170.094Z" fill="#17282F"/>
<path d="M100.362 22.3496L104.026 40.0541C104.026 40.0541 122.348 27.2327 144.334 20.5179C166.319 13.8013 188.083 15.5606 188.083 15.5606C188.083 15.5606 146.166 10.1381 127.844 14.4112C109.523 18.6863 100.362 22.3496 100.362 22.3496Z" fill="white"/>
<path d="M100.362 22.3495L99.9129 22.442L103.718 40.8289L104.289 40.4296C104.289 40.4286 104.569 40.2326 105.111 39.8709C108.897 37.3378 125.304 26.8077 144.467 20.9557C158.827 16.568 173.119 15.8106 181.24 15.8115C183.367 15.8115 185.071 15.8628 186.242 15.9141C186.828 15.9407 187.279 15.9663 187.584 15.9855C187.889 16.0048 188.045 16.0176 188.045 16.0176L188.141 15.1063C188.131 15.1063 166.555 12.3131 147.556 12.3131C140.067 12.3131 132.982 12.7445 127.74 13.9662C109.395 18.2458 100.212 21.9163 100.191 21.9246L99.8351 22.0665L99.9129 22.442L100.362 22.3495L100.532 22.7745C100.532 22.7745 100.67 22.7186 100.954 22.6114C102.939 21.8586 111.937 18.5929 127.948 14.8582C133.063 13.663 140.106 13.2271 147.556 13.2289C157.013 13.228 167.134 13.9249 174.888 14.6219C178.764 14.9708 182.049 15.3188 184.364 15.5798C185.522 15.7108 186.437 15.8198 187.063 15.8958C187.689 15.9718 188.022 16.0148 188.023 16.0148L188.083 15.5606L188.119 15.1045C188.109 15.1036 185.524 14.8957 181.24 14.8957C173.062 14.8957 158.693 15.6531 144.2 20.0792C122.129 26.8233 103.785 39.6658 103.763 39.6795L104.026 40.0541L104.474 39.9616L100.81 22.2561L100.362 22.3495Z" fill="#17282F"/>
<path d="M311.017 189.039C311.06 189.065 311.909 185.779 311.939 185.566C312.283 183.095 311.495 178.118 308.978 176.902C307.166 176.028 305.139 177.08 304.478 178.895C303.804 180.748 304.659 183.022 305.672 184.587C306.861 186.423 311.014 189.037 311.017 189.039ZM296.376 242.372C295.901 242.141 292.235 240.33 290.804 238.78C289.164 239.698 287.31 240.448 286.984 240.577C287.309 242.016 287.612 243.421 287.87 244.74C288.701 248.913 289.233 252.419 289.572 254.879C289.644 255.404 289.705 255.871 289.76 256.298H289.945C290.132 255.939 290.334 255.548 290.558 255.107C291.668 252.918 293.213 249.763 294.892 245.9C295.38 244.786 295.877 243.599 296.376 242.372ZM328.424 175.338C328.016 177.267 326.086 178.745 324.399 179.537C322.67 180.349 318.715 180.468 317.734 180.486C317.2 181.117 316.638 181.798 316.031 182.563C314.975 183.919 313.797 185.458 312.628 187.218C312.316 187.686 311.998 188.203 311.682 188.697C312.388 187.975 313.371 186.995 313.477 186.911C315.429 185.355 320.114 183.498 322.443 185.044C324.12 186.157 324.246 188.438 323.02 189.93C321.769 191.455 319.376 191.877 317.514 191.803C315.57 191.725 311.924 189.956 311.13 189.559C310.446 190.666 309.769 191.819 309.132 193.062C308.031 195.206 306.97 197.55 306.202 200.068L306.344 200.141C306.914 199.394 308.149 197.854 308.265 197.738C310.034 195.979 314.486 193.618 316.97 194.898C318.759 195.821 319.136 198.073 318.082 199.692C317.005 201.345 314.673 202.027 312.813 202.158C310.67 202.308 306.238 200.637 306.073 200.574C305.384 202.933 304.855 205.407 304.461 207.951C304.173 209.795 303.957 211.674 303.757 213.561C304.143 213.026 305.763 211.001 305.896 210.869C307.665 209.109 312.118 206.749 314.601 208.029C316.39 208.951 316.766 211.203 315.713 212.823C314.636 214.475 312.304 215.158 310.444 215.289C308.353 215.435 304.099 213.853 303.741 213.717C303.651 214.575 303.557 215.43 303.475 216.291C303.201 219.097 302.939 221.911 302.594 224.681C302.476 225.642 302.323 226.583 302.175 227.526C302.778 226.743 303.905 225.337 304.016 225.226C305.785 223.468 310.237 221.106 312.722 222.387C314.511 223.311 314.887 225.562 313.833 227.181C312.756 228.834 310.424 229.516 308.564 229.647C306.697 229.778 303.092 228.524 302.081 228.157C301.822 229.725 301.531 231.274 301.171 232.786C301.001 233.435 300.871 234.109 300.672 234.722C300.487 235.344 300.302 235.961 300.119 236.571C299.698 237.82 299.31 238.982 298.887 240.135C298.677 240.718 298.466 241.264 298.255 241.829C298.749 240.944 299.553 239.552 299.641 239.433C301.122 237.427 305.166 234.419 307.816 235.309C309.724 235.949 310.437 238.119 309.641 239.879C308.826 241.674 306.625 242.703 304.807 243.114C302.802 243.567 298.5 242.693 297.975 242.583C297.451 243.962 296.929 245.3 296.417 246.544C294.808 250.482 293.317 253.7 292.242 255.94C292.18 256.066 292.125 256.178 292.067 256.298H299.903L297.2 309.052C296.993 313.061 293.682 316.205 289.666 316.205C285.651 316.205 282.339 313.061 282.134 309.052L279.429 256.298H287.839C287.801 255.935 287.758 255.547 287.708 255.114C287.427 252.676 286.975 249.192 286.243 245.044C286.034 243.847 285.794 242.582 285.534 241.284C284.992 241.356 280.646 241.903 278.684 241.304C276.901 240.759 274.782 239.57 274.104 237.717C273.44 235.904 274.314 233.794 276.264 233.297C278.973 232.607 282.781 235.908 284.11 238.019C284.195 238.155 285.019 239.867 285.422 240.749C285.262 239.965 285.105 239.186 284.925 238.373C284.675 237.202 284.372 235.972 284.086 234.777C283.914 234.164 283.741 233.545 283.566 232.918C283.403 232.284 283.171 231.698 282.974 231.076C282.665 230.173 282.3 229.256 281.94 228.34C280.762 228.667 277.289 229.566 275.502 229.305C273.658 229.037 271.383 228.182 270.433 226.454C269.503 224.761 270.044 222.543 271.898 221.755C274.47 220.664 278.735 223.351 280.368 225.236C280.422 225.299 280.725 225.733 281.079 226.252C280.7 225.369 280.324 224.485 279.909 223.604C278.733 221.101 277.457 218.588 276.188 216.065C275.925 215.538 275.669 215.01 275.407 214.482C274.417 214.762 270.663 215.769 268.791 215.497C266.947 215.228 264.671 214.374 263.721 212.645C262.791 210.952 263.333 208.734 265.187 207.948C267.759 206.856 272.024 209.542 273.657 211.428C273.715 211.496 274.077 212.016 274.475 212.6C273.807 211.22 273.156 209.835 272.554 208.44C271.498 206.003 270.59 203.546 269.9 201.096C269.551 201.198 265.173 202.468 263.093 202.165C261.249 201.896 258.973 201.041 258.023 199.313C257.093 197.62 257.635 195.402 259.489 194.616C262.062 193.524 266.326 196.21 267.958 198.096C268.075 198.23 269.368 200.119 269.808 200.81L269.779 200.723C269.079 198.144 268.727 195.595 268.511 193.163C268.292 190.735 268.292 188.432 268.348 186.312C268.397 184.191 268.573 182.255 268.743 180.542C268.842 179.615 268.95 178.769 269.059 177.981L269.011 178.014C268.969 178.043 268.031 174.781 267.995 174.568C267.585 172.107 268.238 167.111 270.72 165.828C272.508 164.903 274.563 165.902 275.272 167.698C275.997 169.533 275.204 171.829 274.233 173.42C273.24 175.05 270.007 177.331 269.199 177.887C269.101 178.708 269.007 179.586 268.924 180.558C268.791 182.271 268.657 184.205 268.654 186.318C268.652 186.881 268.671 187.487 268.68 188.074C268.871 187.081 269.151 185.723 269.193 185.593C269.964 183.22 272.846 179.087 275.64 179.092C277.653 179.095 279.016 180.927 278.818 182.849C278.616 184.811 276.853 186.483 275.259 187.448C273.594 188.455 269.577 188.989 268.697 189.097C268.737 190.397 268.808 191.732 268.964 193.12C269.228 195.516 269.636 198.057 270.385 200.581C270.472 200.573 270.456 200.574 270.544 200.564C270.608 199.627 270.787 197.659 270.82 197.499C271.325 195.056 273.736 190.631 276.514 190.329C278.515 190.112 280.073 191.784 280.085 193.714C280.1 195.687 278.532 197.542 277.053 198.677C275.348 199.984 270.729 201.033 270.555 201.072C271.283 203.421 272.209 205.775 273.283 208.115C274.06 209.811 274.917 211.498 275.792 213.182C275.818 212.522 276.052 209.941 276.089 209.757C276.594 207.314 279.005 202.89 281.784 202.587C283.785 202.369 285.342 204.042 285.356 205.972C285.369 207.944 283.801 209.801 282.322 210.935C280.659 212.212 276.237 213.237 275.864 213.322C276.262 214.085 276.656 214.851 277.061 215.614C278.382 218.107 279.717 220.599 280.958 223.099C281.389 223.965 281.781 224.834 282.179 225.704C282.249 224.716 282.413 222.922 282.445 222.77C282.949 220.327 285.36 215.902 288.139 215.6C290.141 215.382 291.697 217.055 291.711 218.985C291.725 220.957 290.157 222.813 288.678 223.947C287.192 225.087 283.493 226.029 282.448 226.28C283.097 227.731 283.709 229.185 284.243 230.644C284.461 231.279 284.723 231.912 284.896 232.533C285.084 233.156 285.27 233.771 285.455 234.381C285.793 235.655 286.11 236.838 286.393 238.032C286.541 238.635 286.666 239.206 286.801 239.794C286.724 238.783 286.628 237.179 286.636 237.032C286.764 234.54 288.477 229.802 291.177 229.083C293.123 228.565 294.915 229.981 295.221 231.888C295.26 232.131 295.274 232.374 295.268 232.619C296.438 234.513 297.027 237.207 296.989 238.865C296.986 239.024 296.729 240.907 296.578 241.864C296.876 241.122 297.176 240.387 297.474 239.609C297.912 238.494 298.338 237.3 298.758 236.147C298.954 235.54 299.152 234.929 299.351 234.31C299.566 233.69 299.695 233.074 299.874 232.447C300.115 231.523 300.316 230.558 300.52 229.595C299.358 229.218 295.965 228.051 294.619 226.849C293.228 225.607 291.803 223.64 291.964 221.676C292.122 219.75 293.798 218.199 295.778 218.565C298.527 219.073 300.601 223.665 300.922 226.139C300.933 226.219 300.945 226.749 300.956 227.378C301.126 226.433 301.301 225.488 301.441 224.524C301.841 221.788 302.164 218.988 302.498 216.184C302.568 215.6 302.647 215.018 302.718 214.433C301.739 214.121 298.052 212.89 296.642 211.631C295.251 210.389 293.825 208.422 293.986 206.456C294.144 204.532 295.821 202.98 297.8 203.347C300.549 203.855 302.624 208.446 302.944 210.92C302.955 211.009 302.971 211.641 302.981 212.35C303.184 210.83 303.406 209.315 303.673 207.821C304.137 205.206 304.737 202.655 305.512 200.231C305.165 200.124 300.813 198.768 299.245 197.369C297.855 196.127 296.43 194.16 296.591 192.194C296.749 190.27 298.425 188.718 300.405 189.085C303.154 189.592 305.228 194.185 305.549 196.658C305.572 196.834 305.608 199.124 305.594 199.942L305.618 199.853C306.456 197.315 307.569 194.996 308.732 192.848C309.889 190.703 311.16 188.782 312.375 187.044C313.588 185.302 314.804 183.785 315.89 182.45C316.485 181.731 317.041 181.085 317.567 180.488L317.508 180.489C317.457 180.49 318.475 177.251 318.562 177.055C319.578 174.776 322.879 170.968 325.658 171.267C327.66 171.483 328.823 173.448 328.424 175.338ZM257.263 183.87C256.813 181.993 257.923 179.997 259.918 179.727C262.687 179.353 266.09 183.07 267.168 185.32C267.26 185.515 268.365 188.724 268.315 188.725C268.311 188.726 263.405 188.836 261.4 187.96C259.693 187.214 257.723 185.789 257.263 183.87Z" fill="#17282F"/>
</g>
<defs>
<clipPath id="clip0_13_719">
<rect width="354" height="338" fill="white"/>
</clipPath>
</defs>
</svg>
